<?xml version="1.0" encoding="UTF-8"?>
<svg id="Layer_1" xmlns="http://www.w3.org/2000/svg" version="1.1" viewBox="0 0 262 86.4">
  <!-- Generator: Adobe Illustrator 29.7.1, SVG Export Plug-In . SVG Version: 2.1.1 Build 8)  -->
  <defs>
    <style>
      .st0 {
        fill: #1d1d1b;
      }
    </style>
  </defs>
  <path class="st0" d="M55.6,28.5c0,0,0,0,0,.1-.2,0-1,.8-1,.4,0-.2.9-.6,1.1-.6ZM40.6,34.3c-.3.3-.7.2-.6.7.2.4.8,0,.8-.3,0-.2.4,0,.4-.4,0-.3-.3-.3-.5,0ZM71.4,21.9c0,.2-1.6.4-1.1.8.1.3,1.7-1,2-1,.5-.2.6-.4.1-.3-.4.1-1,.4-1,.5ZM50.2,31.5c0,.3,1-.1.6-.4-.2-.3-.6.3-.6.4ZM51.5,30.7c0,.3.3,0,.1-.1,0,0-.1,0-.1.1ZM52.8,29.9c0,0,0,.1,0,.2.2.3.5-.4,0-.2ZM41.9,34c0,.1,1.2-.4.5-.4-.2,0-.5.2-.5.4ZM52.4,30.3c.3-.2,0-.2-.3,0-.5.3.2.2.3,0ZM53.4,29.6h0c0,.4.6-.3.2-.2,0,0-.2.1-.2.2ZM32.9,34.1c0,.4.4-.2.3-.3-.1-.1-.3,0-.3.3ZM33.4,33.6c0,.2.2.1.2,0,0-.2-.2-.1-.2,0ZM20,51.5c-.4.4-1.7,1-2.1,1.3-.3.2-1.5.3-1.5.2h0c-.1-1,0-1.1,0-1.1.2,0,.6-.3.5-.4-.1-.1-2.1.7-1.9.2,0-.2,1.1-.6,1.1-.9.1-.3,0-.4-.4-.2-1.7.8-1.8.3-3-.4-.7-.3-.5-.7-.9-.9-.1,0-.3-.3-.4-.5-.2-.5-.4-.3-.4-.7,0-.4-.3,0-.6,0-3.8-1.2.3-3.2,2.5-4.7.9-.6,1.7-1,2.4-1.6.4-.4.6-.2,1-.6.2-.3.8-.2,1-.4,0-.2.7-.2.7-.4,0-.2.6-.4.6-.5,0-.2.4-.2.8-.5.5-.4,1.6-.8,2-1.3.3-.3.4-.2.7-.5.2-.4.9-.1,1.1-.2.2,0,.2-.3,0-.3s-.2-.3.1-.3c.1,0,.2,0,.2.2,0,.4.5.1.6-.1,0-.3.5-.2.6-.4,0,0,.2-.2.4-.2.4,0,1.7-1,1.9-1.3.2-.3,1.1-.3,1.2-.6.2-.3.4-.3.8,0,.4.3.9.3,1.1,0,.4-.3,1.4-.7,2-1.3.1-.2.3-.3.6-.3.6,0,1.2-.9,1.7-.8.3,0,.3,0-.2.5-.5.5-.7.5-1,.7-.9.6-2.9,1.6-2.8,1.6,0,.1-1,.6-1,.8,0,0-.1.1-.3.1-.3,0-1.1.6-1.3.6-.1,0-.6.6-.7.4-.1-.2.1-.4.5-.5.3,0,.4-.3.2-.3-.2,0,0,.3-.5.2-.3,0-.4,0-.5.3-.1.3-1.2,1.5-1.4,1.5-.2,0-1.1,1-1.4,1-.3,0-.5.6-.6.5-.1,0-.7.4-.8.3-.3,0-.3.3,0,.4.6.3-.6.7-.7.9,0,0-.1.1-.2.1-.2,0-.7.7-.9.6-.1,0-.2.4-.4.3-.3,0-.9.6-.9.9s0,.3-.2.3c-.5,0-.5,1.2.2.6.2-.1.4-.3.4-.3.1,0,.8-.8,1-.7.1,0,.7-.3,1-.6.4-.3,1.3-.7,1.7-1.1.2-.4,1.5-.5,1.2-.9,0,0-.2,0-.2,0,0,.1-.4.2-.4,0,0-.2.8-.5,1.2-.5.5.2.8-.4,1.1-.2.3.2-.3.4-.3.6,0,.2-.7,0-.6.3.2.6,1-.3,1.4-.4.2,0,.1-.2.5-.3.8-.5,2.2-1.3,2.8-1.7,1-.9,1.6-.9,2.3-1.4.2-.2.5-.4.6-.4.3,0,.9-.6,1.2-.6.3,0,.5-.4.8-.4.3,0,.2-.2.8-.5.3-.1.5-.3.5-.4,0-.1-.3-.3-.5-.2-.3.2-1.3.8-1.8,1.1-.5.4-1.1.3-1.2.5,0,.2-.3.4-1.3.9-.5.3-.9.6-1,.7-.1.3-.4.1-.6.4,0,0-.2.2-.3.2-.2,0-1.6,1-1.8,1,0,0-.2.1-.3.2-.1.2-.7.6-.9.6-.3,0,.6-1.3.8-1.2.4,0,.4-.3.8-.4.7-.3.9-.5.9-.5,0-.1.4-.6.5-.5.1,0,0-.2.2-.1.2.2,2.3-1.2,2.9-1.5.5-.1,2.1-1.6,2.6-1.5,0,0,.2,0,.3-.2.1-.3,1.9-1.3,2.2-1.3s.3-.1.4-.3c.2-.3.6-.2.6,0s.2.2,1-.2c.5-.3.9-.4,1-.5,0-.2,2-1.1,2.1-1.2-.2,0,3.2-1.7,3.7-2.1,1-.5,1-.7,1.9-1.2.7-.4,2-1.1,2.7-1.5.6-.5,2.9-1.4,3.8-2.1.5-.4.4-.2,1.2-.7.5-.4,1.3-.5,1.6-.7,0-.2.3,0,.5-.4.4-.6-1.1.4-1.2.4-.3,0-1.3.9-1.3.4,0-.6,2.4-1.4,2.7-1.5.2,0,.3,0,.4-.2,3.7-2,7.3-4.1,11.3-6,1.5-.7,2.2-1.2,3.5-1.8.9-.4,2.1-1.1,3.1-1.5.4-.1.9-.5,1.3-.5,0,0,.3-.1.4-.2.2-.3.6-.2.8-.3,0,0,.4-.3.7-.4.4-.2.7-.4.7-.5,0-.2.9-.9,1.9-1.4,2.7-1.2,4.5-2.2,7.3-3.1.5,0,1.4-.6,1.9-.7.3,0,1.2-.4,1.9-.8.1,0,.3,0,.4,0,.8-.1,1.9-.8,2.7-1.2,1.5-.7,4.3-1.8,4.8-1.8.3,0,.3,0,0,.2-.2,0-.6.5-.7.6,0,0-1.6.7-1.7.7-1.5,1-2.3,1.1-4.6,2.4-.5.3-1.6.4-2.2.7-.3.2-.7.3-.8.2,0,0-.2,0-.2.1,0,0-.2.2-.4.2-.6-.1-1.8.9-2.3,1.2-1.2.5-2.7,1.2-4,1.8-.9.5-1,.3-1.6.8-.2.3-.9.5-1.1.8,0,.3-1.6,1-2,1.3-.7.5-1.7.7-2.4,1.1-.4.3-.5.2-.1,0,.2-.1.2-.2-.2-.2-1.6.3-5.6,2.8-7.4,3.5-.2,0-1,.8-.2.5,0,0,.4-.2.7-.3.3-.1.5-.2.5-.3.1-.2.7-.3.9-.5.4-.4,1.6-.5.9,0-1.4.7-2.3,1.2-4,2.2-.5.3-.6.1-1,.5-.2.2-1.5.7-1.7.9-.1.2-1.1.4-1.1.7,0,.2-.1.2-.5.2-.6,0-.4.3-.8.3-.2,0-.3,0-.4.3-.1.3-.3.4-.7.4-.2,0-.3,0-.3.1.1.2-.2.3-.5.3-.5,0-1.8.8-2.4,1.1,0,0-.3.1-.5.2-.6.4-1.5.3-1.9.9-.9.7-3.2,1.8-3.5,2-.7.4-1.6.9-2.4,1.4-.6.2-1.1,1-1.3.9,0,0-.2,0-.2.1-.2.3-.7.3-1,.7-.3.3-.4.3-.5.2-.1-.1-.2,0-.4,0-.7.6-1.3.6-2.1,1.2-.6.5-1.2.2-1.3.9,0,.3-.4.5-.8.4-.2,0-.3,0-.3.1,0,.3-.8.7-1,.9-.1.1-.6,0-.6.2,0,.2-.9.6-1.3.6s-.3,0-.3.1,0,.1-.2.1c-.2,0-1.4.9-1.8,1.1-.2,0-.7.5-.7.7s-.1.3-.3.3c-.8.4-2,1.2-2.7,1.6-.2,0,0,.3-.2.2-.6.2-1.5.9-2,1.2-.3.2-.4.4-.8.4-.4,0-.3.5-.6.5-.3,0-.8.4-.8.6,0,0-.1.1-.3.1-.4,0-.5.3-1,.5-.5.1-.4.4-.8.5-.3,0-.2.2-.6.4-.6.3-.7.5-1.4.8-.7.3-.6.3-1.6,1.2-1,.9-1.5.6-2.7,1.7-.8.9-1.2.2-1.6,1.2-.2.6-.2.7.3.4.2-.2,1.1-.4,1.2-.7.1-.4,1-.5,1.3-.8.6-.5,2.5-1.6,2.6-1.8,0,0,0,0,0,0,0,0,0,0,.1,0,.1-.3,1.3-.7,1.4-.9.3-.3.6-.1.9-.5.5-.4,1.3-.9,1.7-.9s.4-.1.5-.3c.1-.2.3-.3.3-.3.3,0,1-.7,1.3-.8,1.7-.8,1.7-1.3,2.9-1.5.6,0,.6,0,.6-.4,0-.2.1-.3.2-.3.3,0,.3-.4.7-.5.4-.1.9-.7,1.2-.6.3,0-.3.8-.2,1,0,.2-1,.7-1.1.8-.1.1-.8.2-.9.3-.1.2-.7,0-.7.3-.1.6-.7.5-1.1.9-.4.3-.5.2-.8.5,0,.1-.2.2-.4.2-.3,0-1.1.9-1.4.9-.3,0-.5.4-.8.4-.3,0-.3.4-.6.3-.1,0-.2,0-.2.2,0,.3-1.5.9-1.6,1.1-.7.5-2.6,1.8-3.4,2.2,0,.1-1.2.8-1.3.9-.2.3-.4.1-.6.4-.5.5-.5.1-1.2.8-.5.4-1.1.6-1.5,1-.1.1-.3.2-.4.3-.3,0-.2.2,0,.4.5.2,2.5-1.6,3.4-2,.7-.3,1.1-.8,1.7-1.1.3,0,1-.6,1.2-.8,0,0,.3-.2.5-.3.8-.4,1.2-.6,1.2-.7.2-.2,1.1-.6,1.3-.9.2-.2.4-.4.5-.4.2,0,1.4-.7,2-1.2.3-.3.6-.2.8-.5,0,0,.1-.2.2-.2s.3-.1.4-.3c.2-.3,1.3-.8,1.5-1,0-.1,2-1,2-1.2,0-.1.4,0,.4-.2.7-.6,2.5-1.3,3.3-1.9.4-.3,1.7-1,2.2-1.3.2-.2.5-.3.5-.3.3,0,1.2-.7,1.5-.8.6-.2.2-.6.8-.7.4,0,.7-.5,1-.6.2,0,1.4-.9,1.6-.9.1,0,.2,0,.2-.1.1-.2,2.1-1.2,2.2-1.3,2.8-1.8,5.2-2.8,7.6-4.3,2.1-.9,3.6-2.1,6.3-3.3.6-.2,1-.7,1.4-.8.3,0,1.1-.9,1.3-.9.2,0,.9-.3.9-.5s0,0,0,0c.1.1,1.1-.6,1.2-.5.2,0,.8-.6.7-.7,0-.2-1.2.6-1.5.7-.2,0-.4.3-.7.3,0,0-.2,0-.2.1,0,.2-.6,0-.6.1,0,.2-.4.4-.7.4-.4,0-1.2.4-1.2.6,0,.2-.5.5-.8.5-.3,0-.1.2-.6.4-.5.2-1.6.9-2.2,1-.5,0-.8.4-1.1.4-.1,0,.5-.5.7-.5s.3-.1.5-.3c.7-.6,1.8-1,2.4-1.3.7-.6,2.7-1.6,3.6-1.9,1-.7,2.8-1.5,3.9-2.2,1.3-.7,5.8-3,7.4-3.7.2-.2.6-.1.7-.3,0-.2,2-.9,2-.8,0,.1.7,0,.9-.2,1.5-.7,3.9-2,5.5-2.5,1.6-.5,4.4-2.2,6-2.3,3.8-1.2,7.2-3.1,11.2-4.9.3-.2.8-.3.9-.3.6,0-.9.5-1,.7-.2.1-.4.2-.4.2-.2,0-2.1.9-2.3,1-1,.4-2.7,1.3-3.8,1.8-1.6.8-4.4,1.9-5.9,2.8,0,0-.2.1-.3.1-.3,0-.6.5-.8.5,0,0-.3,0-.5.2-1.2.7-2.5,1.2-2.9,1.4-.2.2-1.6.7-1.9.9-.7.4.2.3.3,0,.7-.4.7,0-1,.7-.8.3-1.4.6-1.5.7-.6.5-1.1,0-1.7.7,0,.3-.9.1-1,.3,0,.1-1,.3-1.6.7-2,1-5.4,2.7-7.3,3.6-1.5.8-3.9,2-5.5,2.8-2.5,1.3-4.6,2.4-7.4,4-1.1.5-2.8,1.6-3.6,1.9-.2,0-.1.3-.6.4-.6.3-1.2.8-1.9,1-.1.1-1.5.6-1.3.9,0,.2,0,.2-.1.1-.1,0-.5,0-1.2.5-.8.5-.9.4-1.4.8-.4.4-.7.3-1.2.7-.3.2-.6.4-.8.4-1.2.7-2,1.3-3.5,2.1-1,.7-1.9.7-2,1.6,0,.1,1.4-.5,1.7-.9.1-.2.4-.3.5-.3s.2,0,.2,0c0-.1.2-.2,1-.6.8-.4.5-.4,1.4-.9.7-.3,1.2-.6,1.3-.7,0,0,.2-.1,1.1-.6.2-.1.5-.3.5-.3.2-.3.7-.4.7-.1s-1,.6-1,.5c0,0,0,0-.1.1,0,.1-.2.3-.4.3-.8.3-1.1.8-1.8,1.1-.4.1-.7.6-1,.7-.1,0-1.9,1.1-2,1.1-.3.2-.5.5-1.4.9-2.1,1-1.8,1.1-2.7,1.6-.3,0-.9.6-.8.7,0,0,0,0-.2,0-.4,0-.3,1-.9.5-.1-.1-.2,0-.2.1,0,.2-.3.3-.8.5-.6.2-.7.3-.7.5s0,.3-.3.3c-.3,0-1.4.6-1.6.6-.1,0-.2.2-.2.3,0,.4-.7,1-.9.7-.1-.4-1.3.8-1.6.8-.2,0-.5.4-.9.5-1.9,1-2.7,1.4-2.8,1.6,0,0-.8.5-.8.6,0,0-.2.1-.3.2-.3,0-1,.8-1.6,1-.2.1.1.4-.5.5-.6.2-.7.5-1.2.8-.5.3-.3.8-.5.8,0,0-.3.2-.5.5-.3.6-1.6,1.2-2.1,1.6ZM84.6,12.8c0,.2.2.2.2,0,0-.2-.2-.2-.2,0ZM79.4,14.7c0-.2-.3-.2-.4,0-.1.3.5.4.4,0ZM28.4,44.3c.2-.1.4-.2.5-.2.2,0,.6-.5.8-.5.2,0,.2-.4.5-.4.3,0,.7-.5,1.1-.6.2,0,.3-.1.3-.2s.2-.2.4-.2c.5-.1,1.4-1,1.9-1.2,1-.4,2.4-1.6,3.3-2,.2,0,.8-.6,1-.7.1,0,.5-.4.5-.5,0-.2-1.8.8-1.7.9,0,.1-.8.2-.8.4-.1.2-1,.4-1.1.6-.4.4-1.4,1-1.7,1.1-.1,0-.3.1-.3.2,0,.2-.8.4-1,.6-.3.3-1.5.8-2,1.2-.1.1-.3.2-.5.2-.4,0-.3.5-.9.7-1.3.4-1.2,1.1-.4.5ZM82.8,8.5c0,.1.2.2.2,0,0,0-.2-.2-.2,0ZM77.5,11.9c0,.2.2.1.4,0,.3-.3-.4,0-.4,0ZM60.4,20.6c.1.2.4.1.5,0,.3-.4-.6-.2-.5,0ZM31.6,34.7c-.7.5.6,0,.4-.2,0,0-.2,0-.4.2ZM44.6,31.8c-.4.2-.2.4-.5.4-.1,0-.5.2-.8.5-1,.8-.1.6.2.3.5-.4.7-.3,1.4-1,.3-.3,0-.5-.3-.3ZM29.7,35.9c-.2.4.8-.3.8-.4,0-.1-.7.2-.8.4ZM100,2.3c0,.3.3,0,.1-.1,0,0-.1,0-.1.1ZM23.8,39.7c0,0,.1,0,.2,0,.3-.3-.4-.3-.2,0ZM56.8,27.7c0,.1-.2,0-.4.2h0c-.2.2-.1.2.5-.1.4-.2.8-.4.8-.4,0,0,.1,0,0-.1,0-.1-.9.3-.9.4ZM67.6,70.6c0,.2.3.1.4,0,0-.2-.3-.1-.4,0ZM142.8,77.2c-.4.3-1,.4-1.2.7-.1.2-.5.2-.7.5-.4.4-.7.4-1.1.7-1.6,1.4,3.2-1.9,3.6-2,.1,0,.2-.1.1-.2,0,0-.3,0-.6.2ZM130.2,83.1c0,0-.1,0-.1.1,0,.3.3,0,.1-.1ZM105.7,81.2c0,0-.2,0-.2.1.2.2.6-.2.2-.1ZM114,83.5c0,.2.2.1.2,0,0-.2-.1-.1-.2,0ZM143.6,76.7c0,.2.4.2.4,0,0-.2-.4-.2-.4,0ZM157.5,83.9c0,.1.1.2.2.2.2,0,.3-.2.1-.4-.1-.3-.4-.1-.3.2ZM157.9,83.8c0,.3.7-.1.5-.3-.2,0-.5.1-.5.3ZM154.2,81.1c-.4.3-1,.4-1.2.7-.1.2-.5.2-.7.5-.4.4-.7.4-1.1.7-1.6,1.4,3.2-1.9,3.6-2,.1,0,.2-.1.1-.2,0,0-.3,0-.6.2ZM155.6,80.3c-.1,0-.2,0-.1.1.1.3.4-.1.1-.1ZM145.8,76.4c0-.4-1.3.5-1.3.7,0,0,0,0,0,0,.9-.4,1.2-.6,1.2-.7ZM29.7,44.6c.1-.2,0-.2-.3,0-.4.3.2.2.3,0ZM63.3,68.6c-.1,0-.2.1-.2.2.1.4.6-.3.8-.3.2,0,.8-.3.8-.4,0-.1-1.1.3-1.3.4ZM62.3,69c-.1.2.6-.1.6-.2.1-.2-.6.1-.6.2ZM28.9,45.1c0-.2,0-.2-.3,0-.3.2.3.1.3,0ZM30.5,43.8c0,0-.1.1-.1.2.1.3.4-.3.1-.2ZM29.9,44.3c0,0,0,.1,0,0,.3,0,0-.4,0,0ZM70.9,67.3c-.4.4-.9.8-1,.8-.2,0-.6.3-.6.5,0,.4.9-.4,1.1-.4.3,0,.7-.6,1-.6.1,0,.3-.2.4-.4.4-.9.2-.8-.8.1ZM68.6,68.9c0,.1.2.2.2,0,0-.1-.3-.2-.2,0ZM72.6,66c-.1,0-.2,0-.2.1,0,.3.5,0,.2-.1ZM72.1,67.9c0,0-.2.2-.5.3-.5.2-.7.5-1.1.6-.2,0-.9.7-.9.8s0,.1.2,0c.1-.1,3.1-1.6,3.2-1.8.6-.4,2.8-1.6,2.5-1.8,0-.3-.1-.3-.4,0-.1.1-.3.2-.5.2-.2,0-1.6.9-1.8,1.1,0,.1-.7.2-.7.4ZM69.5,66.2c-.3,0-1.5.7-1.9,1.2-.2.2-.4.3-.5.2-.3,0-1.5.6-1.6.9,0,.1,0,.1.2,0,.4-.1.8-.2,1.2-.5.3-.3.6-.2.8-.4.3-.2,2.3-1.3,1.9-1.5ZM67.6,66.7c0-.2-.2-.1-.2,0,0,.2.2.1.2,0ZM24.1,36.7c0-.1-.3-.2-.2,0,0,.1.2.2.2,0ZM97.7,16.3c0,.2.2.2.4,0,.5-.5-.7-.4-.4,0ZM99.2,14.7c0,0-2.1.9-2.1,1,0,.1.4,0,1-.3.4-.2.8-.4.8-.4.2,0,.3-.2.2-.3ZM97.1,16.5s0,.2,0,.3c.2.2.5.3.4,0,0-.2-.4-.4-.5-.3ZM99.1,15.9c0,0,.2-.2.5-.3.8-.3.5-.6,0-.3,0,0-.2.1-.3.2-.1,0-1,.4-.7.6.1.2.6,0,.6-.2ZM100.8,13.9c-.1,0-.8.3-.8.4.1.3,1-.4.8-.4ZM103.2,13.8c.2,0,.7-.5.9-.5.2,0,.4-.4.6-.4.6,0,1.8-.8,2.4-1.1,0,0,.2,0,.3-.2.6-.4,3.4-1.4,4-1.9,0-.1-.2-.1-.5,0-1.7.9-2.6,1-3.7,1.8-.9.2-3.5,1.4-3.7,1.3,0,0-.2,0-.3.2-.4.3-.6.2-1.2.7-.4.4-1.4.8-1.6,1.2,0,.3,1.8-.9,2.8-1.2ZM111.6,9.6c0,.2.5,0,.6,0,.2,0,.3-.3,0-.3s-.7.2-.7.4ZM127.3,3.1c.8-.4,1-.2,1.6-.6.3-.3.5-.2.8-.3.1,0,.7-.4,1.3-.6.9-.5,2-.9,2.6-1.3.1-.2-.5.2-.5,0-1.5.3-2.2.7-4,1.5-1.3.8-2.5.5-3.3,1.5-.4.6,1,0,1.4-.2ZM120.4,8.8c.2,0,.3-.2.2-.3-.2-.2-1.6.7-1.9.6-.3,0-.4.2-.3.4.5,0,1.2-.5,1.9-.8ZM111.5,6.2c0-.1.6,0,.6-.3,0-.1.2-.3.4-.4.5-.2.8-.7.6-1-.5-.7-.9.9-1.5,1-.5.2-1,.8-.8,1,0,.2.7-.1.7-.2ZM111,8.7c0,0,.2-.2.3-.2.4,0,.4-.3.8-.4.4-.2.6-.5.2-.5-.3,0-2,.7-1.9,1.2.1.2.4.2.5,0ZM105.2,10.9c-.3,0-.5.2-.4.3.1.3.9-.3.4-.3ZM106.1,4.4c-.2.2.5,0,.3,0,0,0-.2,0-.3,0h0ZM106.1,2.4c0-.2,0-.1-.2,0,0,.2.2.1.2,0ZM134.4,0c0-.2-.4-.2-.4,0,0,.2.4.2.4,0ZM107.6,10.1c.2,0,.5-.4.7-.5.3-.3.2-.4-.2-.2-.4.1-.6.5-.5.7ZM101.7,5.6c.3.4,1.5-.4,1.9-.6.2,0,1.7-.8,2-1,.2-.2.3,0,.4-.2.2-.3-.7-.1-1.4.2-.4.3-2.8,1.2-3,1.6ZM102.1,7.2c-.4.3-1.5.5-1.8.8-.6.2-2.6,1.3-2.9,1.4-.1,0-.2.1-.3.2,0,.3-.8.5-1.1.4-.1,0-.2,0-.3.1,0,.2-.8.5-1.1.5s-.2,0-.2.2c0,.2-.2.1-.2.4,0,.2-.5.3-.5.5,0,.4-.6,0-.6-.3,0-.1,0-.2-.3-.1-.3.1-.9.4-.2.5.4.1.6.5.3.5s-.5.2-.9.4c-.9.5-1.1,0-1.9.5-.2.2-.9.4-1.2.6-.2.1-.4.2-.5.2-.1,0-.8.3-2.5,1.1-.4.2-.8.3-.9.3,0,0-.1,0-.1,0,0,.1-.6.4-.8.4-.4.1-.8.5-1.3.6-.3.1-.6.2-.6.3,0,.2-.9.5-1.2.5-.3,0-.3,0,.2-.3.5-.2.5-.4.3-.5,0,0-.3,0-.5.2-.3.3-1.4.7-1.5,1.1,0,.2-.7.6-2.1,1.2-.2,0-.4.2-.4.3s-.1.1-.3.1c-.4,0-.3.4-.7.4-.3,0-.2.2-.6.4-.6.2-.3.3-.9.5-.3,0-.6.2-.7.2-.2,0-.2,0,0,0,.4-.3,0-.7.6-.9.3-.1.4-.2.4-.4-.4-.2,2.8-1.6,2.7-1.7.2-.2,1.1-.3,1.4-.6,0-.1.6,0,.7-.2,0-.2,1.2-.6,1.3-.8.2-.2,1-.6,1.2-.6.3,0,1.6-.9,1.9-.8.1,0,.5-.2.8-.4.5-.5,1.4-.3,1.5-.7,0,0,0-.2.2-.2.2,0,.5-.1,1.9-.8.3-.1.8-.4,1.1-.5.3-.1.4-.3.4-.4.2-.5,1.3-.7,1.9-1,2.2-1,2.2-.8,5-2.2.6-.3.6-.4,1-.2.3.1.9-.7,1.2-.7.4,0,.5-.3,1-.4.2,0,.5-.2.6-.3.3-.3.9-.1,1.3-.5.4-.4.8-.2,1.2-.5.2,0,.2-.1.2,0-.1.2,0,.2.7-.1.4-.2.6-.2.6,0-.2.3-1.1.5-1.4.8-.4.4-.4.2-.8.6ZM85.7,14.3c0-.2-.2-.2-.2,0,0,.2.2.2.2,0ZM91.9,11.6c-.2,0-.2.3-.5.2-.2,0-.6.3-.8.5.3,0,.9-.2,1.1-.3.3-.2.4-.4.2-.4ZM109,9.5c0-.2-.3-.1-.3,0,0,.2.2.1.3,0ZM106.4,10.7c0-.1-.3-.2-.2,0,0,.1.2.2.2,0ZM107.7,9c0,0-.1,0-.1.1,0,.3.3,0,.1-.1ZM29.8,34c.1-.1,3.1-1.6,3.2-1.8.6-.4,2.8-1.6,2.5-1.8,0-.3-.1-.3-.4,0-.1.1-.3.2-.5.2-.2,0-1.6.9-1.8,1.1,0,.1-.7.2-.7.4,0,0-.2.2-.5.3-.5.2-.7.5-1.1.6-.2,0-.9.7-.9.8s0,.1.2,0ZM152.3,11.3c-.2,0-.3.1-.3.2-.2.6,2.2-.7,2.4-.5.5.1.5-.3,1.1-.5.6-.3,1.6-.8,2.2-1.1,1-.4.4-.7-.1-.3,0,0-.4.2-.6.3-.6.2-.8.4-1.4.5-.6.1-.6.3-1.2.5-1.4.5-1.2.6-2.1.9ZM152.3,10.8c.2-.2,3.4-1.1,2.4-1.1-.5,0-.5.2-1.2.4-.8.1-.8.6-1.5.6-.4,0-1.8.8-2.1.7-.2,0-.4.3-.6.3,0,0-.3.1-.4.2-.2.1-.2.2-.1.2,1.1-.3,2.5-.9,3.6-1.3ZM223.6,15.7c0-.2-.2-.1-.3,0,0,.2.3.1.3,0ZM224.9,15.1c0,0,0,0-.3,0-.2,0-.4.1-.5.2-.1.1.6,0,.8-.2ZM222.2,17.7c0,0,0,.1,0,.2.2.3.5-.4,0-.2ZM216.6,20.6c.1-.1,2-.8,1.4-1-.2,0-.5.3-.6.3-.2,0-1.2.6-1.2.7s0,.1.5,0ZM228.5,15.1c0,.1.6,0,.6-.2,0-.3-.6.1-.6.2ZM212.2,21.7c.2,0,1.2-.3,1.5-.5.4-.3,1.7-.7,2-.7.2,0,.8-.3.3-.4-1.1,0-2.9.9-3.9,1.4,0,0,0,.1.1.1ZM225.3,14.8c-.1,0-.2.1-.2.2,0,.2.8-.4.2-.2ZM238.9,26.7c1-.4,1.5-.6,1.1-.6-.2,0-1.4.6-2,.7,0,0-.2,0-.2.1,0,.2,0,.2,1-.2ZM227.5,14c.5-.4-.6.1-.5.1,0,.1.3,0,.5-.1ZM229,13.2c0,0-1.1.4-1.1.5.2.2,1.2-.4,1.1-.5ZM222.5,16c-.1,0-.2.1-.2.2,0,.6,1.1-.6.2-.2ZM162.7,7.4c.3-.2,1.4-.3,1.2-.7,0,0-.5.1-1,.4-.7.4-1,.3-1.3.5,0,0-.2.1-.3.1-.3,0-1.3.4-1.3.6,0,.4,1.8-.6,2.7-.9ZM159.4,8.7c.6-.3-.7-.4-.6,0,0,.4.5,0,.6,0ZM161.5,8.8c0,0,0,.1.1.1.4,0,0-.3-.1-.1ZM212.1,20.4c.8-.3,1.9-.9,2.7-1.3.3-.1.5-.3.4-.3-.3-.2-3.7,1.2-3.6,1.5h0c0,.2.2.2.5,0ZM153.1,12.3c0,.5.3-.1.1-.2,0,0-.1,0-.1.2ZM100.6,8.8c0,.1.2.2.2,0,0-.1-.3-.2-.2,0ZM211.5,21.8c-.2,0-.3.1-.3.2,0,.4.9-.3.3-.2ZM202.4,8.5c0-.2-.4-.1-.4,0,0,.2.5.1.4,0ZM164.5,6.4c0-.3-.3,0-.3.1,0,.3.3,0,.3-.1ZM199.2,9.3c.3-.2.4-.2.2-.3-.2,0-1.6.6-1.5.8.2.3.9-.4,1.3-.5ZM110,8.8c0,0-.2,0-.4.2-.7.7.5,0,.4-.2ZM65.7,16.7c-.2,0-.8.1-.9.3,0,.1-.7.2-.7.4,0,.5,1.3-.4,1.6-.7ZM64.2,15.4c0,0,0-.5,0-.2,0,.1,0,.2,0,.2ZM63.8,15.6c.4,0,0-.3-.3,0,0,.1-.9.4-.9.5,0,.5.9-.5,1.1-.5ZM62.5,16.4c.1-.4-.6,0-.5,0,0,.2.5.1.5,0ZM63.6,17.6c0,.2.2.1.2,0,0-.2-.1-.1-.2,0ZM73.1,10.9c.5-.2,1.2-.6,1.3-.7,0,0,0,0-.2,0-.3,0-.5.4-.8.4-.2,0-1,.5-1.2.5-.3,0-.8.5-.7.6.4.2,1.1-.4,1.6-.7ZM67,13.5c0-.1.5-.2.5-.3-.1-.1-.7.2-.6.3,0,0,.1,0,.2,0ZM70.7,12c.4,0,.5-.6,0-.2-.2.2-.9.2-.9.4.2.4.6-.3.9-.2ZM66.2,16.3c0,0,0,.1.1.1.4,0,0-.3-.1-.1ZM61.4,16.9c.1-.3,0-.3-.3,0-.4.4.2.3.3,0ZM65,15.3c.2-.3,1.1-.3,1.3-.6.1-.3.9-.5,1-.7,0-.1.2-.2.3-.2.3,0,1.1-.8,1.4-1,.2,0,.3-.2.3-.2,0,0-.9.2-1.1.4-.2.2-1.7.9-1.9.9s-.1,0-.2.2c0,.2-.6.1-.7.3,0,.2-1.6,1-.9,1.1,0,0,.3,0,.4-.2ZM67.2,15.7c-.3.3.3.2.4,0,.3-.3-.3-.2-.4,0ZM41.4,28.5c0-.3,1.2-1.1,1.6-1.1.3,0,.3,0,.4-.3.3-.8-.3-.2-1.1.2-.6.3-1.1.6-1.2.6-.2,0-.2.4-.5.4-.2,0-.2.2-.2.4,0,.7.8,0,.8-.2ZM46.2,25.7c0-.2.9-1,1.2-.7.3.2.4,0,.2-.1-.2-.2.3-.6.8-.6s.4,0,.4-.1c0-.2,1.1-.6,1.2-.8.2-.2.8-.1.8-.5,0-.2,0-.3-.1-.3-.2,0-1.4.8-1.4.9s-.1,0-.2,0c-.3,0-1,.6-1.3.7-.4.2-2.3,1.4-2.6,1.6,0,.2,1.2.2,1.1,0ZM39,29.3c.2-.2,0-.2-.3,0h0c-.4.3.2.2.3,0ZM59.8,18c.4-.5.8-.4,1-.9.1-.5-1.7.9-1.6,1.1.1.2.2.1.6-.2ZM35.3,31.5c-.1.2-.3.3-.4.3-.3,0-.3,0-.1.3,0,.4.4-.3.5-.3.8,0,1.9-1.3,2.8-1.9.4-.3-.2-.2-.3,0-.3.3-1,.5-1.5,1-.3.3-.7.1-1,.5ZM51.4,22.1c-.1,0-.4.3-.4.4.1.2.7-.4.4-.4ZM55.7,22.9c.4-.3-.7-.2-.3,0,.1,0,.2,0,.3,0ZM55.4,19.3c-.1,0-.2,0-.1.1.1.3.4-.1.1-.1ZM54.2,23.6c0,0,.2-.1.3-.1.3,0,.8-.4.7-.5,0,0-.2,0-.4,0-.5.3-1.4.4-1.7.9h0c-.4.7,1.1-.3,1.1-.4ZM52.2,21.4c0-.3-.6-.2-.3,0,.1.1.3,0,.3,0ZM83.7,18.2c0,.1,1.2-.2,1.2-.2,0,0,0-.4,0-.3,0,0-1.2.4-1.2.6ZM88.4,16.1c0,0,0,0,.3,0,.2,0,.1-.5,0-.5s-.4.4-.3.5ZM89.3,15.5c.2.1.2.1.3,0,.1-.2-.7-.2-.3,0ZM98.6,9.7c0,.2.4-.2.6-.1.5-.4-.6,0-.6.1ZM85.2,17.6c0,.1,1.1-.5.6-.5-.1,0-.6.4-.6.5ZM86.4,16.8l-.4.2c.2,0,.8,0,.8-.1.1-.2,0-.3-.5,0h0ZM87,16.5c0,.4.9-.3,1.1-.4.4-.4-.5,0-.5,0,0,.1-.5.1-.6.3ZM91.2,14.6s-.1,0-.1.1c0,.3,1.1,0,.5-.1-.1,0-.3,0-.3,0ZM95.6,10.8c-.6.1-1.1.4-1.3.7-.7.8,2.7-1,1.3-.7ZM97.1,10.5c.5,0,1.1-.4,1.2-.6.2-.4-1.3.4-1.4.5-.2.2-.2.2.2,0ZM93.3,14c0,0,0,.1,0,.2.2.3.5-.4,0-.2ZM92.3,14.4c0,.2.5-.2.5-.2,0,0-.5,0-.5.2ZM83.8,5.9c.2-.2.3,0,.4-.2,0-.1.1-.2.4-.3.6-.1,1.2-.4,1.3-.5.1-.2.3,0,.4-.2.2-.3.4-.1.7-.4,0-.2.8-.4.6-.5-.2,0-.6.4-.8.3-.3,0-.3.2-.6.2-.3,0-1.7,1-1.9,1-.1,0-.3,0-.3.2,0,.2-.6.1-.7.3-.1.2-.7.2-.9.4-.1.2-1,.3-1.1.5-.1.4,2-.3,2.6-.9ZM82.9,18.5c-.5.1-1.1.4-1.1.6,0,.2,1-.2,1.1-.4-.2,0,.5-.3,0-.2ZM78.8,8.2c.3,0,.7-.4.2-.4-.4,0-1.1.3-1,.5.3.3.4-.2.8-.1ZM76.2,9.1c0,0,.2-.1.3-.2.2-.1-.6-.1-.5.1,0,.1,0,.2.2,0ZM80.4,7c-.2,0-.9.5-.9.7-.1.4,1.7-.6.9-.7ZM77.2,8.5c-.1,0-.2,0-.2.1,0,.3.5,0,.2-.1ZM80.2,9.3c0,0-.2,0-.3.1-.3.4.6,0,.3-.1ZM105.7,2.6c0-.2-.1-.1-.2,0,0,.2.2.1.2,0ZM81.6,19.4c.5-.3-.4-.3-.6,0-.2.2.6,0,.6,0ZM88.2,3.3c-.2,0-.4.2-.4.2,0,.3,1.2-.5.4-.2ZM75.6,11.1c-.1,0-.2.2-.2.2,0,.4.9-.6.2-.2ZM227.2,15.7c0,0,.8-.2,1-.4.1-.4-1.1.3-1,.4ZM200.6,73.9c0,0-.3,0-.3.2,0,.2.4-.2.3-.2ZM202.3,75.4c0,.5.4,0,.7,0,1.2-.3-1-.8-.7,0ZM199.6,76.8c.2.2.7-.5.9-.5.2,0,1.2-.5,1.3-.7.4-.7-2.7,1-2.2,1.2ZM204.2,71.8c-.2,0-1,.3-1,.4,0,.1.5,0,.5,0,0,0,.2-.1.3-.1.2,0,.3-.2.1-.2ZM202.5,73.2c-.3.3-.2.3.3,0,.5-.3,0-.4-.3,0ZM194.8,74.9c0,.2.2.2.2,0,0-.2-.2-.2-.2,0ZM204.4,74c-.1,0-.2,0-.2.2,0,.4.6-.2.2-.2ZM196.7,78.2c-.1,0-.3,0-.3.2,0,.5.8-.3.3-.2ZM197.8,75.7c-.1,0-.2.1-.3.2-.2.5.8-.3.3-.2ZM199,75.4c0,0-.1.1-.1.2,0,.3.4-.3.1-.2ZM196.6,77.9c.1.4,1.1-.5.9-.5-.2,0-.9.3-.9.5ZM195.7,76.5c0,.2.4.2.3,0,0-.2-.3-.2-.3,0ZM215.8,66.5c0,0-.2-.2-.2,0,0,.1.2.2.2,0ZM211.3,68.9c0-.2-.5-.1-.4,0,0,.2.4.1.4,0ZM211.2,70.4c-.6.1-1,.3-.9.5.3.4,1.1-.4,1.6-.3.3,0,.4,0,.3-.2-.1-.4-.6,0-1,0ZM213.2,69.4c-.2.2,0,.5.1.6.5.1,1.3-.3,1.1-.6-.1,0-.2,0-.2,0,0,0-.2.1-.3.1-.5,0,.3-.3.4-.4,0,0,.3-.2.5-.2.4,0,1.1-.4,1.1-.6-.4-.4-2.4.8-2.7,1ZM214.8,66.9c-.2,0-1.9.8-1.9.9.3.2,2.2-.9,1.9-.9ZM209,71.4c-.2,0-.8.2-.5.4.2.2.1.2.9-.2.4-.2.7-.4.7-.4,0-.3-.8.2-1.1.2ZM208.6,70.2c0-.2-.5,0-.9.2-.3.2-.2.2.4,0,.2,0,.5-.2.5-.3ZM210,69.2l-.3.3h.4c1-.2.2-.8-.2-.3ZM205.6,73.4c-.2.1-.2.1,0,.1.3,0,1.3-.6,1.3-.7,0-.4-1.2.5-1.4.6ZM206,71.3c0-.1-.5-.1-.9,0-.4.1-.4.4,0,.4s.2,0,.2.1c0,.2.9-.5.8-.5ZM212.2,68.1c0,0,0,.1.1.1.1,0,.4-.4.1-.3,0,0-.2.1-.2.2ZM169.6,82c0-.2-.2-.2-.4,0-.3.2.4.1.4,0ZM171.3,87.4c0,.1.2.2.2,0,0-.1-.3-.2-.2,0ZM170.5,83.1c0,0,0-.1.2-.1.3,0,.6-.5.9-.5.3,0,.4-.5.2-.5-.5.1-2.1,1.3-2.6,1.6,0,.4,1.3-.4,1.3-.5ZM175.1,85c0,.1.1.1.1,0,.1-.4-.3-.3-.1,0ZM174,85.4c0,.1-.2.2-.3.2-.2,0-.9.5-.9.6,0,.1.4.1.4,0,0-.1.7-.6,1.1-.8.5-.3-.1-.5-.3,0ZM170.8,80.5c0,0,.2,0,.2-.1,0-.2.6-.2,1.1-.7.2-.2.5-.1.6-.3,0,0,0-.1,0-.1-.3,0-.9.5-1.1.6-.1,0-1.2.5-.6,0,.1-.1.3-.2.3-.3,0-.4-.7.4-.9.3-.2,0-.3.2-.2.3.3.5-.4.3-.5.5,0,.1-.7.2-.4-.1,0-.1.2-.2.2-.2.1,0,.4-.2.3-.3-.2-.1-.5.3-.8.3-.2,0-.3.2-.2.4,0,.3,0,.3-.2.3-.3,0-1,.8-1.4.7-.2,0-.3,0-.3,0,0,.2-.7.8-1,.9-.4,0-1.1.8-1,1h0c.1.2.3.1,1.8-.8.8-.5,1.5-1,1.5-1,0,0,1.9-1.1,2-1.1.1,0,.5-.5.7-.5ZM171,80.8c0,0,.4-.1.4-.2,0-.2-.4.2-.4.2ZM163.9,82.2c0,.2.2.2.2,0,0-.2-.2-.2-.2,0ZM162.8,82.9c0,0,.1,0,.2,0,.4-.3-.4-.3-.2,0ZM164.6,81.8c-.3.2.3.1.3,0,0-.2,0-.2-.3,0ZM175.9,84.2c-.2,0-.4.3-.3.4.2.2.6-.3.3-.4ZM194.2,77.6c0,.1.2.2.2,0,0,0-.2-.2-.2,0ZM193.1,80.3c0,.1,0,.2.2.1.5-.3,0-.6-.2-.1ZM194.4,74.9c-.1,0-.6.2-.6.3,0,.3.7-.1.6-.3ZM192.1,76.1c0,.1.3,0,.8-.2.5-.2.7-.5.4-.5s-1.2.6-1.2.7ZM194.5,80.1c0,0,0,0,0,0,.3,0,0-.2,0,0ZM175.9,83.1c-.4.4.7-.2.6-.2,0-.1-.5,0-.6.2ZM194.5,79.6c0-.2,0-.1-.2,0,0,.2.2.1.2,0ZM189.1,78c0,.1.2.2.2,0,0-.1-.3-.2-.2,0ZM191,79.1c0,0,0,0,0,0,.3,0,0-.2,0,0ZM192.8,78c-.1,0-.2.2-.2.2.2.3.7-.6.2-.2ZM193.1,80.7c-.1,0-.2.1-.2.2,0,.3.6-.3.2-.2ZM222.4,65.5c.1,0,.2,0,.3.1.1.1.3-.1.2-.3-.2-.3-1.2,0-.5.2ZM206.8,65.4c-.7.5.5,0,.4-.1,0-.2-.1-.1-.4.1ZM204.8,65.9c-.1,0-.3,0-.3.2-.2.2,0,.2.3,0,.2-.1.2-.2,0-.2ZM195.4,70.7c-.1.1-.1.2,0,.2.5,0,.3-.5,0-.2ZM207.8,64.8c0,.2,0,.3.1.1.2-.1-.2-.6-.1-.1ZM204,66.5c.5-.2-.3-.5-.3,0,0,.1,0,.2.3,0ZM206.3,65.6c0,0-.1,0-.1.1,0,.3.3,0,.1-.1ZM203.1,67c0,0-.2,0-.3,0-.2.2.5,0,.3,0ZM197.2,70.1c0-.2-.4-.2-.4,0,0,.2.4.2.4,0ZM199.5,67.8s-.1,0-.2,0c-.2,0,.3.1.2,0ZM202.5,67.1c0,0-.6.2-.6.3.1.3.7-.2.6-.3ZM220.9,66.3c0,.2.4,0,.3,0,0-.2-.3-.1-.3,0ZM208.2,63.5c-.1,0-.2.1-.2.3,0,.3-.1.4-.4.5-.5.1-1.1.5-1.1.7s0,.1.6,0c.8-.2,1.5-.8,2.1-.8,0,0,.1,0,.1-.1,0-.2-.1-.2-.7,0-.7.3,0-.3-.4-.4ZM182.6,74.2c0,0,.1-.2.3-.3.5-.3-.1-.2-.5.2h0c-.8.6,0,.5.2.1ZM181.6,74.8c.3,0,.3-.4,0-.3-.2.1-.8,0-.8.3,0,.5.6,0,.9,0ZM185.5,72.4c-.1-.1-.4,0-.4.3,0,.5.6-.1.4-.3ZM180.6,75.4c0-.2-.2-.2-.2,0,0,.2.2.2.2,0ZM192.7,68.7c.1-.2.6,0,.6-.4,0-.5-1,.4-1,.4,0,.2.2.1.4,0ZM254.8,42.5c-2.4,1.2-2.3,1-5.4,2.4-.8.3-1.9.9-2.5,1-.5,0-.7.5-1.1.5-.3,0-.5.3-.7.4-.3,0-1.1.5-1.4.5-.4,0-.7.3-.6.4,0,0,.2,0,.4,0,.8-.4,2.5-.9,2.9-.9.5,0,.6-.2.9-.3.1,0,.2,0,.3-.1,0-.2,1,0,1.1-.3.2-.3.9-.2,1.6-.6.9-.5,1.7-.6,2.4-1.1.3-.3,1.1-.3,1.3-.5,0,0,0-.1.2-.1.6.3-.6.9-1.2,1.1-2.5,1.1-2.3,1.2-3.5,1.8-.8.2-2,1-2.3,1.2-1,.3-2.7,1.2-3.8,1.5-.2.1-.7,0-.9.2-1.1.5-1.7.6-3.4,1.4-3.9,1.6-5.8,2.4-10,4.2-2.6,1.1-4.4,2-6.6,3-.8.4,0-.3-.6-.3-.4,0-.2-.3.3-.6.9-.5,1.8-.5,1.1,0-.2.1-.2.2,0,.2.4,0,.7-.4,1.2-.5.7-.2.9-.4.9-.7s-.4-.3-.9,0c-.7.4-.8.4-1,.4-.5,0-2.6.6-2.6,1.2.1.2.4-.3.6,0,.1.1,0,.2-.1.2-.2,0-.3.1-.2.4,0,.4,0,.5-.3.1-.1-.2-.2-.2-.8.1-.6.3-2.6,1.2-2.5,1.4.5,0,1.5-.9,2-.9.2,0,.7-.7.9-.3.2.1-3.6,1.8-4.7,2.4-2.1,1.2-3.2.8-4.7,1.6,0,0-.4.2-.7.3-.3,0-.6.2-.7.2-.9,0,2-1.2,2-1.2.2-.2.9,0,1.1-.3,0,0,0-.1.2-.1.3,0,.5-.5.8-.5.1,0,.3,0,.5-.2.2-.2.7-.2.7,0,0,.1-.6.6-.8.7.3-.1,1.7-.7,1.3-.9-.3-.2,0-.4.8-.8.1,0,.3-.2.3-.2,0-.1-.9.2-1.7.6-.4.3-1,.3-1.3.6-.4.3-.7.2-1.7.8-1,.5-1.3.6-1.6.5-.3,0-.4,0-.6.2-.4.4-.5.2-1,.5-.7.3-1.6.6-2.1,1.3-.2.4-.6.2-.7.4,0,.2-2.2,1.2-2.4,1.2-.4-.2-2,.9-2.2,1.4-.5.3-1.7.3-2.1.5-.5.2-.7.4-.4.4s.2.2-.2.5c-.5.3-.8.3-.4,0,.6-.5.2-.6-.4,0-.4.3-.7.5-2,1.2-.7.4-.8.5-.5.5.2,0,.2,0,0,.2-.2.2-.4.2-.6.2-.2,0-1.2.3-1.5.6-.1.1-1,.5-1.1.5-.4,0-.7.7-1.3.8-.2,0-.4.4-.7.4-.2,0-1.1.9-1.3.9-.6,0-1.5.6-2,.9-.2.1-1.3.6-1.4.8,0,.2-1.1.4-1.4.7-1,.6-2.9,1.6-3.8,2.3,0,.2-1.2.8-1.4.8s-.2,0-.3.2c-.1,0-.5.3-.8.5-.6.3-.9.8-1.5.9-.4,0-.7.6-1.1.6-.2,0-.3,0-.4.2-.1.3-.5,0-.4.5,0,.2,0,.3-.4.3-.3,0-.6.1-1.1.5-1,.7-.6.3-1.7,1-.8.5-1.3.7-1.1.4h0c.3-.3,1.9-1.1,2.2-1.5.3-.3.6-.4.6-.5,0,0,0-.1-.2-.1-.4,0-.1-.3.7-.7.8-.3.9-.6,1.3-.8,0,0,.2,0,.2,0,0-.1,1.5-1.1,1.7-1.1.2,0,.1-.2.6-.4.8-.2,2.3-1.6,3.1-1.9.1,0,.2,0,.2-.1.7-.7,2.1-1,2.8-1.9.4-.5.6-.3,1-.6.4-.5,1.6-.5,2.1-.8.2-.2,1.4-.8,1.6-1,.1-.1.4-.3.6-.3.6-.2,1.1-.6,1.7-.9,1.2-.7,1.6-1.4,3.1-2,.3-.2,1.4-.8,1.6-1.1.1-.1.4-.3.7-.3,1.1-.1,0-.8.5-1.1,0,0,.1.1.1.2,0,.3.3.2,1.1-.3.5-.3.6-.4.5-.7,0-.5-.3-.7-.4-.4-.1.2-.9.5-1.2.5-.3,0-.3.5-.7.6-.5.1-.6.4-1.2.4-.9,0-1.6,1.1-2.5,1.2-.6.1-2,1.8-2.4,1.6-.1-.1-1.4.8-1.7.8,0,0-.2,0-.4.3-.6.5-1.1.5-1.7,1-.3.2-.7.4-.7.4-.3.2-.3,1-.8.7-.2,0-.3,0-.4,0-.3.3-2,.4-1.9.9,0,.2-1.3.8-1.6.8s-.3-.2,0-.4c.1,0,.7-.5.3-.6-.2,0-.2,0,0-.2.1,0,.3,0,.3,0,.1.2,1-.2,1.8-.7.3-.2.7-.4.9-.4.5-.1,2.1-1.4,2.6-1.6.3-.1.5-.3.6-.4.2-.2.5,0,.8-.2.2-.1.4-.3.5-.3.2-.1.4-.5.8-.6.9-.2,2.7-1.8,3.1-1.7.2,0,1.3-1,1.5-.9,0,0,.4,0,.6-.2.2-.2.5-.3.6-.3.3-.1.5-.4,1-.6.3-.1.6-.3.6-.4s0-.2.2-.2c.8-.2,2.3-1,3-1.6.4-.3.5-.2,1-.5.9-.5,2.1-.8,3.6-1.8,1.5-.9,2.2-1.3,2.3-1.3.2,0,.4,0,.9-.4.5-.4.7-.4,1-.5.2-.2,1.6-.9,1.8-.9s.3,0,.3-.2c.2-.2,1.5-.5,1.7-.8.1-.1.4-.3.6-.3,1.1-.3,2.1-1.1,3.2-1.4.9-.3,1-.6,2.3-1.2.8-.4,1.4-.8,1.4-.9.7-.6,3.5-1.7,4.4-2.1.6-.2,2.8-1.3,3.2-1.3.2.1.5,0,1.4-.4.7-.4,2.6-.8,2.6-1.3,0-.2.1-.3.3,0,.2.2,1.5-.4,2.1-.7,1.1-.4,1.3-.6,1.2-.6-.2-.1-.2-.1.6-.5,5.2-2.3,11.1-4.5,16.2-6.6.6-.3.8-.2.3,0-1.1.6-1.6.8-2.1,1-.6.2-.9.4-.7.4s1.1-.3,2.5-1c1.1-.4,5.2-2.6,4-1.6-1,.8-3.7,2.2-4.8,2.6,0,0-.3.2-.5.4-.2.4-1.3.7-1.5,1,0,.1.5,0,.8,0,2-1,3.6-1.1,5-1.7,1.4-.7,2.3-.4.4.5-1.1.5-.9.7.2.2,1.1-.5,1.3,0,.2.5ZM176.4,79.9c0-.2-.3-.2-.5,0-.3.3.5.1.5,0ZM202.1,63.7c-.8.4-1.2.5-1.6.5-.5,0-1.8.6-1.8.9,0,0,0,.2-.2.3-.2.2-.3.6,0,.6s.3-.1.6-.3c.6-.3.6-.7,1.2-.8.5,0,2.7-1.2,3-1.4.3-.4,0-.4-1.1.2ZM212.5,58.6c0-.4-.9-.2-1.8.2-.9.4-1.3.8-2.1,1-.2,0-.5.3-.3.4.1.1.8,0,1-.2.3-.3,1.6-1,2-1.2.3-.2,1.2,0,1.2-.2ZM214.1,57.8c0-.2-.6,0-.4.2,0,0,.4,0,.4-.2ZM216,55.9c0-.2-.1-.2-.2,0-.2.3.1.5.3.3,0,0,0-.2,0-.3ZM217.1,58.9c-.5-.1-1.1.5-.1.2.1,0,.2-.1.1-.2ZM217.4,59.3c0,.2.1.1.2,0,0-.2-.2-.1-.2,0ZM219.6,58.3c.1.2.1.2.6-.1,1.1-.8-.8-.3-.6.1ZM230.6,53.5c0-.2-.4-.2-.7,0-.8.6-2.6.9-3.1,1.4,0,.2.3.1.8,0,.7-.2,2.6-.8,3-1.4ZM234.4,52.1c0-.3-.9-.1-.8.1,0,.1.8,0,.8-.1ZM237.8,50.5c0-.2-.4-.2-.5,0-.1.2.6.2.5,0ZM247.6,41.8c0,.2.3.2.4,0,.2-.3-.5-.3-.4,0ZM211.7,63.1c.2-.2,0-.2-.3,0h0c-.4.3.2.2.3,0ZM212.5,62.5c0,0-.1,0-.1.1,0,.3.3,0,.1-.1ZM212.9,63.1c0-.2-.2-.1-.2,0,0,.2.1.1.2,0ZM253.1,46.3c0,.2.3.1.5,0,.5-.3-.5-.1-.5,0ZM201.4,67.6c-.1,0-.2,0-.2.2,0,.4.6-.2.2-.2ZM225.5,62.6c0-.1-.3-.2-.2,0,0,.1.2.2.2,0ZM245.4,54.7c-.5.4-3.9,1.4-3.6,1.7.2.1-.2.4-.5.3-.2,0-.3,0-.3.2,0,.4-1,.3-1.2.6-.3.3-1.3.4-1.6.6-.3.2-1.4.5-1.6.7,0,0-.4.2-.7.4-1.8.6-1.1.6-2.4,1.1-1,.4-.7.4-1.7.7-.2,0-.2.2-.1.3.2.4-2.8,1.4-2.9,1.5,0,0-.3.1-.6,0-.6-.2-.7.5-1.3.4-.6,0-.6.5-1.1.6-.1,0-.7.4-.4.3,0,0,.2,0,.2,0,0,.1-.4.3-1.2.7-.6.3-.8.2-.4-.1.2-.2.3-.4.3-.5.2-.6,1.3-1,2.1-1.3,1.5-.7,1.7-.8,2.2-.8.3,0,.5-.1.6-.3.2-.4,1.1,0,1.1-.3,0-.2.3-.1.4-.3,0-.2,1.2-.7,1.2-.8,0,0,.2-.2.3-.2.5,0,.7-.4,1.3-.5.6-.2.6-.5.9-.6.1,0,.3,0,.5-.2.3-.2,1.4-.4,1.7-.7.6-.4,2-1.1,2.7-1.2.4,0,.4-.3,1.2-.6,1.3-.6,1.6-.8,1.9-1,.1,0,.4-.3.7-.3,1.4-.4,2-.8,3-1.1.7-.2-.3.4-.5.5ZM231.3,61.3c-.2-.3-.4.3,0,.2,0,0,0-.1,0-.2ZM224.8,62.2c0-.2-.6,0-.8.2-.5.5,1,0,.8-.2ZM247.1,52.3c-.5.3-.9.1-1.4.5-.5.5-1.2.1-1.4.7,0,.5-1,.2-1.3.4-.7.3-2.8,1-3.2,1.4-1.4.6-1.5.4-3.8,1.4-1.1.4-2,.8-2.1.8-.3,0-.1.2-.4.2-.5.1-1.6.8-2.2,1-.7.2-1.3.9-1.9,1-.6,0-1.9.9-2.2.8-.2,0-.5.7-.8.6-.2-.1-1.3.4-1,.7.1.1,1.3-.3,1.4-.5.3-.2.7-.1,1.2-.5,1.3-.7,1.2-.4,3.3-1.5,1.2-.5,1.8-1,3.2-1.3,1.4-.4,3.6-1.6,5.4-1.8.8,0,.1-.7.9-.6.7,0,1.7-.3,2.1-.7.4-.3.5-.4,1.3-.5.5,0,1.5-.8,2-.9.2,0,.4,0,.5-.2.1-.2,1.1-.4,1.1-.7,0-.1.1-.2.2-.3.3,0,.6-.3.5-.4,0-.1-.9,0-1.4.3ZM232,59.6c0-.2-.1-.1-.2,0,0,.2.2.1.2,0ZM220.7,65.8c-.4.2-.6.4-.7.6-.1.2-.2.3-.2.1,0-.1,0-.2-.1-.2-.2,0-1.5.5-2.2.8-.3.2-1.7.5-1.3,1,.4,0,1.5-.8,2.3-.8.6,0,1.3-.4,1.7-.5.3,0,.6-.3.4-.5-.3-.1.8-.6.8-.6,0,0,.1,0,.1-.2,0-.2,0-.2-.8.1ZM243.3,51.8c0-.2-.3,0-1.3.3-.4.2-1,.2-1,.5.1.4,2.3-.4,2.2-.8ZM217.3,65.6c0,0-.1,0-.1,0,0,.2.4,0,.1,0ZM219.6,64.2c-.1,0-.3,0-.5.1-.3.2-.6.1-.9.4-.2.2-.2.2,0,.2.4,0,1.6-.6,1.3-.7ZM162.5,83.3c0,.2.2.1.2,0,0-.2-.1-.1-.2,0ZM223.1,62.8c-.7.2-1.1.8-2,.7-.4,0-1.3.2-.6.5.6.2.6-.2,1.2-.3.6,0,.7-.4,1.2-.5.2,0,.8-.5.2-.4ZM194,71.6c-.1,0-.1,0,0,.3.2.4.3-.3,0-.3ZM191,72.8c0-.2-.5-.1-.5,0,0,.2.6.1.5,0ZM187,78c0-.2-.1-.1-.2,0,0,.2.2.1.2,0ZM187.5,74.6c0-.2-.2-.1-.2,0,0,.2.2.1.2,0ZM193.6,72.4c0-.1-.2-.1-.2,0,0,.2.3,0,.2,0ZM191.5,73.5c0,0-.1,0-.1.1,0,.4.3,0,.1-.1ZM185.6,78c.4-.2.5-.4.3-.5-.1,0-.9.4-.9.6,0,.2,0,.2.5-.1ZM179,81.6c0,.1,0,.1.2,0,.6-.4-.2-.7-.2,0ZM184.3,78.5c0,.3.4,0,.4,0,0-.3-.4,0-.4,0ZM182.8,78.2c0,.2.5,0,.6-.2,0-.2.2-.3.4-.3.3,0,1-.8,1.4-.7.2,0,.3,0,.3-.1-.1-.5-2.4,1-2.6,1.3ZM252.9,46.5c.2.2-4.1,1.6-4,1.8,0,.2.2.2.5,0,.8-.4.7.3,0,.4-.4,0-.2.4,0,.2.6-.2,1.4.2.3.3-.4,0-.6.2-.7.3-.1.2-.3.2-.6.2s-1.2.3-2.5,1c-4.2,2-.7-.2-2.9.6-1.3.4-3.6,1.5-4.6,1.8-.9.3-4.9,2-4.8,2.2,0,.1,1.3-.3,1.5-.5,1.6-.7,3.6-1.4,5.2-2.1.7-.3.7.2,0,.4-.5,0-1.1.9-1.4.7-.2-.3-1.4.6-1.6.6-.8.2-1.9.9-3,1.2-1.2.4-2.3,1.1-3.5,1.4-.2,0-.7.5-.9.5-.7.3-2.4,1.1-3.1,1.4-3.6,1.9-2.5,1.1-6.3,3-1.5.8-1.7.5-2.9,1.3-.3.2-2,.8-2.3,1.1-.4.3-.7.2-1,.4-1.2.5-3.4,1.9-4.6,2.3-1.1.4-2.8,1.5-3.8,2-.6.1-1.8,1-2.1,1.1-.3,0-1.7.7-1.9.9,0,0-.2.2-.3.2s-.3,0-.4.2c-.2.2-1.1.5-1.3.6,0,0-.4.2-.6.4-.5.2-.8.1-.4-.1.8-.8-1.7.6-1.7.7-.4.3-.8.2-1.4.6-.5.4-2.5,1.2-2.9,1.6,0,.2-1.1.4-1.2.7,0,.2-1.2.1-1.1.3,0,.2-.4.6-.8.7-.6.2-.9.7-1.6.9-.9.3-1,.9-1.8,1.1-.3,0-2.4,1.2-2.4,1.4-.1.3-.9.4-1.1.6-1,.5-2.6,1.5-3.5,2-.5.2-1.3.8-1.8,1.2-.5.5-.8.5-.8,0h0c0-.4.2-.5.7-.4.2,0,.2,0,.3-.2,0-.3.9-.9,1.4-1,.2,0,.4-.1.5-.2.3-.3.4-.1.8-.5.5-.5.5-.2,1-.7.4-.5.6-.1,1-.4,0,0,.4-.3.7-.4.5-.2.8-.7,1.1-.9,0,0,1.5-.7,1.5-.5.2.2.7-.9.9-.3,0,.2.6-.2.7-.6,0-.3.2-.4.4-.4.3,0,.7-.8.7-.2,0,.4.2.3.5-.1.2-.5,1.5-.9,1.7-1.4,0-.2.3-.4.8-.6.4-.2.7-.3.7-.4.1-.2,1.5-.7,1.6-.9.3-.3.8-.2,1.2-.6.3-.4,1-.2,1-.6.3-.6,1.8-1,2.4-1.4.1,0,.5-.3.8-.4,2.1-1.1,2.9-1.6,3.1-1.6s.7-.4,1.1-.8c.3-.3,1-.6,1.2-.6.2,0,2.1-.9,2.4-1.2.6-.6,1.3-.5,1.6-.7-.3,0,2.6-1.4,3-1.7.3-.3.8-.1,1-.4.2-.5.5.1.3.4-.4.5.8.2.5-.2-.5-.8.7-.6,1-1,.2-.3,2.3-1.2,2.6-1.4.7-.4,3-1.4,3.5-1.4.3,0,.4-.5.7-.5.3,0,2.6-1.2,3-1.2,1.1-.3,1.6-.9,3-1.5,1.5-.7,1.5-.9,2.7-1.2.8-.2,1.7-.7,2.4-1,1.5-.5,4.3-2,5.9-2.6.7-.2,1.2-.6,1.7-.6,0,0,.2,0,.4-.2.7-.6,2.2-1.2,2.8-1.1.5.3,1.5-.9,2.2-1.2.3,0,.8-.6,1-.7.3,0,.2.3,0,.5-.2.1-.1.1.3,0,.4,0,.5,0,.5-.3,0-.3,1.3-1,1.4-.8.1.2-.5.2-.4.4,0,.2.3.1.7,0,.5-.3,1.7-.8,2.6-1,.5-.1,1-.4,1.2-.5.4-.2.6-.2.6,0ZM206.2,68.2c-.6-.3-.9.7,0,.2.2-.1.3-.2,0-.2ZM168.3,73.1c-.6.5-1.6,1-2.3,1.4-.2.2-.2.2,0,.2.4,0,.4-.5.8-.5.3,0,1.6-1,1.8-1,.2,0,1.2-.7.8-1-.7.2-.8.7-1.2.8ZM127.7,19.3c0,.1.5,0,.6-.1,0-.4-.8-.1-.6.1ZM79.7,30.7c0,.2.2.1.2,0,0-.2-.2-.1-.2,0ZM78.2,31.4c-.3.4.4.3.4,0,0-.4-.2-.3-.4,0ZM77.2,32.2c.2.4,1.2-.8.3-.3-.2.1-.3.2-.3.3ZM76.1,65.6c-.1,0-.2.2-.2.2.2.4.9-.7.2-.2ZM92.2,19.5c0,.2.2.2.2,0,0,0,0-.1.2-.1.2,0,.2-.3,0-.4-.2,0-.5.3-.5.5ZM76.4,32.4c-.1,0-.2.2-.2.2.2.3.9-.7.2-.2ZM96.6,16.9c0-.2,0-.2-3.4,1.4-.5.3-1,.3-1,.5.3.4,2.2-.1,2.7-.6.2-.3,1.6-1,1.7-1.3ZM83.3,28.1c0,.3.3,0,.1-.1,0,0-.1,0-.1.1ZM91.6,19.1c.1.4.4-.3.1-.2,0,0-.1.1-.1.2ZM134.2,4.5c-.3.4.7,0,.2-.2,0,0-.2,0-.2.2ZM80.9,30.1c-.1.3.7.3.6,0,0-.4-.5-.2-.6,0ZM75.4,32c0,.1.2.2.2,0,0,0-.2-.2-.2,0ZM133.1,13.7c0,0,.1,0,.2,0,.4-.2-.4-.4-.2,0ZM132.7,11.4c-.2,0,.3.1.2,0,0,0-.1,0-.2,0ZM130.3,16.5c.3.3.8-.2.2-.2-.3,0-.3,0-.2.2ZM129,17.2c0,.2.8-.4.2-.2-.1,0-.2.1-.2.2ZM132.3,11.8c.5-.4-.4,0-.5,0-.2.2.2.1.5,0ZM134.3,13c0,0-.2,0-.2.1.2.2.6-.2.2-.1ZM70.4,34c.2.1.9-.4,1.1-.4,0,0,.2,0,.3-.2.3-.3,1.9-.6,1.8-.9,0,0,0-.1-.2-.1-.2,0-2.3,1-2.3,1.1-.3.2-.9.1-1.4.7,0,0,0,.2,0,.2.2.3.7,0,.6-.3,0-.1,0-.1.2,0ZM134.2,13.6c-.1.3.3.2.3,0,0-.3-.2-.2-.3,0ZM133.5,10.4s0,0,0,.1c.3.2,1-.4,0-.1ZM80.6,30.4s-.1,0-.2.1c-.3.4.4,0,.2-.1ZM168.3,74c0,0,0,0,0,0,.3,0,0-.2,0,0ZM166.1,75.4c0,.1.9-.4.5-.4-.1,0-.5.3-.5.4ZM166.9,75s.2,0,.4-.1c.7-.6-.8-.3-.4.1ZM164.8,77.5c.2.3,1.2-.9,1.6-.9.2,0,.4-.1.4-.2s0-.1.1-.1c.2,0,.6-.4.6-.6s-.5-.2-.5,0c0,0-.3.2-.6.4-.7.3-1.7,1.3-1.6,1.5ZM170.2,72c-.1,0-.3.1-.3.2-.1.4.9-.3.3-.2ZM169.1,73.5c-.7.8,1.2-.4.5-.3-.1,0-.4.1-.5.3h0ZM162.1,79.3c0,.2.1,0,.9-.6,0,0,.2-.1.3-.1.2,0,.6-.4.5-.5-.2-.1-1.7,1-1.7,1.2ZM164.3,76.6c0,0-1.1.6-1.2.8,0,0,0,.1,0,0,.2,0,1.4-.7,1.2-.9ZM176.4,70.4c-.1,0-.2.1-.3.2-.1.2.3.2.3.1,0,0,.2-.5,0-.4ZM168.7,75.1c0,0-.2,0-.4.1l-.3.2c.2,0,1,0,.7-.3ZM168.4,77.5c-2.7,1.6-5.9,3.8-8,4.9-.3,0-.8.6-1.1.6-.3,0,0-.4.5-.8.5-.2.7-.7.9-.6.1,0,1.2-.6,1.2-.8s0,0,.2,0,.4-.3.7-.6c.4-.5,1.9-1.3,2.1-1.8,0-.2.8-.8,1.1-.8s.3-.1.4-.3c.4-.4,1-.5,1.4-.9.2-.2.4-.3.7-.3.5,0,1.2-.3,1.2-.5s.2-.1.3-.2c.6-.2,1.1-.8,1.8-1.1,1.4-.8,3.7-2.1,4.6-2.8.4-.3.6-.1,1-.6.3-.4,1.2-.5,1.4-.9.2-.4.6-.2.9-.6.3-.3.8-.4,1.1-.6.3-.5,1-.3,1.3-.7.5-.6,2-1.2,2.7-1.7.3-.1,1.2-.8,1.5-.8.1,0,.2,0,.3-.1,0-.2,1.6-1,1.8-1s.3-.1.4-.2c.3-.3.5-.2.9-.5.2-.1.4-.3.5-.3.2,0,.4-.4.3-.5-.3,0-.5.3-.9.5-1.1.4-4.2,2.6-3.5,1.6.2-.2,0-.2-.6.1-.8.4-.9.2-1.7.7-.9.5-1.8,1-2.6,1.4,0,0-.4.3-1.4.9-.5.3-.9.5-1,.6-.1.1-.9.2-1,.5-.2.3-1.3.6-1.5.9-.2.3-1.4.7-1.6,1-.3.3-.5.1-.8.4-.1.1-.4.3-.7.3-.6,0-1.4.6-1.9.8-.2.1-.5.3-.6.4-.2.2-.2.2-.2,0s.1-.3.3-.4c.9-.8,1.7-1.1,2.5-1.6,0-.2-.9,0-.9.1-.1.3-.3.1-.6.4-1,.6-.9-.2,0-.5.8-.3,1.6-1.2,2.4-1.6.3-.2.4-.2.2-.3-.5,0-3.2,1.7-3.8,2.1-1.2.7-4.2,2.8-5.2,3.2-.1,0-.5.6-.7.5-.1,0-.4.2-.7.3-1,.6-2,1.3-3,1.9-1.1.6-.8.8-2.2,1.4-.7.4-1.9,1.3-2.5,1.5-.3-.2,2.3-1.8,2.4-1.8,0,0,2.2-1.6,2.3-1.6.1,0,1.2-.8,1.3-.8,0,0,.7-.7.3-.7-.4,0-1.5,1.1-2,1.3-.5.2-.5.5-.7.5-.2-.1-1,.7-1.4.9-.5,0-.9.9-1.4.8-.3-.1-1.7.8-1.9.8,0,0-3.4,1.7-3.5,1.6,0,0,.2-.3.5-.4.5-.2,1.7-1.5,2.1-1.7.9-.4,3-1.5,3.9-2.2,0-.1.5-.2.5-.4,0-.2,1.2-.6,1.2-.7,0-.6,1.3-.9,1.7-1.4.4-.5.5-.2,1-.7.4-.4.5-.2.8-.5.2-.2.7-.3.8-.5,0,0,.3-.2.6-.4.6-.2,1.4-1.1,1.9-1.3.1,0,.2,0,.2-.1,0-.2,1.2-.8,1.3-1,.2-.3,1.9-1,2.2-1.4.3-.3,1.7-.8,2.1-1,.4,0,.7-.4.6-.6-.2-.5-1.3.5-1.6.6-1.9.8-4.4,2.8-6.2,3.6-1.1.3,0-.3.5-.7.4-.5.6-.4.9-.6,0-.1,1.5-1,1.4-1.1,0-.2.5-.5.5-.6-.2-.1-.6.4-.8.1-.2-.2-.6.3-.8.3-.1,0-1.5,1.5-1.7,1.4,0,0-.2,0-.3.1-.3.3-1.4.8-1.8,1.1-.4.3-.6.4-.8.3-.3-.2-.7,0-1.4.5-1.9,1.2-3.1,2-4.9,3.1-1.4,1.1-4.9,3-6.2,4.1-.1,0-1.6.8-1.7,1-.3.2-1.1.8-1.5.6-.6-.1-.7-.2-.4-.5.6-.6-1.6-.2-.2-.9.5-.2,2-1.3,2-1.4s.2-.1.4-.2c1.2-.6,2.8-2.2,3.9-2.6.9-.6,1.9-1.2,2.5-1.7,1-.5,1.5-.9,1.3-1.1-.2-.2-.7.5-.8.5-.7.3-2.6,1.6-3.5,2.2,0,.1-1.6,1-1.9,1.2-.2.1-.3.1-.4,0,0,0-.2,0-.4.2-.3.4-.5.2-.8.5,0,0-.2.2-.4.2-.4,0-1.5,1.2-1.8.9-.1,0,.7-.7.6-.8-.2-.1-.8.6-.9.3,0-.2.8-1,1.1-1,.3,0,.4-.4.7-.4,1.5-1.4,5.8-4.2,7.8-5.5.2-.1.4-.4.6-.4.4-.1,2.7-1.7,2.6-1.4.2.3-1.7,1.4-2,1.7,0,0,0,.1-.2.1-.2,0-.6.2-1.6,1-.3.2-.6.4-.7.4-.4.2-.6.6-1.6,1.2-1.5,1-2.8,1.9-2.7,1.9s1.6-.8,2-1.3c.1,0,.2-.1.4,0,.2.2.9-.6,1.1-.6.2,0,1.5-.8,1.6-1,.1-.2.9-.6,1-.5.3,0,.4-.4.8-.5.6-.2,1.2-1,1.8-1.3.4-.2.5-.3.5-.6s0-.4.5-.6c.7-.4,1.4-.6,1.6-.6.2,0,.7-.5.6-.7-.1-.2-.5-.2-.6,0,0,.1-1.6.9-2.1,1-.7.2,0-.6,1.2-1.1,1.2-.7,5.6-3.3,6-3.2,0,.4-2.3,1.5-2.3,1.8,0,0,1-.4,1.2-.6,0,0,.2-.2.3-.2.3,0,1-.3,1.3-.5.3-.2.7-.7,1-.8.3-.2.1-.5.7-.7.4,0,1.6-1.4,1.9-1.5.3,0,1.1-.6,1.1-.9,0-.4-.6-.3-.8,0-.4.4-.6.2-1.2.6-.8.5-1,.4-1.8,1-.3.2-.7.4-1,.5-.9.2-4.2,2.2-5.6,3.1-.5.4-.6.2-.9.6-1.1.9-3.5,2.1-4.6,2.9-.4.2-.8.5-.8.6-.1.3-1.5.9-1.7,1.2-1.5,1.2-3.5,2.2-5.1,3.2-.4.2-2.3,1.5-2.7,1.5-.1,0,0-.4.3-.5.1,0,.3-.2.4-.4.3-.5,1.3-1.3,2-1.6.4-.1.8-.5.8-.6s-.2-.1-.6.2c-.8.5-.9.2-1.9.9-1.2.8-3.5,2.1-3.9,2.3-.4.2-6.7,4.7-7.1,4.8-.3,0-.9.6-1.2.6-.2,0-.9.3-1.2.5-.1,0-.2.1-.3,0-.3-.2-1.5.9-1.6.6,0-.2,1.1-1.2,1.3-1.2s.5-.3.3-.4c-.2-.1-1.9.9-2.3,1.1,0,0-1.4.9-1.2.2,0,0-.2,0-.5.2-1.1.6-1.1.6-1.2.5-.1-.2-.6,0-1.4.4-.3.2-.6.1-.6,0,0,0,0,0,0,0,0,.2-.2.2-.7.3-.5,0-.8.1-1.5.5-1.2.6-1.4.7-2.4.5-.7-.1-.9-.2-.9-.3,0-.1.2-.2.4-.3.4-.1,1.8-1,2.2-1.2.4-.2,1-.7.9-.8,0,0-.9.4-1,.5,0,.1-.4,0-.4.2,0,.1-1.1.5-1.1.6,0,.2-.7.2-.9.4-.3.3-.3,0-.6.2-.4.2-2.5,0-2.8-.4-.3-.2-.6-.3-.7-.3-.5,0-.8-1-1.3-.6-.9.3-1,.1-.7-.4.2-.3-.6,0-.7-.2-.1-.2-.9-.4-1.6-.3-.2,0-.4,0-.5-.2-.1-.3-1.2,0-1.2-.4,0-.3-.5-.4-.7-.3-.3.2-.5-.1-.2-.4.3-.3,0-.4-.6-.2-.4,0-1.7.5-1.8,0,0-.2-.2-.2-.5-.2-.7,0-.3-.2.2-.7.6-.6.5-.8-.2-.6-.3,0-.5,0-.6,0-.2-.2-.5,0-.7-.3,0-.3-1.9,0-2.1,0-.2,0-.4-.3-.4-.6.2-.6-1.3.5-.8-.3.1-.2.1-.3,0-.4-.2-.2-.9,0-.9.1s0,.1-.1.1c-.2,0-1,.4-1.2.5-.3.2-2.6,1.5-3.8,2.1-1.7.9-2.5,1.1-2.7,1.1-.5,0-2.1.4-2.2,0h0c.8-1.8-1.5.2-1.5-.7,0-.2-.2-.4-.6-.3-.4,0-3.2,1.3-3.1,1,0-.3-.4-.4-.2-.7,0-.3,0-.3-.4-.2-.3,0-.6,0-.7.1-.1,0-.2,0-.2-.4,0-.1-.4-.2-.7-.2-.1,0-.3-.5-.5-.5-.4,0-.8-.3-1-.7-.2-.6-3.8.9-3.2.2.3-.4.3-.6,0-.4-.4.3-1,0-.5-.2.5-.1-.2-.4-.4-.1-.2.3-1.9-.4-1.9-.8,0-.4-1.1-.2-1-.9,0-.2.6-.4,1.1-.4.4,0,.7-.4,1-.4.1,0,.6-.2,1-.4,1.8-.9,3.1-1.6,4.8-2.6.7-.3,1.1-.7,1.6-.9.3,0,.3-.4.5-.4.2,0,.8-.8,1.2-.7.5,0,.8-.4.7-.8,0-.3,0-.3.2-.3.4,0,.2-.3-.2-.3-1.1,0-1.6-.2-1.7-.3,0-.1-.3-.2-.8-.1-.7,0-.9.2-.9.6,0,.1,0,.2-.2.2-.2,0-1,.7-1.1.7-.2,0-.2.2,0,.3.2.1-.1.3-.4.2-.2,0-.4,0-.7.3-.5.4-.6.2-.7.7,0,.4-.8.4-1,.7-.1.1-.3.2-.3.2-.1,0-1.2,1.1-1.3,1.1-.3,0-1.1.6-1.4.7-.2,0-.5.2-.6.4-.1.2-.3.3-.3.3-.5,0-1.4.5-1.8,0,0,0-.3-.2-.5-.2-.2,0-1.1-.7-1.1-.9s.3,0,.7,0c.9,0,3.2-1.3,3.8-1.7.2-.3.5,0,.7-.3.2-.3.8-.4,1-.8,0-.2.2-.3.2-.2.1,0,.4-.3.5-.3,0,0,.2,0,.4-.2.2-.2,1.2-.7,1.4-.9,0-.1.3-.3,1.3-.7.7-.4.8-.4.7-.7-.1-.3-1.7,0-2,.2-.5.3-.9.4-2.2,1.3-.5.3-.5.2-1.1.6-.5.4-1,.3-1,.8,0,.3.5-.4.5-.1,0,0,0,0,.2,0,.2-.2,1.7-1,1.9-1,.4,0-.3.5-.4.5,0,0-.2,0-.2.1-.2.2-1.5.8-2,1.2-.1.1-.5.2-.7.3-.3,0-.5.1-.5.2,0,.2-1,.4-1.1.5-.6.5-2.8.8-3.3.4-.2-.2-.8-.4-.9-.8,0-.3-.5-.3-.6-.5,0,0,0,0,.1,0,0,0,.1,0,0,0,0,0-.2-.2-.4-.3-.5-.2,0-.5.3-.5.5,0,1.7-.7,2.1-1,0-.2.3-.1.4,0,.2.5,1.3-.5,1.7-.5.5,0,1.2-.7,1.5-.8,0,0,.2,0,.2-.2,0,0,.1-.2.2-.2.5-.2,1.2-1,2-1.1.5,0,.5-.5,1.1-.8.5-.3.8-.8.6-.9,0,0-.1-.1-.1-.2,0-.2-.5-.5-.8-.4-.3,0-.5,0-.5-.4,0-.2-.5,0-.6-.2-.1-.1-.6-.1-.9,0-.4.2-.5,0-.3-.2.2-.2-.2-.4-.6-.3-.1,0-1.7.4-1.5,0,0-.1,0-.2-.3-.2-.6,0-2.1.2-2.2.3-.3.2-.7.2-.7,0,0-.3-.9.5-1.1.2-.2-.3-1.6.6-1.8.8-.3.3-1.9.5-1.9.9,0,.1-.4,0-.4.2,0,.1,0,.1-.1,0-.2-.3-.6,0-.9-.1-.7,0-.2-.6-.6-.6-.1,0-.2.1-.2.2,0,0,0,.1,0,.1-.2,0-1.1.3-1.3.2-.8-.3-3.1-.7-3.6-1.2-.1,0-.6-.2-1-.2-.8,0-1.1-.3-1.8-.3-.4,0-.5-.4-.8-.5,0,0-.2,0-.2,0-.3-.3-.7-.7-1.4-.5-.5.1-.7,0-1.2,0-.7-.2-.7-.2-.3-.3.4-.2,1,0,.6-.6-.4-.5-1.9.6-2.3.9-.8.6-.8.4-1.7,1.1-1.3,1.1-3.1,1.7-2.5.9.2,0,1-.7,1.2-.8.3,0,.3-1.2-.2-.6-.1.2-.8.5-1,.6-.1.2-.7.5-.9.5-.4.1-1.1,1.1-1.3.4,0-.3-.4-.4-.8-.1-.2.1-.3,0-.5-.1-.2-.2-.2-.3-.6-.1-.3.1-.5.1-1,0-.5-.2-1-.5-1.4-.7-.2-.1-.6-.5-1-.5-1.2,0-1.3-.9-2.1-1.4-.7-.3,0-.6-1.1-.5-.7,0-1.2-.3-1.7-.4-.3,0-1.4-1.2-.9-1.6.2-.2.1-.3-.4-.3-.5,0-.7-.4-1.1-.4-.3,0-.9-.4-1.4-.8-.3-.3-.4-.3-1-.2-.8,0-1.1.8-1.7.6,0,0,.3-.8.4-.8.4-.4-.2-.5-.6,0-.1.3-2.1.8-1.5.2.3-.4.1-.7.6-1,.3-.2.6-.6.3-.7-.3.1-1.4.6-1.7.9-.6.4-1.2.5-1.4.2-.2-.4-.8,0-1-.6-.2-.4-.2-.5.5-.8.5-.2.6-.5,1-.6.3,0,.3-.3,0-.6-.2-.3-.9-.3-1.1,0,0,.1-1.3.8-1.9.9-.2,0-.3,0-.3-.1,0-.3-.5-.8-1-1.1-.6-.2-.6-.8-.2-1,.1,0,.4-.2.6-.4.2-.2.4-.3.4-.3.2,0,.8-.6.9-.6.8-.4,1.8-1.7,2.7-2,.1,0,.3,0,.4-.2.3-.3,1.3-1.1,1.7-1.2.4,0,.7-.5,1-.5.1,0,.2-.1.2-.2,0-.2,1.3-1.1,1.6-1.1.4,0,.3-.4.5-.5.1,0,.9-.7,1-.7.2,0,.3-.4.9-.6.7-.3,1-.8,1.6-1,.2,0,.4-.2.4-.3,0-.3,1.3-.7,1.3-.9,0,0,.1-.2.2-.2.1,0,1.4-.9,1.5-.8,0,0,.2,0,.2-.2,0-.2,1-.6,1-.7.3-.2,3.4-2.2,3.7-2.4.6-.4.8-.2,1.2-.7.4-.5,1.6-1.2,2-1.2s.3,0,.3-.2c0-.3.3-.2.5-.5.4-.4,1.2-.8,1.9-1.2.3,0,1-.5,1-.8,0-.2,0-.2.4-.2.5.2.5-.5.9-.6.6-.4,1.9-1.7,2.7-1.7.3,0,0-.2.4-.1.2,0,.3,0,.3,0,0-.2.6-.7.8-.7.2,0,.6-.5.8-.5,0,0,.3-.1.5-.3.5-.4.6-.2,1.2-.6,1-.7,3.5-1.9,4.2-2.4.8-.5,2.9-1.2,4-2.1.3-.3,1.8-1.1,2-1.1s.2,0,.3-.2c.2-.2,1.5-.9,1.7-.9s.3-.1.4-.2c.3-.3,1.2-.4,1.5-.8.1-.1.3-.2.4-.2.1,0,.3-.1.4-.3.2-.2,1.5-.7,1.6-.6,0,0-.9.7-1.1.7s-.2,0-.2,0c-.3.4-1.2.4-1.3.8,0,.2-.2.3-.3.4-.3.1-.2.4,0,.3.2,0,.2,0,.2.1,0,.2-.4.3-.6,0-.1-.1-.1-.1-.1,0,0,.2-.4,0-.4.3,0,.2-.4.2-.5,0,0,0-.1,0-.2.2-.2.4-.8.9-1.2.9-.3,0-.6.4-.8.4,0,0-.3,0-.5.2-.5.2-.1.8-.6.9-.7.7-1.1,1.2-2.8,2.1-.3.1-.5.4-.6.5,0,.1-.1.2-.2.1-.2-.1-1,.6-1.2.5-.2,0-.1.3-.7.5-.9.4-1.3.6-1.5.9-.1.1-.4.3-.6.3-.6,0-2,1.2-1.8,1.4,0,0,.6-.2.6-.3s.1-.1.3-.1c.5,0,1.7-.6,1.8-.9.1-.3.5-.2.6-.4,1-.9,3-1.3,4.2-2.2.4-.3,1.2-.4,1.5-.8.3-.4,1.4-1,1.7-1s.2,0,.3-.2c.2-.2,1.2-.3,1.5-.8.3-.3.9-.2,1.4-.6.4-.3,1-.3,1-.5,0-.2.5,0,.5-.3,0-.3,1.2-.7,1.3-.8.1-.2.7-.1.8-.3.1-.2.9-.2,1-.4-.2,0,3-1.6,3.7-1.7.3,0,.6-.1.6-.3s1.9-1.1,2-1c0,.2-1.1.4-.2.7.3.1.9-.5,1.2-.5.5,0,.5-.3,1.3-.7.5-.2.9-.5.9-.5,0,0,.2-.1.3-.2.5,0,1-.3,1.4-.5.7-.3,1.2-.6,1.2-.7s.1,0,.2,0c.3,0,.8-.5,1.1-.5.3,0,.5-.4.8-.4.2,0,.3,0,.3-.1.9-.6,4.4-2.1,4.8-2.2.5,0,0-.7.4-.5.6.4,1.3-.6,1.8-.7,1.3-.4,4-1.9,5.1-2.3,0,.1,1.7-1,1.9-.9.2,0,1.9-.9,2.1-.9.6-.3,1.3-.8,2-1,0-.1.4-.2.4,0s-.2.3-.3.4c-.4.4-.4.8-.8,1.1-.2.1-.3.2-.2.3.2.3-1.5.9-1.8,1.1-.8.6-2.1.8-2.9,1.3-.3.3-.4.1-.9.4-.5.3-.7.1-1.1.4-.2.3-.6,0-.9.3-.5.5-2.1,1.4-2.6,1.4s-.3,0-.3.2c0,.1-.1.2-.2.1-.2-.1-.7.4-.8.4-.3,0-.6.1-.9.4-.7.7-1.4.8-1.8,1.1,0,0-.2.2-.3.2-.7.1-2.7,1.4-3.5,1.9-.7.3-3.2,1.4-4.4,2.1-1,.6-2.3,1-3.4,1.5-.5.3-.7.1-1.1.5-.2.1-.4.2-.4.2,0,0-.2,0-.3.2-.2.3-.7,0-1,.3-.5.4-1.2.4-1.9,1-.3.3-.6.1-.8.4-.2.2-.1.2.7,0,.4-.1.8-.3.8-.2.2,0,.2-.4.5-.3.9-.3,1.5-.5,3.2-1.4.3-.2,1.2-.4.4.2-.5.5-1.5.6-1.8,1,0,.1.2.1.7-.1.4-.3,1-.3,1.2-.6.2-.3,1-.5,1.3-.7.4-.2.5-.2.4.3,0,.3-.1.4-.3.4-.6,0-.5,1.2-1.2,1.3,0,0-1.2.4-.5.4,1.1-.4,2.5-1.7,3.9-1.9,0,0,.2-.1.2-.2-.1-.6-1.9,1-1.8,0-.2-.9.4-.6.8-.9,0-.2.5,0,.5-.2,0,0,.1-.2.3-.2.3,0,.6-.4.9-.4,0,0,.2,0,.2,0,.1-.2,1.4-.8,1.7-.8s.2,0,.2-.1c.1-.2,1.2-.5,1.4-.8.4-.3,1.2-.5,1.5-.8,0-.1,1-.2,1.1-.4.3-.3,1.8-.9,2.2-1,.4-.4,1.9-1,2.6-1.4.4-.2.8-.2.6,0,0,0-5.6,2.8-5.5,2.9,0,0-.1,0-.2,0-.2,0-.3.4-.5.3-.2-.1-.9.5-1.1.5-.2,0-1.7.7-1.7.8s-.2.1-.3.2c-.4,0-1.1.4-1.1.6s0,0-.2,0c-.2,0-1.4.6-1.4.7,0,.2-.8,0-.7.3,0,.2,0,.2.8-.2.9-.5.9-.2,1.6-.7.4-.3,2-1.1,1.9-.4,0,.2,0,.2.3,0,0,0,.1-.1.1,0,0,0,1-.6,1.1-.5.1,0,.5-.5.6-.4,0,0,.2,0,.4-.1.4-.2.4-.2.4,0s0,.2.1.2c.2,0,1.7-.6,2-.7,1-.6,1.6-.7,2.3-1,.3-.2,3.1-1.5,3.4-1.6.9-.5,1.9-.9,2.9-1.3.8-.4.9-.4.7-.2,0,0-.2.2-.3.2-.2,0-.6.5-.8.5-.6.2-1.8,1.2-2.4,1.2-.4.2-1.1.8-2.2,1.1-1.8.7-2.6,1.4-4,1.9-.7,0-.5.7,0,.2.2-.2.5-.1.5.1s0,.2.3,0c2.5-1.3,3.5-1.5,5.9-2.7,1-.5,1.8-.4,2.7-.9.4,0,3.5-1.5,4.3-1.7.3-.2,2.1-.9,2.4-1.2.4-.3.6-.2,1-.4.2-.1.4-.1.8,0,.5.1.6,0,.9-.1.2-.1.3-.3.4-.3.2,0,0-.2.8-.4.6-.1.7-.5,1.2-.6.1,0,.2,0,.2-.2,0-.3.6-.6,1.2-.6.4,0,1.7-.1,1.7-.6,0-.3.2-.5.8-.6.3,0,.5-.2.6-.2.3-.2.8-.3,1.2-.5.7-.3,3.5-1.5,4.2-1.7.6-.1,2.4-.8,3.1-1.1,0,0,.2-.1.3-.1.3,0,.5-.5.7-.6.4,0,1.3-.4,1.4-.6.2-.2.5-.1.7-.4,0-.1.2-.2.3-.2.3,0,.5-.6.8-.4.4.1.3-.3.6-.3.1,0,.2,0,.2,0,0-.2,2.5-.8,2.6-.7,0,.1-.5.2-.4.3-.3.3-1.1.3-1.5.5.3,0,1.3,0,.4.3-.3,0-.3,0-.1.2.1,0,.2.2.2.3,0,.2-1.5.9-1.9.9s-.4.1-.5.2c-.2.3-1.1.2-1.4.4-.1.1-.2.2-.3.2,0,0-2.4,1.1-3.1,1.3-1.3.4-4.3,2-5.3,2.2-.1,0-1.7.7-1.8.7,0,0-.2,0-.2.1-.3.3-2.3.9-2.3,1,0,.1-2.5,1.3-2.9,1.4-.6.2-.8.5-1.5.7-.9.2-.9.5-1.7.9-.5.2-.7.4-.7.6,0,.3-.2.4-.2.2,0-.7-1-.9-1.1-.3,0,.2,0,.2.1,0,.2-.2.4-.2.2,0-.1.2-.4.1-.5.3,0,0-.1.2-.3.2-.3,0-1,.7-1.2.7-.2,0-.7.2-.8.4,0,0-.2.1-.3.1-.5,0-1.1,1-1.5.7-.2-.2-.5.6-.8.5-.2,0-.3,0-.3.1,0,.2-1.1.4-1.2.6,0,.1-.2.2-.3.2-.2,0-2.2,1-2.4,1-.4,0-.8.7-1.2.6-.5,0-.7.5-1.3.6-.5,0-.8.6-1.2.6-.3-.2-1.1.6-1.4.8,0,0-.4.2-.8.4-.5.3-1.2.3-1.3.5-.4.4-3.1,1.6-3.7,1.8-.1,0-1.2.7-1.4.7-.3,0-.9.5-1.2.6-.4,0-.4.7-.9.6-.5-.1-1.1.4-1.6.6-.2,0-.3.1-.4.2-.1.2-.5,0-.5.3,0,.4,0,.4-.2.2-.2-.2-.2-.2-.5,0-.2.1-.4.3-.4.4,0,.3-.3.5-.3.2s0-.2-.2-.2-.2,0-.2.1c-.2.5-1.1.4-1.5.8-.5.4-1.3.3-1.7.8-.2.3-.5.2-.7.4-.2.2-1.2.4-1.4.6-.1.1-.8.3-.8.5,0,0-.2.1-.5.1-.6,0-.5-.1.3-.5.7-.3,1.5-.9,2.3-1.2.2,0,.9-.6,1.1-.6.1,0,.2,0,.3-.1,0-.1,1.5-.8,1.7-.8.6-.4,2.4-1.3,3.1-1.7.8-.3,1.7-1,2.4-1.2.1,0,.4-.1.6-.3.4-.3,1.4-.6,1.8-.9.1-.2,1-.3,1.1-.5,0-.5-1.9.7-2.4.8-.6.2-.5.4-.7.4-.2,0-1,.3-1.3.6-1.1.7-3.4,1.6-4.5,2.2,0,0-.2,0-.3,0-.2,0-.3,0-.4.2-.1.3-1.3.9-1.7.9-.7.4-3.4,2-4.2,2.2-.1,0-.3,0-.3,0,0,.1-1.1.6-1.2.6-.3,0-2,1.4-2.4,1.4-.2,0-.5.2-.6.3-.5.8,1.1-.2.2.7-.5.5-1.4.3-.9,0,0,0,.2,0,.2-.2,0-.2,0-.2-.3,0-.2.3-.5.1-.7.4-.2.2-.2.2,0,.3.3.1.3.3,0,.4-.2,0-.3.2-.3.3,0,.2-.6.6-.9.6s-.2,0-.2.1c0,.2-1.2.4-1.2.6,0,.2-1.1.5-1.1.7,0,.1-.4,0-.4.2-.6.5-2.1,1.1-2.6,1.7-.2.2-.5.4-.6.4-.9.2-1.9,1.4-2.8,1.7-.8.4-.6.5-1.2.9-.2.2-.3.2-.2.2s.2,0,.3-.1c.4-.3,1.1-.5,1.6-.9.6-.4,1.3-.7,1.7-1.1,0,0,.2-.2.3-.2.2,0,1.7-1,1.7-1.1.1-.1.6,0,.7-.3.2-.3,2.1-1.2,2.4-1.4.7-.3,2.2-1.3,2.8-1.6.2,0,.2-.4.4-.3.2,0,1-.4,1.1-.6,0-.1.2-.2.3-.2.3,0,2.4-1.2,2.7-1.1.3,0,.4-.4.6-.4.4-.2,1.3-.9,1.9-.9-.2.2-1.1.9-.4.7.4,0,.5,0,.2.3-.2.2-.3.2-.5,0-.2,0-.3,0-.2,0,0,.2-.5.4-.4.6,0,.1,0,.2-.2.2-.4,0-.8.5-1.4.5-.5,0-.6.1-.8.5-.3.9-1-.1-1.5.7-.2.4-.7.5-.9.7,0,.1-1.2.6-1.2.7,0,0-.2.1-.4.2-.5.2-.7,1-1.2,1-.5.1-.9.7-1.5.8-.2,0-.2.3,0,.3.4,0,1-.3,1-.4s0-.2.2-.2.3,0,.5-.2c.2-.2,1.5-.3,1.6-.7,0-.3,1.4-1,1.6-1.2.1-.1.2-.2.3-.2.5-.3,1.3-.6,1.9-.9.3-.2.9-.4,1-.7,0,0,.1-.2.2-.2.3,0,.8-.3.8-.4.2-.3.6-.3,1.2-.7.4-.2.8-.4.9-.4.2,0,1.3-.8,1.6-.7.2,0,.4,0,.6-.2.5-.4,1.8-.6,2-1.2,0-.3.4-.2.7-.6.4-.4.9-.3,1.2-.6.2-.2,1.5-.9,1.7-.9s.2,0,.3-.2c.2-.3,1.4-.8,1.7-1,0,0,1.1-.5,2.2-1.1,1.1-.5,2-1,2.1-1.1,0,0,0-.2,0-.3,0-.1-.1-.2-.2,0,0,0-.5.3-.9.5-1.9.9-1.4.9-2.5,1.2-.4,0-1.1.6-1.4.7-.1,0-.2,0-.3.1-.2.2-1.7.9-1.9,1.1-.3.4-.4,0-.5-.2.3-.6,2-1.2,2.7-1.4.4-.3,2.8-1.3,3.3-1.6,0-.2.8-.1.8-.3.1-.3,1-.5,1.2-.7.4-.3,1.5-.5,1.9-.8.2-.1.5-.2.6-.2.2.1.4-.4.6-.3,0,.2,1.5-.9,1.5-.8.1,0,1-.6,1.1-.6.2,0,1.1-.4,1.3-.4.2,0,1-.7,1.1-.6,0,0,.2,0,.3-.2.2-.3.8-.2,1-.4.9-.7,3.1-1,4.5-1.7.2,0,1.1-1,1.6-1.3.3,0,1.9-.9,2.2-1.2.3-.3.4-.3.6-.3.2,0,.3,0,.3-.1,0-.1.2-.3.7-.5.6-.2,1-.7,1.3-.8.7-.2,2.2-1,2.9-1.4.8-.5,1.3-.5,2.2-1,.6-.3.9-.4.9-.3.1.2.1.3,0,.3,0,0-.5.3-.4.3,0,0,1.3-.4,1.2-.6,0,0,0,0,.1,0,.2,0,1.5-.4,1.5-.6.7-.5,2.2-.8,2.9-1.3.3-.2.6,0,.8-.4.1-.1.3-.2.3-.2.2,0,.3-.5.6-.5.3,0,2.7-1.3,3-1.2.4,0,.8-.6,1.2-.5-.2.6-.9.5-.1,1.5.8-.2,3.3-1.4,4.3-1.8.3-.1,1.5-.2,1.9-.3.3,0,.3,0,.3.1,0,.1,0,.2.2.3.4.1,0,.4-.6.4s-.5,0-.5.1c0,.2-1.5.8-1.6.9-.4.4-.2,1.1.2.8.3-.2.1.2-.1.3-.6.4-.1.3.8-.1,2.3-1.2,2.8-1.3,2.6-.9,0,.1-.2.2-.3.2-.4,0-2,1.1-1.7,1.2.3,0-1,.7-1.5.8-.3,0-.5,0-.6,0-.2,0-.1.3-.4.4-.8.4.1.5.4.2,0-.2.4-.1.6-.1-.2.2-.6.5-.7.5-.6.2-2.6,1.2-2.6,1-.3-.1-.9.2-.9.4,0,.1,0,.2-.4.2-.6,0-.5.4-.9.5,0,0-.2,0-.2.1,0,.2-.4,0-.4.3-.3.6-.8.5-1.1.9-.2.3-.4,1.3-.2,1.2,0,0,.1-.1.1-.2,0-.2,1-.6,1.3-.5.2,0,.8-.5.8-.7,0-.2,1.6-.7,1.4-1,0-.6.5.2.7-.1.3-.7,1.5-.6,2-1.1.3-.3.8-.4.8-.1,0,.3-.5.2-.6.7-.4.9-1,1.3-1.9,1.7-.9.3-.4.6,0,.3.2-.2.3-.2.5,0,.2.2.2.2.3,0,0-.3.4-.2.4-.4,0-.1.3-.3,2.3-1.2,1.1-.5,1.4-.6,1.4-.4s-.3.4-.5.4-.3,0-.4.2c0,.1-.2.2-.2.1,0,0-.7.3-.7.4s0,0-.1,0c-.1,0-.7.3-.7.4s.6.1.6,0c0,0,0,0,0,.1,0,.4-.1.4-.3.2-.2-.1-.2-.1-.3,0-.2.2-.6.1-.9.4-.2.2-1.3.5-1.4.7,0,0-.1.1-.3.1-.3,0-.5.1-.6.2-.3,0-1,.3-1,.4s0,0-.2,0c0,0-.2,0-.3.1-.2.2-.4,0-.7.2-.3.2-2.6,1-2.4,1.2,0,0,1.4-.6,1.5-.5,0,0,.1,0,.2,0,0,0,.4-.1.7-.1.6,0,1.5-.4,1.4-.6-.1-.2,0-.4.3-.2.2.2.8,0,.7-.3,0,0,0-.2.1-.2.4-.1-.2.2,0,.4.2.2,0,.3-.5.5-.4.1-.9.6-.7.9.1.3.1,1.1,0,1-.2-.1-1,.7-.9.9.2.2,1-.4,1.3-.5.4-.2.5-.1,1.1-.4.7-.4.7-.2,1.3-.6.9-.7,1.3-.5,2.2-1,.6-.4,1.4-.5,2-.9.4-.3,1.3-.4,1.6-.7.2-.3,0,0,.3-.1.6-.3,2.2-.9,2.8-1.1,1.9-.9,2.8-1.2,5.8-2.4.7-.3,1-.2,1.3-.4,0-.1.9-.2.7.1,0,.2.2.3.4.1.2-.2,2.3-1,2.5-1,.2,0,.8,0,.4.4-.3.3.1.2-.3.5-.3.2-.3.2-.1.4.2.2.2.2.3,0,.2-.3.7.1.7-.3,0-.2.2-.3.8-.4.5,0,1.8-.6,1.1,0-.1,0-.2.2-.1.2.1.1.8-.3.9-.3,1.4-.5,2.2-.8,4.2-1.6,2-.8,4.2-1.6,6.1-2.3.3,0,1.6-.8,1.9-.8,0,0,.2,0,.3-.2.2-.2,1.3-.8,1.5-.8s-.4.7-.8.9c-.2,0-.5.3-.6.4-.1.1-.3.3-.5.3-.4.2.1.3.5.1,1.7-.5,1.5,0,.2.9-.3.2-.5.4-.5.4,0,.1-.9.6-1.1.7.5,0,2-.2,1.8-.4,0-.2.4,0,.5-.2.3,0,.3.3,0,.6-.3.2-.1.3.3,0,.2-.1.4-.1.4,0,0,.2-.4,0-.4.5,0,.3-.5.8-.6,1,.4,0,1.5-.3.5.5-.4.3-.4.7,0,.4.2-.2.3-.1.6-.4.2-.3.4-.2.4,0-.1.2.3.6.2.8-.2,0,0,.5-.3.5-.2,0-.3.4,0,.3.3,0,0,.5-.3.7-.3.2-1.4,1.3-1.7,1.4-.2,0-.6.4-.5.5.1.3,1.4-.8,1.7-.9,0,0,.4-.1.7-.3.7-.4.7-.2,0,.5-.6.6-.8.8-1,.8-.2,0-2.1,1.3-2.3,1.5-.3,0,.1.5.3.1.4-.4,2-.9,2.2-1.1.2-.1.8-.4,1-.6.2-.2.4-.3.4-.1-.1.5-.4.4-.6.7-.2.2-1.7.9-1.8,1.2,0,.1-.3.3-.4.3-.6.1-.6.2-.6.5s0,.3,0,.2c0,0-1.5.5-1.2.7.3,0-.3.6-.4.6,0,0-.3,0-1.2.4-.3.1-.5.2-.5.2,0,0-.3.2-.5.1-.2,0,0,.2-.3.2,0,0-.2,0-.2.1,0,.3,1,0,2.4-.7.3-.2.7,0,.9-.4,0-.3,1.3-.2,1.4-.4,0-.1,1.5-.8,1.7-.8.1,0,.1.4.2.5.2,0,.9-.5,1-.4.1.1-.3.4-1.1.8-1,.5-1.5.9-1.6,1.2,0,.1-.1.2-.2.2-.2,0-.9.2-.9.4-.1.3-.8,0-1,.5-.2.2-.3.3-.4.2-.1-.2-.7,0-.9.2-.1.1-.3.2-.4.2-.3,0-.4.5-.8.5-.3,0-1.3.8-1.6.8-.3.1-.9.6-1.3.8-.5.2-.8.7-.4.5.3-.1.6-.2.8-.2.3-.1,1-.5,1.4-.4.6,0,1.1-.6,1.6-.6.3,0,1.7-.7,2-.7.4-.2.5-1,1.1-.8.1,0,0,0-.1.2-1,.6.6.1,1.2-.3.1-.1,1-.5,1.1-.7,0,0,0-.1.2-.1.1,0,2.2-1.3,2.3-1.2,0,0-.3.6-.4.6-.5.3-1.9,1.2-2.5,1.5-.1.1-2.2,1.1-2.2,1.3,0,.2.4.5.6.3.1-.1,1.3-.4,1.7-.4,1.1-.1,2.3-.8,3.4-1.1,1.5-.4,2.7-1.5,3.5-1.8.8-.3,1-.8,2.2-1.3.5-.2.7-.6,1.2-.7.1,0,.2,0,.2-.1.2-.3,1.2-.7,1.6-1.1.4-.4.5-.3.8-.6.1-.2.5-.1.6-.3,0,0,.1-.1.2-.1s.3,0,.3-.1c.2-.2,1.2-.6,1.4-.8.2-.2,1.1-.4,1.2-.6,0-.1,2.2-1.3,2.3-1.3,2.2-1.3,7.1-4.1,9.9-5,0,0,0,.1-.1.2-.6.5-1.3,1-1.9,1.3-1.1.7-3.3,1.7-4.4,2.4-.6.5-1.9,1-2.5,1.4,0,0-.1.1-.3.1-.3,0-1.5.6-1.7.6-.4.2-.6.5-1.3.8-.8.4-1.9,1.2-2.3,1.2,0,0-.2,0-.2.1,0,.1-.3.3-1.7,1.1-.4.2-1,.5-1.2.7-.6.4-.5.2-1.1.6-.6.4-.7.2-1.2.7-.5.5-1.4.8-2,1.4-.3.3-.9.5-1,.9,0,0-.1.2-.3.2-.5,0-2,1.1-1.9,1.1,0,.1.6.1.7,0,0,0,.2-.2.5-.3.4,0,1.1-.8,1.7-.8.1,0,.2,0,.3,0,.2-.2.5,0,.8-.4.5-.5.7,0,1.4-.5.9-.4,1.9-1.1,2.7-1.4.9-.3,1-.7,2.1-1.2,3.7-1.8,2.8-1.3,5-2.3.9-.3,1.1-.7,1.6-.8.1,0,.3,0,.3-.2,0-.2.7-.3.7-.5,0,0,0-.1.1-.1.1,0,1.8-1,1.9-1,.2,0,1-.4,1-.5.2-.2,1-.4,1.3-.6.3-.3,1.1-.5,1.3-.8.2-.2,2.1-1,2.2-1.2.9-.6,2.2-1.3,3-1.7,0,0,.1,0,.1,0,0-.1.8-.5,1-.5.2,0,2-1,1.8-.6-.9,1.1-3.3,1.7-4.7,2.7-.4.2-1.5.9-2.5,1.4-.5.3-.6.4-.5.4.2,0,.8-.2,3.7-1.8.5-.3,1-.5,1-.4,0,0,.2,0,.3-.2.2-.3.6-.3.7-.1.1.2.9,0,1.1-.2.2-.3.7,0,.9-.2,0,0,.2,0,.3,0,.3.2-.6.8-.7,1.1-.3.4-.6.6-1.3.9-.3.1-.7.7-1.1.8-.3,0-.5.2-.3.2s.1,0,.1.2c0,.2.3.2.4,0,.3-.3,2.4-.9,2.8-1.1.4-.1,1.8-.3,1.8-.6,0,0,0,0,.2,0,.1.1.3.1.5,0,.1,0,1.9-.4,1.7-.2-1,.5-2.6.9-3.6,1.3-1.2.5-2.7,1.2-2.8,1.3-.5.5,2.2-.7,2.3-.6.7-.1,2.3-.8,2.5-.7.5,0,.2-.5.9-.3.3.1,1.2,0,1.3.2,0,.2-.3.2-1.6.5-.2,0-.4.1-.5.2-.3.1-1.4.3-.5.5,0,0,0,0,0,.2,0,0-.2.2-.2.1-.2-.1-1.1.5-.5.4.4-.1,1.5-.1,1.9-.3.6-.2.8,0,.7.4,0,.3,0,.5.3.7.5.3.2,1.1.5,1.6.6.7-1.7,1.1-1.3,1.5.6,0,1.4-.6,1.6.4.2.6,0,.5,0,1,0,.3,0,.4-.3.5-.5.2-.9.7-1.5.9-.3,0-.5.2-.5.3s0,.2.2.1c.5-.2.9-.3.9-.2,0,.1-.6.6-1.3.9-.7.3-.6.6.4.1,1-.4,1.9-.7,2.1-.6,0,0,0,.3-.2.5-.3.3-.2,1.1,0,1.3.6-.3,3.4-1.9,3.6-1.6,0,.2-2,1.2-2.4,1.2s-.6.3-.4.6c.3.2-.5.6-.5.8.3,0,1.8-.8,2.1-1,.2,0,.8-.3,2.8-1.2.7-.3,1.3-.6,1.5-.6.3,0,.3-.4.6-.4.1,0,.3,0,.3-.1.1-.2,2.1-.9,2.2-1,2.2-1.1,4.8-2,7-3,.4-.3,2.5-.8,2.3-1.2,0-.3-.1-.3-.5-.1-.5.3-1.6.7-1.8.7-.5,0,.1-.4,1-.7.2,0,.4-.2.5-.2.2-.2,1.1-.4,1.1-.2s0,.2-.1.2c-.2.1.5,0,.4,0,.8-.4,1.1-.4,2.4-1,2.3-1,2.2-.4.2.3l.3.2c.3.3.7-.2,1,0,.2,0-.6.5-1.1.6-.5.1-.3.4.2.3.2,0,.5-.1.6-.2.4-.2-.5.7,0,.8.3.2.8-.7.7.2,0,.2,0,.3,0,.4.5.3-1.5,1.8-3.4,2.6-.3.1-.3.2-.1.2.2,0,.1.1-.2.3-.2.1-.4.1-.5,0,0-.1-.6,0-.6.2s0,.1.2.1c.4,0,0,.5-.5.7-.1,0-.3.1-.3.2-.1.2-2.4,1.2-2.6,1.3-.3.2-.5,0-.6.2-.2.3-.5.1-.9.6-.3.4-.9.6-1.1.8,0,.1.2,0,1.1-.4,2.7-1.3,1.9-.8,2.9-1.3,2.5-1.1,1.9-.5,5.8-2.5.8-.4,1.5-.9,1.2,0-.2.4-1.7,1-2.1,1.4,0,0,0,0,.3,0,.2-.2,1.1,0,1.3-.1,0,0,.2-.1.3-.1.2,0,.2,0,.2.4,0,.5-.4.8-2.6,1.9-.7.4-1.2.3-1.6,1-.2.4-.1.5.2.3.2-.1,1.1,0,1.3,0,.2,0,.9-.3,1.3-.5.3-.2.6-.2.5,0-.1.2-1.9,1-2.1,1-.3,0-.2.2-.3.2-.2,0-1.6.6-1.6.7,0,.2.4.1.6,0,0,0,.2-.2.3-.2.3,0,1.5-.7,1.8-.7.1,0,.4-.1.5-.2.3-.3,1.5-.7,1.9-.9.6-.2,1,0,.9.4-.2.6-.7.8-1.2,1.2-.9.8,0,.1.3.3,0,0,.2,0,.2,0,.1-.2.4-.1.4.2s0,.3.1.3c.4.4-1.9,1.3-2,1.5,0,0-1,.3-1,.5,0,.1-1.5.7-1.5.8,0,.4,1-.3,1.3-.4.6-.3,2.9-1.5,3.1-1.6,1-.5-.4.8-1.3,1.2-.4.2-.8.5-.9.6-.3.4,1.1,0,1.1-.2.2-.3,1.3-.4,1.6-.6.4-.2.6-.2.6,0s0,.3,1.2-.1c.6-.2,1-.2,1.4-.5,2.2-.8,3.8-1.6,6.3-2.3,1.5-.4,3-1,4.4-1.4.5,0,.8-.4,1.5-.5.6,0,1.8-.8,2.2-.8.2,0,1.1-.5,1-.1,0,.3-1.1.8-1.5.9-.2.1-1.1.2-1.3.4-.7.4-1.6.6-2.4,1-.3.1-.1.3.2.2.2,0,.3,0,.2,0-.1.2-.5,0-.6.3-.2.2-1.3.2-1.6.2-.2,0-.4.3-.2.2,0,0,.1,0,.2,0,0,.1-.8.5-1.4.6-.3,0-.4,0-.5-.2-.3-.6-.7-.3-1.1-.2-.1,0-.4.1-.7.2-.8.4-1,.3-1.9.9-.1,0-.3.2-.5.2-.3,0-.7.4-1.1.4-1,.2-2,.8-3.2,1.2-.9.3-1.5.7-1.4,1,0,.2.4.2.7,0,.1-.3,1.9-.7,2.1-.8.5-.3,1.3-.4,2-.7.4-.2.4-.2.4,0s-1.1.6-1.8.8c-.4,0-.5.4-.9.4-.4,0-.8.5-1.1.6-.2,0-1.2.7-.6.7.8,0,1.7-.5,2.5-.8.9-.3,1.6-1.2,2.7-1.3.6,0,.9-.5,1.4-.5.5,0,1.1-.6,1.8-.6.4,0,.5-.5,1-.3.3,0,.4,0,.5-.1.5-.6,1.1-.4,2-1,2.3-1,4.2-1.4,6.6-2.3,2.1-.6,3.3-1.4,2.9-.5-.1.3-.4.4-1.3.8-.2,0-.3.2-.3.2,0,.1-.4.5-.5.6.2,0,1.2-.3,1.1,0,0,.3-.7.5-.9.7-1.1.6-2.5,1.1-3.8,1.6-1.4.4-2.6,1.1-3.7,1.4-1,.2-4,1.5-5.1,1.7-.7.4-1.6.5-3.5,1.3-1.5.6-2.7,1.1-2.8,1.1-.2,0-.4.4-.3.5,0,0,.8-.2,2.1-.7,2.5-1,2.8-1.1,3.1-1.3.3-.2.6,0,.9-.3.2-.2,2-.7,2.2-.9.7-.2,1.2-.2,2.4-.7,2.4-.9,3.1-1.1,3.4-1,.2,0,.4,0,.5-.2,1.5-1,4.1-1.4,6-2.3,0,.1-.3.7,0,.6.3-.1.5.5.1.4-.2,0-1.7.8-1.9,1-.2.2,0,.4.2.2.3-.2,1.7-.8,1.8-.8.1.1-.4.6-1.2.9-.4.2-.8.4-.9.5.2,0-3,1.2-3.6,1.7-.5.5-2,.9-2.6,1.2-2.5.9-3.9,1.8-7.1,2.9-1.9.7-3.4,1.3-4.7,1.8-.2,0-.8.3-.8.4.9,0,1.4-.5,3.1-.9.9-.2,1.6-.8,2.3-.9.3,0,1.8-.8,2.1-.7.2,0,.4,0,.4-.2.3-.3.7-.1,1.1-.4.4-.3,1.1-.2,1.4-.4.2-.2.5,0,.7-.4.3-.3.6-.2.9-.4.2-.2,1.1-.3,1.2-.5.2-.3.4-.4,1.2-.4.9,0,1-.5,1.6-.7.4-.1,1.7-.7,3.5-1.5.8-.4,1.5-.7,1.5-.7.1.1-.1.5-.5.6-.5.3-.3.5-1,.8-.6.3-.6.4-.4.4.3,0,.4.3,0,.3s-.4.2-.6.4c-.5.5-.9.4-1.5.8-.4.2-.4.3-.2.3.3,0,1-.5,1.3-.5.7,0-.3.6-2.4,1.4-4.5,1.7-3.3,1.3-4.6,2.2-.4.2-.6.4-.3.4.7-.3,3.2-1.1,3.3-.8-.4.4-1.7.7-2.5,1-.6.3-1.1.2-1.4.7-1.5,1.4-6.8,3.2-9.3,4.3-1.2.6-2.9,1-3.9,1.7-.1.2-.1.2,0,0,1.7-.7,2.1-.7,2.9-.9,0,0,2-.9,2.7-1.2.2-.2.6,0,.7-.3,0,0,.2-.2.3-.2.3,0,.5-.4.8-.4.7,0,.9-.5,1.4-.6.3,0,.3-.3.5-.2.1,0,.2,0,.3,0,.1-.2,1-.2,1.1-.3.2-.2.5,0,.7-.3.1-.2.6-.4.8-.4,1-.3,2.4-1,3.3-1.4,1.3-.4,4.4-2,5.4-2.1,0,.1,2.8-1.7,2.8-1.3.1.8-2.5,1.7-3.4,2.4.1.1,2.2-.7,2.8-1.2.2-.2.5-.3.5-.2.3.4-4.1,2.2-4.5,2.2-1.1.3-1.1.5-2.1.8-.6.2-1.1.6-.9.6s1.1-.3,1.2-.4c0,0,.2,0,.3,0,.2.2.5.2.8,0,0-.2,1.9-.4,2.6-.7.6-.2.8-.1,1.6-.5.8-.4,1.2-.5,1.2-.2.1,0-1.1.5-1.5,1-.1.1-.3.2-.5.2-.5.2-4.2,2.3-4.8,2.3,0,0-.7.4-.8.4,0,0,0,0-.2,0-3,1.3-5.9,2.3-9,3.5-5.2,2.2-9.9,4.1-15.5,6.5,0,0-.1,0-.1.1,0,.2-.5.2-.8.4-.8.4-2,.7-3.2,1.5-3.5,1.4-7.1,3.1-10.5,4.8-1.8.9-9.9,5.1-9.9,5-.2,0-1.4.8-1.7,1.2-.3.3-.5.4-.6.3-.2,0-1,.2-1.3.5-.3.2-3,1.6-3.1,1.6-.2,0-.9.3-.9.4,0,.2-.9.7-1.4.7-.2,0-.5.2-.7.4-.6.6-3.3,2.1-4,2.2-.4,0-.8.5-1.1.6,0,0-.2,0-.2.1,0,.1-.7.4-.8.3,0-.2.5-.5.5-.7,0-.3.2-.4.4-.2.1.1.2,0,.5,0,1.5-1,2.9-1.8,3.1-1.8.4-.2,1.8-1.1,1.9-1.4.1-.4.8-.2,1.2-.4.9-.4,2.4-1.3,2.7-1.7.4-.5.5.1.9-.1.7-.5-.5-.1-.6-.3-.1-.5,2-.2,2.2-.6,1.2-.7,3.1-1.7,4.3-2.4.1,0,1.5-.7,1.6-.8.2-.2.6,0,.7-.3.2-.2,1.2-.6,1.5-.7.1,0,.3-.2.3-.2.6,0,1.4-.9,2-1,.4,0,.6-.5.9-.5.3,0,1.9-.9,1.9-1.1-.2-.4-1.6.4-2.2.7-1.3.7-2.1,1.1-3.4,1.9-.5.4-.8.2-1.1.5-.3.3-.4.1-.7.4-.2.1-.4.2-.5.2-.1,0-1.6.6-3.7,1.8-.6.3-1.2.6-1.3.6,0,0-.2,0-.2.2,0,.2-.5.1-.6.4-.1.3-.5.1-.7.4-.2.2-.5.2-.7,0-.2-.1-.8-.2-.7.2,0,.4-.2.9-.4.9s-.2,0-.2.1c.2.5-2.4.2-2.6.4-.1.2-.7.2-.7.4,0,0,0,.1,0,.1-.3.1-1.1,1-1.5,1.1-.5.1-.3.4-.8.3-.4-.2-.8.3-1,.4,0,0-.2,0-.3.2-.1.1-.3.2-.5.2-.3,0-.3.2,0,.3.1,0,.3,0,.3,0,.2,0-.3.5-.5.5-.2,0-.2.4-.5.4-.7.2-2.4,1.5-2.7,1.4-.4,0-.9.7-1.2.8,0,0-.3.1-.6.3-.6.4-1.3.6-1.8.5-.4,0-.5,0-.8.2-.2.2-.4.3-.5.3-.3,0-.5.3-.8.5-.1,0-.3.2-.3.2,0,.3-.2.5-1,.6-2.2,1.2-4.2,2.6-6.6,3.9ZM248.6,38.9c0,0,.1,0,.1-.1,0-.3-.3,0-.1.1ZM244.2,40.5c0-.2,0-.2-.5-.1-1.7.2.5.6.5.1ZM246.9,26.7c0,.1.2.1.4,0,.4-.3-.5-.2-.4,0ZM234.2,32.2c.3,0,.4,0,.4-.2,0-.5-1.2.2-.4.2ZM229.9,29.9c.3-.2-.7.1-.7.2-.1.1.4,0,.7-.2ZM225.7,27.4c.1,0,.7-.4.6-.5-.1,0-.5.4-.6.5ZM226.4,48.5c.5-.2.5,0,1.3-.5.3-.2,1.2-.3,1.3-.6.1-.6-.9.3-1,.2-.2,0-1.1.7-1.3.6-.7,0-1.6,1.1-.2.3ZM224.5,27.8c.2,0,.2,0,.2,0-.1,0-.6,0-.2,0ZM223.2,28.3c0,.2.1.1.6-.1.9-.5-.5,0-.6.1ZM229.9,18.5c0,0,0,0,0-.2-.1-.5-.3.1,0,.2ZM220.4,50.8c0,.2.5.2.6,0,0-.2-.6-.2-.6,0ZM215,35.7c0-.2-.3-.3-.5-.2-.3.3.4.5.5.2ZM214.7,52.8c-.3.3.3.4.4.1,0-.2-.2-.2-.4-.1ZM213.8,53.9c.2.2.5,0,1.2-.3.8-.4,1-.8.4-.6-.5.1-.8.7-1.4.6-.3,0-.4.1-.2.3ZM212.6,26.6c0,0,.1,0,.1-.1,0-.3-.3,0-.1.1ZM211.8,54.9c0-.4-.6.2-.2.2.1,0,.2,0,.2-.2ZM212,29.8c-.3,0-1.3.8-1.5.8,0,0-.2,0-.4.2-.2.2-.2.2,0,.1.2,0,.7-.3,1.2-.6.5-.4,1.3-.6.6-.6ZM209.6,30.7c1-.4,1.2-.6,1.8-.8.3-.2.2-1.1-.2-.3,0,.3-2.1,1.1-2.2,1.3,0,.2,0,.2.7-.2ZM206.4,20.3c.1.2.2.2.1,0,0-.2-.2-.1-.1,0ZM204.2,20.8c-.1.2.3,0,.3-.1,0-.1,0-.2,0,0,0,0-.1.2-.2.2ZM200,11.7c0,.1.2.1.5,0,0,0,.9-.3.8-.5-.2,0-1.2.3-1.2.5ZM200.2,18.8c0,.2.1.1.2,0,0-.2-.2-.1-.2,0ZM197.1,16.8c.1,0,.3,0,.3-.1,0,0,2.3-.8,2.4-.8.7,0,2.2-1.2,0-.4-.7.4-3.8,1-2.7,1.2ZM191,44.9c0,.1.3.1.4,0,0-.1,1.3-.6.8-.7-.2,0-1.2.6-1.2.7ZM159.8,11.5c0,0,.1,0,.1-.1,0-.3-.3,0-.1.1ZM71.9,34.6c0-.1,0-.2-.1-.1-.3.2,0,.5.1.1ZM133,4.7h0c0,0,0-.1-.2-.1,0,0-.2,0-.3,0-.6.1.5.3.4,0ZM108.1,15.3c0-.1,0-.1-.4,0-.7.5.3.2.4,0ZM80.6,24.4c0,0,1.2-.4.7-.5-.2-.2-1.7.9-.7.5ZM77.9,26.3c0-.3,1.5-.6,1.1-1,0-.1-.1-.1-.3,0-.3.4-1.2.1-1.1.8,0,.5.3.4.4.2ZM36.2,61.8c0-.3-.4,0-.4,0,0,.3.4,0,.4,0ZM54.7,43.5c-.6.1-1.6,1.5-.2.6.4-.3.5-.6.2-.6ZM55.7,43.2c0-.6-.6.2-.2.2.1,0,.2-.1.2-.2ZM74.2,70.4s-.3,0-.5.2c-.4.3-.6.1-.8.4,0,0-.1.2-.2.2-.3,0-.9.4-1,.6-.2.3,0,.3.5,0,.4-.4,1.3-.4,1.4-.7,0-.2.5-.1.6-.3,0,0,0,0,.1,0,.1,0,.2-.2,0-.3ZM80.3,66.9c-.5.1-1.1.2-1.9.7-.8.5-1.3.7-1.8,1.1-.3,0-1.8,1.3-1.8,1.6,0,.1,0,.1,0,0,0,0,.3-.2.4-.2.2,0,.4-.1.4-.2.5-.4,2-1.1,2.7-1.5.4-.3,1.5-.8,1.8-1,.1-.2.1-.4,0-.4ZM81.7,67.3c0-.3-.6,0-.2.1.1,0,.2,0,.2-.1ZM127.8,33.5c-.2,0-1.4.7-1.5.8,0,.1.5,0,1-.3.4-.2.8-.6.5-.6ZM131.6,19.5c0-.2-.6-.2-.9,0-.6.3.9,0,.9,0ZM132,19.3c0-.3-.3,0-.1.1,0,0,.1,0,.1-.1ZM137.2,25.9c0-.4-.1-.4-.8,0-.8.4-2.1,1.9-1,1.2.2-.2.5-.1.7-.3,0,0,.3-.2.6-.3.4-.1.5-.2.5-.5ZM140.2,24.2c-.2,0-1.1.5-1.3.4,0,0-.1,0-.2,0,0,.1-2.4,1.3-1,.8.3-.1.5-.2.5-.3,0-.2.5,0,.7-.2.1,0,1.3-.6,1.3-.7ZM148.7,20.1c0-.3-.2-.2-.5.2-.6.6-1.8,1.3-2.6,1.4-.1,0-.4,0-.5.2-.3.2-1.1.1-1.3.3-2,1.1-2.1.7-4.3,1.8-.6.3-.5.3.2.1.3,0,.5-.2.5-.3s0,0,.2,0c.1.2.2.2.8,0,.6-.2,1.7-.8,2.2-.8.1,0,.2,0,.2-.1s.3-.2.6-.3c.5-.1,1.6-.7,2-.8.6,0,2.5-1.3,2.6-1.8ZM155.8,25.3c0-.2-.7-.1-.5.2,0,0,.5,0,.5-.2ZM169.5,67.1c-.2,0-.8.4-.8.6s.7,0,.9-.1c.2,0,0-.4,0-.5ZM171.2,66.4c0,.2.3,0,.7-.2.8-.7-.7,0-.7.2ZM166.9,72.6c0-.5-.8,0-.5.3.2.2.5,0,.5-.3ZM176.2,67.9c0-.1-.3-.2-.5,0-.3.2,0,.4.2.3.1,0,.3-.2.3-.2ZM177.1,68.3c-.5.2-1.3.9-.2.4.4-.2.6-.4.2-.4ZM184,64.6c-.2-.1-1.1.5-1.1.7,0,.3.7-.4.8-.3.2,0,.5-.3.3-.4ZM180,71c.1-.1.3-.2.4-.1.1,0,.5,0,.5-.2s-1.1,0-1.3.2c-.3.4.1.4.4.2ZM168.4,76.3c0,.1.2.2.2,0,0,0-.2-.2-.2,0ZM158.3,73.7s-.1,0-.2.1c-.3.4.3,0,.2-.1ZM177.7,69.6c0,0-.1,0-.1.1,0,.3.3,0,.1-.1ZM80,73.2s-.3,0-.5.2c-1,.6.6,0,.5-.2ZM78.8,74c0-.2-.4-.2-.4,0,0,.2.4.2.4,0ZM83.6,69.6c0-.1-.3-.2-.2,0,0,.1.2.2.2,0ZM73.8,72.8c0-.2-.2-.2-.2,0,0,.2.2.2.2,0ZM165.4,81.4h.4c.7-.2.5-.6,0-.2l-.4.2ZM80.4,68.7c.3-.3.2-.6-.1-.3s-.3.2-.4.2c-.2,0-.2.3-.7.7-1.3,1.1,1-.2,1.3-.6ZM156.4,76.1c.1.3.2.3.7-.1.4-.3.7-.2,1-.5.5-.4,1.2-.5,1.9-1.1.7-.6,1.3-.7,1.7-1.1,0-.2,1.1-.7,1.2-.8.6-.6,1.1-.6,1.6-1.3,0-.2-.4,0-.6.2-.1.2-.3.3-.3.3,0,0-3,2-2.9,1.7-.2-.2-.6.4-.8.3-.2,0-.9.6-1.1.6,0,0-2.1,1.3-2.3,1.4,0,0,0,.2,0,.3ZM147.1,75.4c0-.5-.7.5-.9.5-.1,0-.2.1-.1.2.2.4,1-.6,1-.7ZM76.3,75c0,0-.1,0-.1.1,0,.3.3,0,.1-.1ZM82.1,71.9c-.3,0-1.5.6-1.6.9,0,.1,0,.1.2,0,.4-.1.8-.2,1.2-.5.3-.3.6-.2.8-.4.3-.2,2.3-1.3,1.9-1.5-.3,0-1.5.7-1.9,1.2-.2.2-.4.3-.5.2ZM174.5,78.7c0,.1.3.1.4,0,.2-.3-.4-.2-.4,0ZM175.2,77s-.1,0-.2,0c-.2,0,.3.1.2,0ZM176.2,74.7c-.3.3-.6.3-.7.4,0,.2.6,0,.9-.4.4-.4.2-.4-.3,0ZM176,76.4c0,.1.3,0,.5-.2.3-.3,0-.4-.3-.1-.1.1-.2.3-.2.3ZM177.7,75.5c.5-.3.7-.5.4-.5s-1.2.6-1.3.7c0,.2.2,0,.8-.2ZM189.6,66c.5-.4.4-.6-.3-.3-.4.2-.4.2-.3.4.1.2.1.2.6-.2ZM186.7,67.5c0-.2,0-.2-.5,0-.4.2-.5.4-.4.5.2,0,.4-.3.6-.3.1,0,.2-.2.2-.2ZM176.6,77.6c0,.2,0,.2.2,0,.2-.2.5-.1.5-.4.1-.5-.8.2-.7.4ZM177.8,73.8c-.1-.1-.5,0-.5.3,0,.4.5-.1.5-.3ZM178.7,75.4c-.5.3-1.9,1-2.3,1.3-.4.3-2,.9-1.7,1.3.1.1,1.2.3,1-.1-.3-.5,3.1-2,3.7-2.6,0-.3-.2-.2-.7,0ZM180.7,72.3c.3-.4.1,0,.4-.2.3-.3.2-.4-.1-.1-.3.2-.7.3-.9.5,0,.2.5.1.7-.2ZM170.4,77c0,0-.2,0-.2.2-.2.5.4-.2.2-.2ZM178.7,76.5c.4-.3.6-.2.9-.5.3-.3-.3-.3-.4-.1-.1.3-.5.3-.9.6-.6.4-.3.5.4,0ZM172.2,79.9c0,.1.5.1.5,0,0-.2.5,0,.5-.2,0,0,0-.1.2-.1.2,0,.5-.3.4-.4,0,0-1.5.7-1.5.8ZM167,80.4c0,.3.3,0,.1-.1,0,0-.1,0-.1.1ZM172,76.1c0,0-.1,0-.1.1,0,.4.3,0,.1-.1ZM166.7,80.5c0,.2.2.1.2,0,0-.2,0-.1-.2,0ZM165.7,22.9c0,.2.4-.2.3-.2,0,0-.3,0-.3.2ZM179.6,72.7c0,0-.1,0-.1.1,0,.3.3,0,.1-.1ZM173.9,76.1c0,.3.4,0,.4,0,0-.3-.4,0-.4,0ZM184.2,69.5c0,0-.1,0-.1.1,0,.3.3,0,.1-.1ZM168.4,79.9c.1-.1.3-.2.3-.2.2,0,.7-.6.9-.6.4,0,1.3-1.1,1.8-1.2.5-.1,1-.5,1-.8-.2-.1-1,.5-1.2.6-.2.2-2.7,1.5-3.5,2.3,0,.2.3.2.6,0ZM172.3,78.7c0-.1.9-.4.9-.6,0,0-1.2.4-1.2.6s.2.1.3,0ZM249.8,37.8h0c0,.2.2.1.2,0,0-.2-.2-.1-.2,0ZM229.4,49c.2,0,.8-.2.7-.3,0,0-.2,0-.5.1-.2,0-.3.2-.3.2ZM233.4,47.2c0,0,.2,0,.3,0,0-.2-.3,0-.3,0ZM231.6,47.9c0,0,0,0,0,0,.3,0,0-.2,0,0ZM253.6,32.2c0,.2,0,.2.3,0,.3-.2-.3-.1-.3,0ZM252.3,39.4c-.2,0-.6.2-.6.4,0,.4.6-.3.6-.4ZM231.4,23.5c-.1,0-.8.3-.8.4.1.3,1-.4.8-.4ZM254.6,31c-.2.1-.3.2-.3.3.1.4,1.3-.8.3-.3ZM163.5,23.9c0,.2.5.1.2,0,0,0-.1,0-.2,0ZM231.1,24.6c0,.2.3-.2.2-.2-.2,0-.3,0-.2.2ZM238.8,28.4c-.2,0-.4.2-.4.3-.3.7,1.8-.5.4-.3ZM211.1,57.2c0,.3.3,0,.1-.1,0,0-.1,0-.1.1ZM202.1,61.6c0,.1,0,.2,0,.1.4-.2.1-.6,0-.1ZM197,64.4c0,.2.2.1.2,0,0-.2-.2-.1-.2,0ZM206.4,59.4c-.2,0,.3.1.2,0,0,0-.1,0-.2,0ZM194.2,65.8c0,0-.2,0-.2.1.2.2.6-.2.2-.1ZM195,65.5c0,0,.5,0,.5-.1,0-.3-.5,0-.5.1ZM227.4,49.7c0,.1.6,0,1.1-.3.5-.2.4-.5,0-.2-.2.1-1,.3-1,.5ZM189.7,68.4c0,.2.2.1.3,0,0-.2-.3-.1-.3,0ZM206.9,59.3c.1.1,1.1-.4.9-.6,0-.6-1.1.5-.9.6ZM226.7,50c0,.1.6-.2.6-.2,0,0-.6,0-.6.2ZM208.3,58.3c0,.2.2.2.2,0,0-.2-.2-.2-.2,0Z"/>
</svg>