<?xml version="1.0" encoding="UTF-8"?>
<svg id="Layer_1" xmlns="http://www.w3.org/2000/svg" version="1.1" viewBox="0 0 66.4 22.5">
  <!-- Generator: Adobe Illustrator 29.7.1, SVG Export Plug-In . SVG Version: 2.1.1 Build 8)  -->
  <defs>
    <style>
      .st0 {
        fill: #fff;
      }

      .st1 {
        fill: #004eff;
      }
    </style>
  </defs>
  <g>
    <path class="st1" d="M0,21.2v-13.2h3.4v2.7c0,0-.6.3-.6.3.2-.6.5-1.1,1-1.6.5-.5,1-.9,1.7-1.2.7-.3,1.4-.4,2.1-.4s1.8.2,2.5.6c.7.4,1.2,1,1.5,1.8.3.8.5,1.8.5,3v8.1h-3.5v-7.8c0-.6,0-1.1-.2-1.5-.2-.4-.4-.7-.8-.9-.3-.2-.8-.3-1.3-.2-.4,0-.8,0-1.1.2-.3.1-.6.3-.9.5s-.4.5-.6.8c-.1.3-.2.6-.2,1v7.9H0Z"/>
    <path class="st1" d="M20.5,21.5c-1.4,0-2.7-.3-3.7-.9-1.1-.6-1.9-1.4-2.5-2.4-.6-1-.9-2.2-.9-3.5s.2-1.9.5-2.8c.3-.8.8-1.6,1.4-2.2.6-.6,1.3-1.1,2.1-1.4.8-.3,1.7-.5,2.7-.5s1.7.2,2.5.5c.8.3,1.4.8,2,1.4s1,1.3,1.3,2.1c.3.8.4,1.7.4,2.6v1.1h-10.6l-.6-2.2h8.2l-.4.4v-.5c0-.4-.2-.9-.4-1.2-.3-.4-.6-.6-1-.8-.4-.2-.8-.3-1.3-.3-.7,0-1.4.1-1.9.4-.5.3-.9.7-1.2,1.2-.3.5-.4,1.2-.4,2s.2,1.5.5,2.1c.3.6.8,1,1.4,1.4.6.3,1.4.5,2.2.5s1.1,0,1.6-.3c.5-.2,1-.5,1.5-.9l1.7,2.4c-.5.4-1,.8-1.6,1.1-.6.3-1.2.5-1.8.7-.6.1-1.2.2-1.8.2Z"/>
    <path class="st1" d="M26.4,11.2v-3.2h8.7v3.2h-8.7ZM28.9,21.2V4.7h3.5v16.5h-3.5Z"/>
    <path d="M35.7,11.4v-3h8.4v3h-8.4ZM37.7,21.2V7.1c0-.8.2-1.6.5-2.2s.9-1.2,1.5-1.6c.6-.4,1.4-.6,2.3-.6s1.1,0,1.6.3c.5.2,1,.5,1.3.8l-1,2.6c-.2-.1-.4-.2-.7-.3s-.4-.1-.6-.1c-.3,0-.6,0-.8.2-.2.1-.4.3-.5.5,0,.2-.1.5-.1.8v13.9h-3.6ZM48.5,5.3c-.7,0-1.2-.2-1.6-.5-.4-.3-.6-.8-.6-1.4s.2-1,.6-1.4c.4-.4.9-.5,1.6-.5s1.2.2,1.6.5c.4.3.6.8.6,1.4s-.2,1-.6,1.4c-.4.3-.9.5-1.6.5ZM46.8,21.2v-13.2h3.5v13.2h-3.5Z"/>
    <path d="M52.8,21.2v-13.2h3.4v2.7c0,0-.6.3-.6.3.2-.6.5-1.1,1-1.6.5-.5,1-.9,1.7-1.2.7-.3,1.4-.4,2.1-.4s1.8.2,2.5.6c.7.4,1.2,1,1.5,1.8.3.8.5,1.8.5,3v8.1h-3.5v-7.8c0-.6,0-1.1-.2-1.5-.2-.4-.4-.7-.8-.9-.3-.2-.8-.3-1.3-.2-.4,0-.8,0-1.1.2-.3.1-.6.3-.9.5-.2.2-.4.5-.6.8-.1.3-.2.6-.2,1v7.9h-3.5Z"/>
  </g>
  <rect x="35.7" y="8.1" width="2" height=".6"/>
  <rect class="st0" x="32.4" y="11.2" width="5.3" height="10"/>
</svg>