<?xml version="1.0" encoding="UTF-8"?>
<svg id="Layer_1" xmlns="http://www.w3.org/2000/svg" version="1.1" viewBox="0 0 196.2 49.4">
  <!-- Generator: Adobe Illustrator 29.7.1, SVG Export Plug-In . SVG Version: 2.1.1 Build 8)  -->
  <defs>
    <style>
      .st0 {
        fill: #fff;
      }

      .st1 {
        fill: #004eff;
      }
    </style>
  </defs>
  <path class="st1" d="M25.7,4.2c0,0,0,0,0,.1,0,0-.6,0-.6,0,0,0,.4-.1.6,0ZM33.9,2c1.7,0,3.7.2,4.4.2,4.2.3,9.8,1,13.5,1.7,0,0,.1,0,.6,0,.3,0,0-.1-1-.4-1-.2-2.3-.4-3.4-.6-5.3-.7-9.1-1.1-15-1.3-2.4,0-2.5,0-2.5,0,0,.3.3.3,3.5.4ZM20.5,4.4c0,0,0,0,0,0,.2,0,.3-.3,0-.2,0,.1-.1,0-.2,0ZM5.7,3.1c.9,0,1.9-.2,2.6-.3,1.1-.2,1.6-.1,2.3-.2,0,0,1.7,0,1.7-.1,0,0,.3,0,.6,0,2.4-.1,5-.3,7.4-.4.5,0,6.7-.1,7.8-.2.1,0,1.7.1,1.8,0,.2-.1.1-.3,0-.3-.9-.1-3.9-.1-4.6,0,0,0-.7,0-1.9,0-.2,0-.4,0-.5,0-1.1.1-2.8.1-4,.2-.3,0-1.7,0-2,.1-.3.1-.2-.1-.4,0-.4.1-2,0-2.4.1,0,0-.5,0-1.2,0-1.5,0-1.8,0-2.1.1-.2,0-.3,0-.4,0,0,0-.4,0-.6,0-.9,0-1.1,0-1.1,0,0,0-.3,0-.5,0-.5,0-.5.1-.9.1-.5,0-.6.2-1.2.2-.6,0-1,.1-1.1.1,0,0,0,0,0,.1,0,0,.2,0,.5,0ZM20.8,4.4c0,0,.2.1.2,0,0-.2-.2-.2-.2,0ZM31.1,4.3c0,.1.6,0,.7.2,0,0,.2,0,.8,0,1.1,0,1.4-.1,1.4-.3,0,0,0,0-.2,0-.2,0-.3-.1-.5,0-.1.2-1.4,0-1.6,0-.3,0-.5,0-.5.1ZM29.8,4.4c0,0,.2,0,.3,0,.2.1.4,0,.5,0,.2,0,.3,0,.3-.2,0,0-1.3,0-1.3,0,0,0,0,.2.2.2ZM22.5,4.3c0,0-.8,0-1,0h.3c.2.2,1.3.2,1.5.3.1.1.3,0,.5,0,.1,0,.2,0,.2-.2,0-.2.2-.3.2-.1,0,.1.8,0,.8-.2-.3-.1-2.2.2-2.4.2ZM27.5,2.6s0,0-.1,0c-.1,0,.2,0,.1,0ZM26.4,4.1c-.1,0-.3,0-.4.1-.1.1,0,.1.5,0,.5,0,2.1,0,2.4,0,.1,0,0-.2-.1-.2-.1,0-2,0-2.4,0ZM29.1,4.3c0,.1.3,0,.3-.1,0-.2-.4,0-.3.1ZM54.1,9.2c-.3,0-.2,0,0,.2.2,0,.3,0,.2,0,0,0-.1,0-.3,0ZM6.2,10c0-.1-.3,0-.4,0-.1,0-.2,0-.2,0,0,0,.6,0,.6,0ZM57.2,19.2c0,0,0,.1,0,.2,0,.2,0,.4,0,.7,0,.2,0,.4-.1.5-.1.2-.1.4,0,1.4,0,.5,0,.8-.2,1.2-.1.3-.1.3,0,.7,0,.4,0,1.3,0,1.8,0,.4,0,.7,0,.8.1.1,0,1-.1,1.4-.2.4-.2.4,0,.8.1.3.1.3,0,.5,0,.2-.1.5,0,.5,0,0,0,.5,0,1-.1.5.2,1.7-.2,2,0,0,0,.1,0,.2,0,.2-.3.5-.7.5-.7.1-1.3.3-1.3.5.1.3.2.2,0,.8-.2.5-.3.6-.6.8-.1.1-.3.1-1.2,0-1.9,0-2,0-2.1,0-.4.6,1.2.5,2.6.6.4,0,.8,0,.8,0,.1,0,.1,0,.1.3,0,.3-.2.5-.3.8,0,.2-.7.5-1.2.5-.5,0-.8.1-.8.2,0,0,.4.1,1.4.1.2,0,.3,0,.4,0,0,0,0,.2-.3.2-.4,0-.5.3-.3.4.3.2.3.8,0,.8-.2,0-.2.4-.4.4,0,0-4.7,0-4.7,0,0,.3,0,.3.5.3,4.3.2,4.2.2,4.4.6,0,.2,0,.7-.2.9-.2.3-.3.7-.5,1-.2.3-.2.3-.2.6,0,.3,0,.3,0,.4-.1.1-.3.1-.3.3,0,.1-.1.2-.5.2-.2,0,0,.4.2.6-.3,0-.8.2-.7,0,0,0,0,0-.1,0s-.3,0-.6,0c-1,0-1,0-1.4.6,0,0,0,0,0,.1,1,0,2.7,0,2.2.3-.4.3-1.3.2-2.1.1-.4,0-2.7,0-2.9,0,0,0-.2,0-.2,0,0,0-.5,0-1,0-1.2,0-1.3,0-1.4,0,0,.1,0,.3.1.4,0,0,.1,0,0,.1,0,.1-2.2,0-2.2.1-.6,0-1.1-.1-2.5-.1-1.6,0-1.9,0-1.9,0,0,.1-.2.1-1.4,0-1.4,0-1.6,0-1.6.1,0,0,0,.1.2,0,.3,0,.5,0,.9,0,.2,0,.5,0,.7,0,.3,0,.5.1.2.2-.1,0-.9,0-2.4,0-1.6,0-2.3,0-2.3,0-.1.2,0,.2.5.1.3,0,.5,0,.5,0,0,0,.1,0,.3,0,.1,0,.2,0,.3,0,.1.1.2.2.4.1.6,0,1.9,0,2.5.1,0,0,.5.3.6.2,0,0,0,0,0,0,0,.1,0,.1-.6,0-.4,0-2-.1-2.4-.2,0,0-.4.1-.3.2.2.2,1.6.1.4.4-.5.1-.6.1-.7,0,0-.1,0-.1-.1,0-.2.5-.2,0-.4,0-.1,0-.2.2-.3,0h0c0,0-.2-.1-.5-.1-1,0-1,0-.9-.2,0-.2,0-.2.8-.1.8,0,.9,0,1.3-.1,0,0,0,0,0,0,0-.1-.2-.2-.5-.1-.2,0-.6,0-1,0-.8,0-.8,0-.9.2,0,.1-.1.1-.3.1-.4,0-1,.2-1.2,0-.3-.2-1.2,0-1.5,0-.2,0-.4,0-.4,0,0,.1-1.2,0-1.3,0-.1-.2-.6-.2-.7,0,0,0-.2,0-.6,0-.9-.1-4.6-.3-5.7-.5,0,0-.1,0-.1,0,0,0-.5,0-1.6,0-.8,0-1.7-.1-2-.1-.4,0-.6-.1-.8-.2,0,0-.1,0-.2-.1,0-.1-.2-.1-2.7-.2-.3,0-.5,0-.5,0,0,0,.2-.4.4-.4.3,0,.3-.2,0-.3-.5-.1.2-.6-.3-.6-.2,0-.4-.2-.5-.1-.1,0-.3,0-.4-.4,0-.1-.1-.3-.2-.3-.2,0-.2-.3-.3-.5,0-.1,0-.2,0-.2.1,0,.3-.6.3-.7,0,0-.1-.1-.7-.2-.2,0-.4-.2-.6-.2-.1,0,0-.2,0-.5,0-.2.1-.3.1-.3,0,0,.5-.7.7-.8.2,0,0-.5,0-.5,0,0-.9,0-1.2,0,0-.2-.1-.9-.2-.9,0,0,0-.2,0-.4,0-.4.2-.5.8-.6.5,0,.5-.1,1-.1.5,0,.6,0,.5-.2-.6-.2-2,0-2.7-.1,0-.2,0-.7,0-.8,0,0,0-.1,0-.1,0,0,.1-.1.1-.3,0-.2,0-.2.2-.2.2,0,.6-.4.6-.5-.1-.2-3.5,0-3.7-.5-.1,0-.3-.3-.4-.4-.2-.3-.2-.4-.1-1.3.1-.7-.2-1.6-.5-2.1.2-.5.5-1.3,0-1.4-.2,0,0-.2,0-.4,0,0,0,0,0,0,0,0,0,0,0-.3,0-.1,0-.5,0-.9,0-.6,0-.8.2-.7.1,0,0-.1,0-.3,0,0-.1-.2-.1-.2,0-.2-.3-.7-.5-.8-.2,0-.3-.3,0-.3.3,0,.4-.5.1-.8-.2-.2-.3-.4-.3-.5,0,0,.2,0,.5,0,.4,0,.5,0,.5,0,0,0,0-.1-.1,0,0,0-.1,0-.2,0,0-.1-.3-.3-.5-.3,0,0-.2,0-.2-.1,0,0,0,0,.2,0,.3,0,.3,0,.4-.2,0-.2,0-.2.8,0,.1.2,3.4.3,3.6.3.4,0,.2-.2,1.6,0,.7,0,.7,0,.5-.5-.1-.3,0-.9-.3-.9-.2,0-.4,0-.4.1,0,0,0,0,.1.1.2,0,.4.1.4.2,0,.1-.4.2-.5.1,0,0-.1,0-.2,0-.1.1-.9.1-1.1,0-.1,0-.2,0-.2,0,0,0-.3,0-.5,0-.2.2-.8,0-1,.1,0,0-.1,0-.2,0-.4-.1-2-.2-2.2-.4-.1-.1-.4-.2-.5-.4,0,0-.2-.2-.2-.2.2,0,.7.2.6,0,0-.2-.5-.3-.5-.3,0,0-.2-.4-.2-.5,0-.2,0-.2.3,0,.3.2.4.2.3,0,0-.1-.3-.1-.5-.3-.4-.3-.2-.3-.4-.6,0,0,0-.1,0-.2,0,0,.2,0,.5,0,.7.3,1.5.3,2.3.4.6,0,.6,0,.9,0,0,0,1.6.2,2.5.2.4,0,.4.2,0,.3-.2,0-4.3-.1-4.4-.1-.1,0-.2,0-.3,0,0,.1,0,.4.2.3,0,0,.2,0,.3.2.2.2.3.3.4.1.2-.1.5.2.8,0,.2-.1.4,0,.4,0,0,0,1.5,0,1.6,0,0,0,.1,0,.2,0,0,0,.3,0,.7,0,.7,0,.7,0,.6-.6,0-.7,0-.7-.8-.7-.6,0-.5-.2-1,0-.4,0-.7-.2-1,0-.3,0-2.3,0-2.8-.2-.5,0-.8-.2-.9-.4,0,0,0-.2-.1-.2,0,0-.1-.1-.2-.3-.1-.2-.1-.3-.1-.5,0-.2,0-.2-.1-.3-.2,0-.3-.3-.2-.3,0,0,0-.3,0-.5-.1-.2-.1-.6-.3-.7-.1,0,0-.4-.2-.4,0,0-.1-.1-.1-.3,0-.4.1-.5.5-.4.5.1,3.7.3,3.8.3,0,0,1.3,0,2,0,.4,0,.3-.3-.2-.6-.3-.2-.8-.4-1-.6,0,0,0,0-.1,0,0,0-.3-.2-.4-.5-.3-.5-.8-.8-1.1-1.2-.1-.2-.2-.6-.2-.9,0-.1,0-.2,0-.3,0-.2-.1-.6-.3-1-.2-.5-.3-1-.3-1.6,0-.6.2-.7.8-.7,1,0,2.8-.2,3.6-.3,5.1-.4,10.7-.7,15.8-.8,1.8,0,3.6,0,6.9,0,4.2,0,5.8.2,5.6,0-.3,0-.9-.1-.9,0,0,0-.2-.1-.3,0,0,0-5.5,0-6.5-.1-.6,0-.8,0-2,0-4,0-7.6.1-11.5.4-.8,0-1.1,0-1.6,0-.2,0-1.5,0-1.7.1-.1,0-.2,0-.2,0,0,0-2-.1-2.5,0-.2,0-1.2,0-1.4.1,0,0-.4,0-.7,0-.3,0-.6,0-.6,0,0,0,0,0,0,0,0,0,1-.2,2-.2.2,0,.4,0,.5,0,0,0,0,0,.1,0,0,0,.2,0,.5,0,.4-.2.9,0,1.2,0,.3-.2.7-.1,1-.2.3-.1,0-.2-.4-.1-1.5,0-2.7.2-4.3.3-2.1.2-2.6.2-3.2,0-.4,0-.3-.3-.3-.7h.6c.3,0,.7,0,.8.1,0,0,.2,0,.2,0,.5-.3,2.7-.1,3.4-.3.3,0,1.2,0,1.9,0,0,0,.9.2.9,0,0,0,.2,0,.3,0,.4,0,1.3,0,1.5,0,.7-.1,1-.2,1.6-.2.7,0,1.4.1,1.8,0,0,0,.4,0,.7,0,.3,0,.7,0,.7,0,.3,0,.7.2,1,0,.4,0,.9,0,1.2-.2,0,0,.2,0,.3,0,.5.1,1.1,0,1.9,0,.5,0,1,0,1.2,0,.2,0,.3,0,.4,0,0,0,.2,0,.2,0,0-.2.3.2.4,0,.2,0,2,0,2.2-.1.4-.2,2.9,0,3.7,0,.7,0,4.5.1,5.1,0,0,0,.2,0,.4,0,.2,0,.3,0,.4,0,.2-.2.4.2.6,0,.2-.1.7.1.9,0,.5,0,.6,0,1.7.1,1.2,0,1.4,0,1.6,0,.2,0,.3,0,.5,0,.5.1.7.1,1.6.2,2.5.2,5.2.7,7.8,1.1.2,0,1.3.2,1.5.3.1,0,.3,0,.3,0,.1,0,.8.1.9.2,0,0,.1,0,.3.1.2,0,.2.1.3.3,0,.3.5.4.5.7,0,.1,0,.2-.1,0,0-.1-.3-.2-.4,0-.2.2-2.5,0-2.9,0-2-.3-3.4-.5-5.1-.7-1.4-.3-3.2-.1-4.8-.3,0,0-.1,0-.2,0,0,.1-2.1,0-2.2,0-.1,0,0,0,.4,0,.3,0,.8,0,1.2,0,2.7.2,1.9.2,3.4.3,2,.4,6.7.6,8.2.7.5,0,1.8.3,2.1.6.2.1.2.2.2.4,0,.2,0,.2-.2.2-.5-.1-2.2-.6-2.4-.4,0,.4,1,.4,1.1.7.5.6.6.6-.9.5-1.7,0-2.6-.3-4.3-.5-1.5-.2-2.9-.4-4.6-.6-1-.1-3.2-.4-4.1-.3-.2,0-.2,0,.2.1.3.1,1.7.2,2,.3.2,0,1.8.3,2.6.4.5.1,4.4.4,4.2.4.2.2,4.8.1,5.8,1,.2.2.3.3,0,.2-1-.5-2.2-.7-3.8-.7-.5,0-.6.1-.1.2,1.9.3,2.9.5,3.3.7,1,.4.7.4,2.3.8.9.2.9.2.9.5.1.5.4,1.8.3,2.4,0,.4,0,.7-.1.9ZM15.1,8.8c0-.2,0,.2,0,.2,0,0,0,0,0-.2ZM15.9,8.8s-.1-.2-.1,0c0,0,0,.1.1,0ZM17.8,8.7c0-.2-.3.1,0,.1,0,0,0,0,0-.1ZM6.2,20.3c0,0,0,.1.1.1.5,0,.8.1.8.1.1,0,1.1,0,1.2,0,.2,0,.2,0,.2-.2,0-.2,0-.2-.7-.2-.4,0-.9,0-1.2,0-.3,0-.4,0-.4.1ZM7.6,21.5c-1.3,0-2.7-.3-2.2.3,0,0,.6,0,1.1,0,.8,0,1,0,1.2,0,.2-.1.1-.2,0-.2ZM8.8,21.7c0-.5-.1-.7-.3-.7-.1,0-.5,0-.8.2-.1,0,.1.2.5.2.3,0,.3,0,.3.3,0,.2,0,.3.2.3.1,0,.1,0,.1-.3ZM37.7,9.8c0,.1.2,0,.2,0,0-.1-.2,0-.2,0ZM38.4,9.8c0-.1-.1-.1-.1,0,0,.1.1.1.1,0ZM48.3,35.8c0-.1-.2-.1-.2,0,0,.1.2.1.2,0ZM6.5,10c0,0-.2,0-.2,0,0,0,.2,0,.2,0ZM19.3,4.5c.1.1.7,0,.9,0,.1,0,.2,0,.2,0,0,0-.7,0-1,0,0,0,0,0,0,0ZM39.4,47.4c0,0,0,.1,0,0,0,0-.1-.1,0,0ZM38.9,47.3c0,.1.2.2.2,0,0-.1-.3-.2-.2,0ZM3.6,6.8c.1-.1,1.1.1,1.2,0,0,0,.2-.1.4-.1.2,0,.4,0,1.2-.1,1,0,2.1-.3,3.1-.3.6,0,.7-.2,1.6-.1.8,0,.7,0,1.4,0,.2,0,.4,0,.4,0,0,0,.2,0,.4,0,.7,0,1.8,0,2.5-.2.6-.2.7-.2.7,0,0,0,.1,0,.2,0,.2,0,.9,0,1,0,.3,0,1-.3,1.3,0,0,0,.2,0,.2,0,0,0,.5,0,1.2,0,1.8,0,2.3-.2,4.2-.1,1.6,0,1.1,0,2.4,0,.5,0,.9,0,1,0,.2-.1.4-.1.4,0,0,.1.2.1.6,0,.4-.1,1.8,0,2.3-.1.3,0,.4,0,.6,0,.2,0,.3,0,.3,0,0,0,.5-.1,2.1-.1.7,0,1.3,0,1.3,0,0,0,.9.1,1,.1,0,0,0,0,.1,0,0,0,.2,0,.3,0,.3.2.6,0,.9,0,.2,0,.3,0,.4,0,0-.1,0-.1,0-.2-.1,0-.5-.1-.7-.1-.1,0-.3,0-.4-.1-.2-.2-1.4-.2-1.5,0,0,.1-.5,0-.5,0,0,0-.3,0-.6,0-.5,0-.5,0-.5-.2,0,0,0-.2,0-.2,0,0-.5,0-1,0-1,0-1.3-.1-1.3-.3,0,0,.1-.1.2-.1.2,0,1.8,0,1.9,0,0,0,.1,0,.2,0,.1-.1.7-.1.8,0,0,0,.5,0,.5,0,0,0,0,0,.3,0,.3,0,.4,0,.6,0,.1,0,3.1.2,4.2.3,1,0,1.1,0,1.2,0,.1-.2.2,0,.4-.1,0,0,.1,0,.2,0,0,.1.4,0,.5.1.2,0,.1,0,.4,0,.2,0,1.3.1,1.5.2.1,0,.2,0,.3,0,.4-.2,1,.1,1.5.1,1.1.1,1.4.2,1.5.2.1,0,1.2,0,1.7.2.4,0,1.1.2,1.4.2.1,0,.4,0,1,.2.1,0,.3,0,.3,0,0,0,.2,0,.4,0,.6,0,1.3.3,1.3.5,0,.2.3.4.7.4.3,0,.4.1.5.3.1.2.1.3,0,.4,0,.2,0,.2-.7,0-.8-.1-1.3-.2-2-.3-.1,0-.2,0-.2,0,0,.1.1.2.8.3.4,0,.6.1.7.2,0,.1,0,.1-.6,0-.8,0-1,0-.3.2.7.1,1.1.3,1.9.3.4,0,.2.5,0,.6,0,0,0,0,0,.2,0,.2,0,.2-.6.2-.6,0-1.3,0-3-.4-1-.2-.9,0,.3.2.6,0,.6,0,1.2.2.5.1.9.3.9.3,0,0-.6,0-.9,0-.1,0-.7,0-1.2-.1-1.2,0-1.1-.2-2.2-.4-.2,0-.4-.1-.4-.2,0-.4-.9-.3-1-.4,0-.1-.2-.2-.6-.1-.2,0-.4,0-.4,0,0,0,0,0,0,0-.1,0-1.5-.2-2-.2-2.9-.4-6.7-.5-9.6-.8-.5-.1-.8.3-1.2,0-.1-.1-.5,0-.6,0,0,0-.3,0-.6,0-1.1,0-3.6,0-4-.2-.2,0-.2,0-.4,0-.2.1-.8.1-.8,0,0,0-.2,0-.6,0-.6.1-1.6.1-1.7,0,0,0-.1,0-.2,0-.2,0-.3,0-2.3.1-2.9,0-3.7.4-6.2.2,0,0-.6,0-.7,0-.1.1-.8.2-2.1.2-.4,0-.7,0-.8,0-.6.2-2.4.1-3.2.3-1.6.2-4.2.5-5.4.4-.2-.1-1,0-.9-.5,0-.2-.2-.4-.2-.6ZM51.7,8.2s0,0,0-.2c0-.2,0,.2,0,.2ZM48.3,6.7s0,0,0,0c0-.1-.3,0,0,0ZM38.7,6.3c0,0,0,.1.2,0,.3-.2-.2-.2-.2,0ZM36.3,6.2c0,0,1.2,0,1.3.2,0,.1.3,0,.3,0,0-.2-.4-.1-.5-.2,0,0-.2,0-.2,0,0,.1-1,0-.9.2ZM9.5,6.7c0,.2,1.4,0,1.5,0,.4,0,2.2,0,2.7-.1,0,0,1.2-.1,1.9-.1.2,0,.5,0,.5,0,0,0,.1,0,.3,0,.2-.1.5,0,.7-.1,0,0,.3,0,.6,0,.5,0,.7,0,1.2,0,.2,0,1.3,0,1.4.1,0,0,.2,0,.2,0,0,0,.1,0,.3,0,.2,0,.3,0,.4,0,0,0,.1,0,.2,0,.2.1.1-.1.4,0,.2,0,.4-.1.6,0,0,0,.2,0,.4,0,.2,0,.5,0,.8,0,.7,0,.6,0,1.1,0,.4,0,.5-.2.8-.1.2,0,.6.1.7,0,0-.1.3.1.4,0,0,0,0,0,.2,0,0,0,.1,0,.2,0,0,0,.2-.1.3-.2.3,0,.9,0,.9,0,0,.1.2,0,.3.1,0,0,0,0,.1,0,0-.1.5-.2,1.1,0,.2,0,.3,0,.4,0,.7-.2,3.5-.1,4.9,0,0,0,.2,0,.2,0,.1,0,.6-.2.3-.4-.3-.1-3.1-.2-3.2-.1,0,0-.4,0-1.6,0-.6,0-1.1,0-1.1,0,0,0-.7,0-2.5,0-.5,0-1,0-1,0,0,0-.4.1-.5,0,0,0-.4,0-1.1,0-.9,0-1.5,0-2.1,0-.2.1-.2-.1-.3,0-1.1.1-3.1.2-4.5.3-.4,0-1,0-1.2,0,0,0-.2,0-.4,0-1.3,0-2.9.2-4.2.2-.4,0-.7,0-1,.1,0,0-.2,0-.3,0-.3,0-.7,0-.9,0-.2,0-.2,0-.1.2ZM7.6,7c0,.1.1.2.3,0,.1,0,.2-.2.1-.3,0,0-.3.2-.4.2,0,0,0,0,0,.1ZM6.9,7.1c0,0,.3,0,.3,0,0-.2-.4-.3-.3,0ZM6.1,7.1c0,.2.5.2.5,0,0-.3-.6-.3-.5,0ZM5.4,7.5c0,.1,0,0,0,0,0-.2,0,0,0,0ZM5.1,7.4s0,0,0-.1c0,0,0,.4,0,.1ZM4,7.1c0,.1,0,.2.1.2.1,0,.2.2.2.4,0-.1.2-.4.3-.3.3,0,0-.4-.3-.4-.2,0-.3,0-.3.1ZM54.4,9.4c.2,0,.8.3.8.4,0,0,.1.1.1,0,0,0-.1-.1-.2-.2-.2-.3-.5-.2-.8-.2ZM8.2,44.7c0,.1.1.1.1,0,0-.1-.1-.1-.1,0ZM43.4,46.9c-.5.3,3,.5,3.2.1.2-.3-3.2-.2-3.2-.1Z"/>
  <g>
    <path class="st0" d="M14.6,33.7l-4.2-14.6h4.1l1.9,7c0,.4.2.8.3,1.2,0,.4.1.7.2,1.1,0,.3,0,.6.1.9s0,.5,0,.7h-.4c0-.4,0-.8.1-1.2,0-.4,0-.8.2-1.2,0-.4.2-.9.4-1.4l2-5.4h3.2l1.9,5.4c.2.5.3,1,.4,1.5.1.4.2.9.2,1.2,0,.4,0,.8.1,1.1h-.4c0-.2,0-.4,0-.6s0-.4,0-.7c0-.2,0-.5,0-.7,0-.3,0-.5.1-.8,0-.3.1-.6.2-1l1.9-7h4l-4.3,14.6h-3.2l-3.3-8.1h.5l-3,8.1h-3.4Z"/>
    <path class="st0" d="M32.8,33.7v-14.6h3.6l5.3,8.7h-2.8s5.4-8.7,5.4-8.7h3.5v14.6h-4v-3.9c0-1.3,0-2.4,0-3.4s.2-2,.3-3l.5,1.2-3.7,5.8h-1.4l-3.6-5.8.5-1.2c.2.9.3,1.9.3,2.9,0,1,0,2.1,0,3.5v3.9h-4Z"/>
  </g>
  <g>
    <path d="M66.5,33.8l-4.4-14.6h3.2l2.4,8.2c0,.3.2.6.3.9,0,.3.1.7.2,1,0,.3,0,.6.1.9,0,.3,0,.5,0,.7h-.5c.1-.6.2-1.1.3-1.5,0-.4.2-.8.2-1.1s.2-.6.3-.9l2.3-6h2.6l2.3,6c.2.4.3.8.4,1.2.1.4.2.8.3,1.1,0,.4.1.7.2,1.1h-.5c0-.2,0-.5,0-.7,0-.2,0-.4,0-.6,0-.2,0-.4,0-.6,0-.2,0-.4.1-.7,0-.3.1-.6.3-.9l2.4-8.1h3.2l-4.5,14.6h-2.3l-3.6-8.6h.3s-3.4,8.6-3.4,8.6h-2.4Z"/>
    <path d="M87.7,34c-1.2,0-2.2-.2-3.1-.7-.9-.5-1.6-1.2-2.1-2-.5-.8-.8-1.8-.8-2.9s.1-1.6.4-2.3c.3-.7.7-1.3,1.2-1.8.5-.5,1.1-.9,1.8-1.2.7-.3,1.4-.4,2.2-.4s1.4.1,2.1.4c.6.3,1.2.7,1.7,1.1.5.5.8,1.1,1.1,1.7s.4,1.4.3,2.2v.9h-8.9l-.5-1.8h6.9l-.3.4v-.5c0-.4-.2-.7-.4-1-.2-.3-.5-.5-.8-.7-.3-.2-.7-.2-1.1-.2-.6,0-1.1.1-1.6.4-.4.2-.7.6-1,1-.2.5-.3,1-.3,1.7s.1,1.2.4,1.7c.3.5.7.9,1.2,1.1s1.1.4,1.8.4.9,0,1.3-.2c.4-.2.8-.4,1.3-.8l1.4,2c-.4.4-.8.7-1.3.9-.5.2-1,.4-1.5.6-.5.1-1,.2-1.5.2Z"/>
    <path d="M97.8,34c-.9,0-1.7-.3-2.5-.8-.7-.5-1.3-1.2-1.8-2-.4-.9-.6-1.8-.6-3s.2-2.1.7-3c.4-.9,1-1.5,1.8-2,.8-.5,1.6-.7,2.6-.7s1,0,1.5.2c.5.2.8.4,1.2.7.3.3.6.6.9,1,.2.4.4.8.5,1.2h-.6v-2.8h2.9v11h-3v-2.6h.7c-.1.3-.3.7-.5,1-.2.3-.6.7-.9.9s-.8.5-1.2.6c-.5.2-.9.2-1.5.2ZM98.6,31.5c.6,0,1-.1,1.5-.4.4-.3.7-.6,1-1.1s.3-1,.3-1.7-.1-1.2-.3-1.6-.6-.8-1-1.1c-.4-.3-.9-.4-1.5-.4s-1,.1-1.4.4c-.4.3-.7.6-1,1.1s-.4,1-.4,1.6.1,1.2.4,1.7.6.9,1,1.1c.4.3.9.4,1.4.4Z"/>
    <path d="M106.3,33.8v-15.4h3v15.4h-3Z"/>
    <path d="M110.1,25.4v-2.6h7.3v2.6h-7.3ZM112.2,33.8v-13.8h3v13.8h-3Z"/>
    <path d="M118.3,33.8v-15.4h2.9v6.7l-.6.3c.2-.5.4-1,.8-1.4s.9-.7,1.4-1c.6-.3,1.1-.4,1.8-.4s1.5.2,2.1.5c.6.3,1,.8,1.3,1.5.3.7.4,1.5.4,2.5v6.8h-3v-6.5c0-.5,0-.9-.2-1.3-.1-.3-.4-.6-.6-.7-.3-.2-.6-.2-1.1-.2-.3,0-.6,0-.9.2-.3.1-.5.3-.7.4-.2.2-.4.4-.5.7-.1.2-.2.5-.2.8v6.6h-3Z"/>
    <path d="M130.7,33.8v-14.6h2.9l5.3,8.7h-1.9s5.4-8.7,5.4-8.7h2.7v14.6h-3.1v-5c0-1.3,0-2.4,0-3.4s.2-2,.3-3l.4,1-4.3,6.6h-1.4l-4.2-6.6.4-1c.2.9.3,1.9.3,2.9,0,1,0,2.1,0,3.5v5h-3.1Z"/>
    <path d="M151.6,34c-.9,0-1.7-.3-2.5-.8-.7-.5-1.3-1.2-1.8-2-.4-.9-.6-1.8-.6-3s.2-2.1.7-3c.4-.9,1-1.5,1.8-2,.8-.5,1.6-.7,2.6-.7s1,0,1.5.2c.5.2.8.4,1.2.7.3.3.6.6.9,1,.2.4.4.8.5,1.2h-.6v-2.8h2.9v11h-3v-2.6h.7c-.1.3-.3.7-.5,1-.2.3-.6.7-.9.9s-.8.5-1.2.6c-.5.2-.9.2-1.5.2ZM152.4,31.5c.6,0,1-.1,1.5-.4.4-.3.7-.6,1-1.1s.3-1,.3-1.7-.1-1.2-.3-1.6-.6-.8-1-1.1c-.4-.3-.9-.4-1.5-.4s-1,.1-1.4.4c-.4.3-.7.6-1,1.1s-.4,1-.4,1.6.1,1.2.4,1.7.6.9,1,1.1c.4.3.9.4,1.4.4Z"/>
    <path d="M163.7,34c-1,0-1.9-.2-2.7-.5-.8-.3-1.4-.8-1.9-1.4l1.8-1.6c.4.5.9.8,1.4,1,.5.2,1.1.3,1.6.3s.4,0,.6,0c.2,0,.3-.1.4-.2.1,0,.2-.2.3-.3,0-.1,0-.3,0-.4,0-.3-.1-.5-.4-.7-.1,0-.4-.2-.6-.3-.3-.1-.7-.2-1.1-.3-.7-.2-1.3-.4-1.8-.6s-.9-.5-1.2-.8c-.2-.3-.4-.6-.6-.9-.1-.3-.2-.7-.2-1.1s.1-1,.3-1.4c.2-.4.5-.8.9-1.1.4-.3.9-.5,1.4-.7s1.1-.2,1.6-.2,1.1,0,1.7.2,1,.3,1.5.6c.5.3.9.6,1.2.9l-1.6,1.8c-.3-.2-.5-.5-.8-.6-.3-.2-.6-.3-1-.5-.3-.1-.6-.2-.9-.2s-.4,0-.6,0c-.2,0-.3.1-.5.2-.1,0-.2.2-.3.3s0,.3,0,.4,0,.3.1.4.2.3.3.4c.2,0,.4.2.7.3s.7.2,1.2.4c.7.2,1.2.4,1.7.6.5.2.8.5,1.1.8.2.3.4.5.5.9.1.3.2.7.2,1.1,0,.7-.2,1.3-.6,1.8-.4.5-.9,1-1.6,1.3s-1.4.4-2.3.4Z"/>
    <path d="M168.2,25.4v-2.6h7.3v2.6h-7.3ZM170.3,33.8v-13.8h3v13.8h-3Z"/>
    <path d="M181.5,34c-1.2,0-2.2-.2-3.1-.7-.9-.5-1.6-1.2-2.1-2-.5-.8-.8-1.8-.8-2.9s.1-1.6.4-2.3c.3-.7.7-1.3,1.2-1.8.5-.5,1.1-.9,1.8-1.2.7-.3,1.4-.4,2.2-.4s1.4.1,2.1.4c.6.3,1.2.7,1.7,1.1.5.5.8,1.1,1.1,1.7s.4,1.4.3,2.2v.9h-8.9l-.5-1.8h6.9l-.3.4v-.5c0-.4-.2-.7-.4-1-.2-.3-.5-.5-.8-.7-.3-.2-.7-.2-1.1-.2-.6,0-1.1.1-1.6.4-.4.2-.7.6-1,1-.2.5-.3,1-.3,1.7s.1,1.2.4,1.7c.3.5.7.9,1.2,1.1s1.1.4,1.8.4.9,0,1.3-.2c.4-.2.8-.4,1.3-.8l1.4,2c-.4.4-.8.7-1.3.9-.5.2-1,.4-1.5.6-.5.1-1,.2-1.5.2Z"/>
    <path d="M187.5,33.8v-11h2.9v3.5c.1,0-.4-.7-.4-.7.2-.6.4-1.1.8-1.6.4-.5.8-.8,1.3-1.1.5-.3,1-.4,1.6-.4s.5,0,.7,0c.2,0,.4,0,.6.1l-.8,3.3c-.2,0-.4-.2-.6-.2s-.5,0-.7,0-.6,0-.9.2c-.3.1-.5.3-.7.5-.2.2-.4.5-.5.8s-.2.6-.2,1v5.7h-3Z"/>
  </g>
</svg>