<?xml version="1.0" encoding="UTF-8"?>
<svg id="Layer_1" xmlns="http://www.w3.org/2000/svg" version="1.1" viewBox="0 0 262 86.4">
  <!-- Generator: Adobe Illustrator 29.7.1, SVG Export Plug-In . SVG Version: 2.1.1 Build 8)  -->
  <defs>
    <style>
      .st0 {
        fill: #1d1d1b;
      }
    </style>
  </defs>
  <path class="st0" d="M117.5,67.6c1.2-.1,2.1-.2,4-.2,1.2,0,2.2-.2,2.4-.4.3-.2,2.3-.6,3.4-.5.6,0,1.1,0,1.1,0,0,0,1.2-.2,3-.3,1.9-.1,2.1.1.3.3-.7,0-1.5.2-1.6.3-.2,0-1.6.3-3.1.5-1.5.2-3.4.4-4.1.5-.8.1-1.7.2-2,.2-.3,0-.7,0-.8,0-.1,0-.8.2-1.5.3-.7,0-1.9.2-2.6.3-2.1.3-5,.8-5.4.9-.2,0-.5,0-.5,0-.2-.2-.1-.3.3-.3.2,0,.5-.1.7-.3.2-.1.5-.2.8-.2.3,0,.5,0,.4-.1,0-.1.2-.2.6-.1.4,0,.7,0,1-.1.2-.1.9-.3,1.5-.3.6,0,1.6-.2,2.3-.3ZM119.5,65.7c0,.1,0,.2.2.2.2,0,.2,0,.1-.2,0-.1,0-.3,0-.3,0-.1-.8-.5-.9-.4-.1.2.2.6.5.6.2,0,.2,0,.2.2ZM95.6,71.3c0-.1,0-.2-.2-.1-.1,0-.3,0-.3,0,0,0-.1,0-.1.1,0,0,.2.1.4.1.2,0,.3,0,.3-.2ZM131.5,68.1c0,0,0-.1-.1-.1,0,0-.1,0-.1.1,0,0,0,.1.1.1,0,0,.1,0,.1-.1ZM126.7,68.6c.1-.2,0-.3-.3-.2-.1,0-.2.2-.1.2.1.2.3.2.4,0ZM125.2,68.5c0-.1-.2-.1-.5,0-.4.2-.5.4,0,.4.6,0,.8,0,.5-.4ZM130.1,68.2s0,0-.2-.1c-.1,0-.2,0-.2,0,0,0,0,.1.2.1.1,0,.2,0,.2,0ZM126,68.4c0-.1,0-.2-.2-.1-.1,0-.2.1-.1.2.1.2.3.1.3,0ZM88.6,74.6c.1,0,.7-.1,1.3-.3.6-.1,1.3-.3,1.6-.4,2.7-.5,4.5-.8,4.9-1.1.2-.1.8-.2,1.3-.3.9,0,1.3-.2,1.2-.4,0,0-2.1.2-3,.5-.3,0-1,.2-1.5.3-.5,0-1.2.2-1.6.3-.4,0-.8.2-1,.2-.1,0-.9.1-1.8.3-3.6.7-5.2,1-6.1,1.1-.6,0-1,.2-1,.4,0,.2-.2.2-.3,0-.2-.1-.4-.1-1.1,0-.5.1-1.2.3-1.5.3-.4,0-.9,0-1.3.2-.4.1-.9.2-1.3.1-.4,0-.8,0-.9,0-.2,0-.2.1,0,.4.2.3.4.3.8.3.3,0,.6,0,.7-.1,0,0,.6-.1,1.2-.2,1.5-.1,2.3-.3,2.4-.4,0,0,.3-.1.6-.2.2,0,.5,0,.6-.2.1-.1.2-.1.5,0,.2,0,.5.1.7,0,.2,0,.5-.1.7-.2.2,0,.6-.1.9-.2.5-.2,3-.7,3.4-.7ZM120.6,73c0,0,0,.1.1.1,0,0,.1,0,.1-.1,0,0,0-.1-.1-.1,0,0-.1,0-.1.1ZM109.7,74.2c-.3.1-.7.2-1.9.2-1.1,0-1.6,0-1.6.1-.1.3,0,.3,1,.4.5,0,1,0,1.1,0,.1,0,.8-.2,1.6-.4,1.5-.3,1.7-.4,1.4-.5-.5-.1-1.3,0-1.6,0ZM129.3,69.1c-.4,0-.8,0-1.1.1-.4.2-.7.2-1.7.2-.3,0-1.3.1-2.2.2-.9.1-1.9.3-2.3.3-.3,0-.6.1-.7.2,0,0-.2,0-.2,0,0,0-.5,0-1.2,0-2.3.4-5.4.8-5.8.8-.2,0-.6,0-1,.2-.4,0-.9.2-1.1.2-.2,0-.4,0-.4,0,0,0-.5,0-1,.1-1.8.2-4.3.5-5.4.8-1.9.4-4.1.7-5.9.8-1,0-1.9.1-2.1.2-.2,0-.7.2-1.2.3-.5.1-1,.3-1.2.4-.2,0-.4.1-.5,0-.1,0-.3,0-.4,0-.2.1-.4.2-3.2.5-.8,0-1.5.3-1.8.3-.2,0-.5.2-.7.2-.4,0-.6.2-.3.5.2.2,1.1.1,1.9,0,.3,0,.7-.2,2.6-.4.7,0,1.3-.2,1.4-.3.3-.3,5.1-1.1,5.5-.9.2,0,.3,0,.6-.2.3-.2.4-.3.7-.2.3,0,.5,0,.7,0,.3-.2,2.3-.5,4-.6.6,0,1.3-.1,1.4-.3.2-.1.9-.2,1.7-.3.8,0,1.7-.2,2.1-.2,1.3-.2,1.9-.3,3.3-.4.8,0,1.5-.2,1.6-.2.1,0,0,0,3-.4,1.2-.1,2.2-.3,2.3-.4.2-.2,1.7-.4,4.8-.7,2.4-.3,3.1-.3,6.1-.6,1.7-.1,5.7-.5,6.3-.6.2,0,.5,0,.7,0,.3,0,.4,0,.3-.2,0-.1,0-.2.1-.2.1,0,.2,0,.3-.2,0-.1.1-.1.2,0,.2.2.2.2,3.7.1,1.5,0,3.2-.2,3.8-.3.6,0,1.7-.2,2.5-.3.8,0,1.9-.1,2.4-.2.5,0,2.1-.1,3.5-.2,2.3-.1,2.5-.1,2.5-.4,0-.2-.3-.2-2.1-.1-2.1.1-5.5.3-6.1.3-.3,0-2.4.2-6.9.5-2.3.2-3.5.2-3.6,0,0,0-.4,0-.8.3-.7.4-1.1.5-1.3.3-.2-.1-6,.4-6.6.7-.2,0-.7.1-1.1,0ZM95.3,76.2c-.1.1.2.3.4.3.1,0,.4.1.5.3.2.2.4.2.6.2.2,0,.6-.1.8-.2.8-.1.8-.3,0-.4-.9-.1-2.3-.2-2.3-.2ZM122.5,69.1c.9,0,1.4-.2,1.4-.5,0-.2-.4-.2-1,0-.3,0-1.4.2-2.6.3-2,.2-2.8.3-2.8.6,0,.1,3.6,0,3.9-.2,0,0,.6-.1,1.1-.1ZM103.6,72c0,0,0-.1-.3-.1-.2,0-.4,0-.3.2,0,0,.1.1.3.1.1,0,.3,0,.3-.2ZM120.8,65.9c1-.3,1.5-.4,2.8-.5,1.6-.1,1.9-.2,1.8-.5,0-.2-.2-.2-1.6,0-2.3.2-2.9.3-3.1.6-.1.1-.3.2-.4.2-.2,0-.2.2,0,.3,0,0,.3,0,.4,0ZM113.2,73.6s0,.2.1.3c.2.2,1.3.2,1.3,0,0-.1-1.3-.4-1.4-.2ZM89.8,68.9c0-.1,0-.2-.1-.2-.2,0-.4.2-.2.3.2.1.3,0,.4-.1ZM87.5,72.8c-.5,0-1.1.2-1.4.3-.3,0-1.9.2-3.5.4-3.5.2-3.9.3-4,.9,0,.4,0,.4-.7.4-.6,0-1.7.2-1.7.5,0,0,.2.1.4.1,1.3,0,2.9-.3,2.9-.6,0-.1,0-.2.2-.2,0,0,1.1-.1,2.2-.3,1.1-.2,2.5-.4,3.2-.5.6,0,1.5-.2,2-.3.5-.1,1.1-.2,1.5-.3.4,0,.7-.2.7-.3,0-.2,0-.2-.4,0-.3,0-.8.2-1.3.2ZM79,70.8c.3,0,.5,0,.4-.2,0,0-.2-.1-.4-.1-.2,0-.3,0-.3.3,0,.3,0,.3-.4.2-.1,0-.7-.1-1.2-.2-.7,0-1,0-1.1.2-.1.2-.1.3.1.4.1.1.4.2.5.2.1,0,.3,0,.3.1.1.2,1.3,0,2-.2.4-.2.4-.2.2-.3-.2-.2-.3-.3-.1-.3ZM94.9,69.7c0-.2,0-.2-.4-.1-.2,0-.4.2-.5.2,0,0,0,.1.4.1.4,0,.5,0,.5-.2ZM91.7,72.1c-1.3.1-2.1.3-2.1.5,0,0,.1.1.2.2.1,0,.3,0,.4,0,.1,0,.7-.2,1.3-.2,1.2-.2,2.4-.5,2.6-.7.2-.2-.5-.2-1.1,0-.2.1-.9.3-1.5.3ZM76.8,73.4c.2.2.4.3,1.1.2.5,0,.9-.1,1.1-.3.1-.1.3-.2.5-.2.1,0,.2,0,.2,0,0,0-.4,0-.8,0-.4,0-.7,0-.7,0,0,0,0-.1.1-.1,0,0,.6,0,1.3-.1,2.9-.3,4.4-.4,5.1-.6.4,0,1.4-.3,3.1-.6.3,0,.5-.2.6-.2,0,0,.5-.2,1-.3,1.6-.3,3.3-.7,3.5-.9.2-.2,0-.2-.5-.2-.4,0-.9.1-1.2.3-.3.1-1,.3-1.7.3-2.1.1-4.2.4-5,.6-.4.1-.8.2-.8.2,0,0-.4,0-.8.2-.4.1-1.1.3-1.7.3-.6,0-1.2.2-1.4.3-.6.3-1.4.4-1.9.3-.6-.2-1.9-.2-2,0,0,.3.2.8.5.8.1,0,.3.1.5.3ZM72.1,67.4c-.2,0-.2,0-.2.2,0,.1,0,.2.2.2.3,0,.3-.3,0-.4ZM101.4,70.2c-.3,0-1,.1-1.5.2-.5,0-1.3.2-1.7.3-.9.1-1.9.5-1.7.7,0,.1.2.1,1.3,0,.8-.2,2.1-.4,3.8-.6,2.1-.3,3.1-.6,3.2-.9,0-.2-.4-.2-2.1.2-.3,0-.8.1-1.2.2ZM75.5,66.7s0,0-.1.1c0,0,0,.1,0,.1,0,0,.1,0,.1-.1,0,0,0-.1,0-.1ZM104.9,67.9c-.5.1-.5.1-.2.2.2,0,.5,0,.6,0,.1,0,.4,0,.5,0,.1,0,.3,0,.3-.1,0-.2-.5-.1-1.2,0ZM106,69.6c-1,.3-1.1.3-.9.4h0c.2.1,2.1-.3,2.3-.5.2-.2-.5-.2-1.4,0ZM111.2,66.7c0,0-.6.2-1.1.4-.5.1-1,.3-1.1.4,0,0-.3.2-.5.3-.3.1-.2.1.5,0,.5,0,1.6-.2,2.5-.3,1.2-.1,1.6-.2,1.6-.3,0,0,0-.2,0-.3,0,0,.1-.2,0-.2-.1-.1-1.8,0-1.9.1ZM82.1,79.1c0,0,0-.1-.2-.1,0,0-.1,0,0,.1,0,0,.1.1.2.1s0,0,0-.1ZM107.9,70.5c-.2,0-.8.1-.8.3,0,0,.2.1.4.1.2,0,.4,0,.5.1,0,0,.3,0,.6,0,.3,0,.8-.1,1.3-.2.4,0,1.2-.2,1.8-.3.6-.1,1.1-.1,1.1,0,0,0,.1,0,.2,0,0,0,.6-.2,1.1-.3,1.4-.3,2.3-.6,2.2-.8,0-.2-.2-.2-1.6.2-.7.2-1.3.3-1.4.2-.1,0-.3,0-.3,0,0,0-.5,0-1,.1-.5,0-1.6.2-2.4.4-.8.1-1.5.2-1.6.2ZM83.7,77.5c0,0-.1-.2-.2-.2s-.2,0-.2.2c0,.1,0,.2.2.2.2,0,.3,0,.2-.2ZM83.4,79.8c-.5,0-.9,0-.9.2,0,.2.7.1,1.3,0,.3,0,.2-.1-.5-.1ZM82.2,80c0,0-.1,0-.1,0,0,0,0,.1.1.1,0,0,.1,0,.1,0,0,0,0,0-.1-.1ZM70.6,67.7c-.7.2-.7.2-.5.3h0c.2.1.8,0,.9,0,.2-.2-.1-.3-.4-.3ZM122.6,72.5c0,0,.1.1.1.1,0,0,0,0,.1-.1,0,0,0-.1-.1-.1-.1,0-.2,0-.1.1ZM196.3,64.9c0-.2-.4-.3-.5-.2,0,0,0,.1,0,.2h0c.1.2.5.2.5,0ZM191.7,66.6c.1.2.6.1.6,0,0,0,0-.1-.2-.2-.2,0-.5,0-.4.2ZM198.9,62.2c.2.1.6,0,.5-.2-.1-.2-1.1-.3-2.2-.3-.5,0-1.3,0-1.7,0-.4,0-1.5,0-2.4,0-.9,0-1.8,0-2,0-.2,0-.3,0-.5.2l-.3.3h.7c1.2.2,2,.2,3.3.2.7,0,1.3,0,1.4.1.2,0,.5,0,1.1,0,1-.3,1.9-.3,2.1-.2ZM197.6,62.6c0,0,.2.1.4.1.1,0,.3,0,.3-.2,0,0-.2-.1-.4-.1-.2,0-.3,0-.3.1ZM193.1,66.8c.1.1.5,0,.6-.2,0-.1,0-.2-.3-.2-.3,0-.4.2-.2.3ZM87.1,75.8c0,.1,0,.2.2.2.3,0,.3-.3,0-.4-.2,0-.2,0-.2.2ZM190,66.5c0,0,.3.1.7.1.5,0,.6,0,.4-.1-.4-.2-1-.1-1,0ZM173.6,69.2c.2.3,1.3.3,1.2,0,0,0-.4-.2-.7-.2-.6,0-.6,0-.5.2ZM189,66.4c0,0,0,.1.1.1,0,0,.1,0,.1,0,0,0,0,0-.1-.1,0,0-.1,0-.1,0ZM188.9,61.3h-.5s.4.2.4.2c.4.2.7.2.7,0,0,0-.3-.2-.5-.2ZM173.5,64.6c.3,0,.6,0,.6-.2,0,0-.3-.1-.5-.1-.3,0-.6,0-.6.2,0,0,.2.1.6.1ZM159.6,67.2c1,0,3.1-.1,4.7-.1,1.6,0,3.5,0,4.1-.1,2.3-.1,3.8-.1,4,0,0,0,1,0,2,0,1.3,0,2.1,0,2.6,0,.4,0,.8,0,.8,0,0,0,.6-.1,1.2-.1.5,0,1.9,0,3,0,1.1,0,2.1,0,2.2,0h0c.1,0,.4.1.7,0,.8,0,.6-.3-.4-.5-.9-.2-1.5-.2-5.5-.2-1.6,0-3,0-3.2,0-.2,0-.5,0-.8,0-.3,0-.7.1-1,0-.3,0-1.9,0-3.7,0-2.5,0-3.3.1-3.4.2,0,.1-.1.1-.3,0-.1-.1-.6-.1-1.3-.1-1.5,0-2.4.1-4.5.1-1.7,0-2.9.2-3.1.5,0,0,.5.1,1.7,0ZM170.4,69c0,0,0,.1,0,.1,0,0,.1,0,.1-.1,0,0,0-.1,0-.1s0,0-.1.1ZM170,62.5s0,0,0-.1c0,0,0-.1-.2-.1,0,0-.1,0,0,.1,0,0,.1.1.2.1ZM173.8,65.6c.6,0,1.1,0,1.1,0,.1,0,1,0,1.8,0,.4,0,1,0,1.3-.1.3,0,.8-.2,1.2-.3.4,0,.8-.1.9-.2.2-.1-.2-.1-1.1,0-1.5.2-3.6.2-4.6.2-.5,0-.8,0-1.2.2l-.5.3h1ZM177.4,62c0,0-.2-.1-.4-.1-.2,0-.3,0-.3.1,0,0,.2.1.4.1.2,0,.3,0,.3-.1ZM183.3,65.3c0,.3.2.3,1.6.3.8,0,1.6,0,1.9.1.3,0,.5.1.6.1.1-.1,1.7-.2,2.4,0,.5,0,.7,0,.9,0,.1-.1.2-.1.4,0,.1,0,.3.1.3,0,0,0,.3,0,.5,0,.2,0,.7.1,1.1.1.4,0,.8,0,.8,0,.1.2.3.1.4,0,0,0,.3-.1.5,0,.2,0,.4,0,.5,0,0,0,.2-.1.3,0,.2.1.3,0,.9-.1.1,0,0-.1-.4-.2-.5-.1-1.3-.2-4-.3-2.7,0-3.6,0-5.7-.2-2.4,0-3,0-3,.2ZM181.1,64.9c0,0-.2-.1-.3-.1-.1,0-.2,0-.2.1,0,0,.1.1.3.1.2,0,.2,0,.2-.1ZM141.7,71.5c0,0,.1.1.4.1.3,0,.4,0,.3-.2,0,0-.2-.1-.3-.1-.1,0-.3,0-.3.2ZM134.2,68c.3,0,1.2-.2,1.9-.2.9-.1,1.2-.2,1.3-.3,0-.1.1-.2.2-.1,0,0,.2,0,.3,0,.1-.1.5-.2.5,0,0,0,.2,0,.3,0,.4-.2.4-.5,0-.5-.6,0-2.4.5-2.6.6-.1.1-1.6.4-2.6.4-.3,0-.3,0-.1.2.1.1.4.2.8.1ZM137.3,71c0,.1,0,.2.1.2,0,0,.1,0,.1-.1,0,0,0-.2-.1-.2,0,0-.1,0-.1.1ZM139.2,70.7c-.2,0-.6,0-.7,0-.4-.2-.6-.2-.6,0,0,.2.5.4.7.3,0,0,.2,0,.3,0,.2.1,1,0,.9-.2,0,0-.3-.1-.5,0ZM123.2,72.6c0,0,.1.1.2.1,0,0,0,0,0-.1,0,0,0-.1-.2-.1,0,0-.1,0,0,.1ZM143.1,71.5c.3.2.6.1.6,0,0,0-.2-.1-.4-.1-.3,0-.3,0-.2.1ZM124.3,72.2c0,.1.2.2.5.2.3,0,.6,0,.7,0,.2,0,.4-.2.2-.3,0,0-.4,0-.8-.1-.5,0-.7,0-.7.1ZM126.5,71.8c-.3,0-.5.1-.5.2.1.2,1.5,0,1.6-.2,0-.2-.3-.2-1.1,0ZM131.2,71.6c0,0,.2.1.3.1.1,0,.2,0,.2-.1,0,0-.1-.1-.3-.1-.2,0-.2,0-.2.1ZM163.2,69.1c-.5,0-.4.3,0,.3.2,0,.7,0,1,0,.8,0,.7-.3-.1-.4-.3,0-.7,0-.9,0ZM154.6,65.7c-.3.1-.9.2-1.4.3-1,0-1.3.1-1.1.4,0,.1.6,0,2.7-.2.7,0,.8-.2.8-.4,0-.3-.3-.3-.9,0ZM167.2,65.2c-2.5.2-4.6.2-5.4.1-1,0-1.7,0-1.1.2.1,0,.5,0,.8,0,.3,0,.6,0,.7.2.1.1.8.1,2.8,0,1.5,0,2.7-.1,2.8-.2,0,0,.6,0,1.2,0,2.1,0,3-.1,2.9-.3-.1-.1-3.2-.2-4.6-.1ZM159.3,65.5c-.2,0-.9.1-1.6.1-1.4,0-2.1.2-2.1.3,0,0,.1.1.2.2.1,0,1,0,1.9,0,1.3,0,1.7,0,1.8-.2.2-.3,0-.5-.3-.4ZM159.1,68.6c0,0,0,.1.1.1,0,0,.1,0,.1-.1,0,0,0-.1-.1-.1,0,0-.1,0-.1.1ZM154.3,64.4c-1.8,0-5.3.2-7.9.3-1.6,0-2.2,0-2.5.3-.3.2-.4.2-.6,0-.4-.3-1,.3-.7.6,0,0,.8,0,1.6,0,.8,0,3.4-.2,5.6-.4,4.3-.3,5.3-.4,5.6-.6.3-.2,0-.3-1.3-.2ZM148,69.9c0,0,.2.1.5.1.3,0,.4,0,.2-.1-.3-.2-.7-.1-.7,0ZM149.7,70c-.1.1,0,.2.3.1.4,0,.4,0,.1-.2-.2,0-.3,0-.4,0ZM141.7,67c0,0,.5.1,1.1.1,1.3,0,2.8,0,3.8-.2.4,0,1.4-.2,2.2-.2,1.4-.1,1.8-.2,1.6-.4-.2-.2-2.9-.1-3.5.1-.3.1-1.1.2-1.7.2-.6,0-1.5,0-1.8,0-.8,0-1.7.2-1.6.3ZM175.8,69.2c0,0,0,.1,0,.1,0,0,.1,0,.1-.1,0,0,0-.1,0-.1,0,0,0,0-.1.1ZM21.8,50.9c0,0,.2,0,.1-.1,0-.2-1.4-.1-1.3,0,0,0,0,.2.1.3,0,0,.3,0,.5,0,.2,0,.5-.1.6-.1ZM174.3,16.9c.1,0,.2,0,.2-.1,0,0,0-.1-.1-.1,0,0-.2,0-.2.1,0,0,0,.1.1.1ZM116.8,5.3s0,0,0-.1c0,0,0-.1-.2-.1,0,0-.1,0,0,.1,0,0,.1.1.2.1ZM21.6,52.3c0,0,.1.1.2.1,0,0,.2,0,.2-.1,0,0,0-.1-.2-.1-.2,0-.3,0-.2.1ZM180.6,27.4c0,0,.1.1.2.1.1,0,.2,0,.2-.1,0,0-.1-.1-.2-.1-.1,0-.2,0-.2.1ZM184,27.8c0,.1.2.2.3.2.4,0,.4,0,.6-.1.1-.2,0-.2-.2-.3-.5-.1-.8,0-.7.1ZM181.6,26.8c0,0,0,.1.1.1,0,0,.1,0,.1,0,0,0,0,0-.1-.1,0,0-.1,0-.1,0ZM178.8,26.7c.1,0,.2,0,.2-.1,0,0,0-.1-.1-.1,0,0-.2,0-.2.1,0,0,0,.1.1.1ZM22.5,56.2c.1-.2.6-.3,1.8-.6.5-.1,1.8-.6,2.1-.7.2,0,0-.1-.4,0-.4,0-.8,0-.8,0,0,0-.2,0-.5,0-.4.2-2.1.4-2.1.2,0,0,.3-.2.8-.3,1.3-.4,2.1-.6,2.1-.8,0,0-.2-.1-.5,0-.2,0-1.1.2-2,.2-.8,0-1.6.1-1.7.2-.2.1-.2,1.5,0,1.8,0,.1.3.2.4.3.4.1.5,0,.7-.1ZM27.1,53.4c0-.2-.4-.1-.8.1-.4.2-.3.3.4.1.2,0,.4-.2.4-.2ZM25.8,59c0,0,0,.1,0,.2.3.2.7.1,1.1-.1.3-.2.3-.2,0-.2-.4,0-1.1,0-1.2.2ZM24.3,61.3c0,.1,1,0,1.2-.2,0,0,0-.1,0-.2-.2-.1-1.3.2-1.2.4ZM26.7,64c0,0-.2,0-.2,0,0,0,0,.1.1.1.2,0,.3,0,0-.2ZM29,63.3c-.2,0-.3.1-.3.2,0,.1.2.1.5,0,.3-.1.1-.3-.3-.2ZM27.8,58.5c-.2,0-.3.2-.1.3h0c.1.1.3,0,.3-.2,0,0,0-.1-.2-.1ZM24,61.7c.3-.2.3-.2-.5-.2-.8,0-1.2.2-.5.3.6,0,.7,0,1.1-.1ZM24.9,64.7c-.2,0-.7.2-1.1.2-.8.1-1,.2-.5.5.3.1.6,0,1.2-.3.2-.1.5-.2.6-.2.1,0,.2,0,.2-.2,0,0-.1-.1-.3,0ZM23.7,63.1c0,0,.3-.2.5-.2.2,0,.4,0,.5-.1,0,0-.2,0-.6,0-.4,0-.8.1-.9,0-.2,0-.2,0,0,.1.3.2.5.2.6,0ZM181.6,26.7c.7,0,1.2,0,1.6.2.8.3,1.6.3,1.9,0,.2-.2.2-.2.3,0,0,.4.4.3.4-.1,0-.3,0-.3-.9-.2-.6,0-.9,0-.9,0,0,0-.1-.1-.3,0-.2,0-.4,0-.6-.1-.2-.1-.7-.2-1.2-.2-1.3,0-1.4,0-1.4.2,0,.1.3.2,1,.1ZM224.2,40.2c-.2-.1-.4,0-.3.2,0,0,.1.1.2.1.2,0,.3-.3.1-.3ZM241.6,42.6c0,0,.2.1.4.1.2,0,.2,0,.2-.1,0,0-.2-.1-.4-.1-.2,0-.2,0-.2.1ZM241.5,44c.2-.1.2-.1,0-.1-.1,0-.5-.1-.8-.2-.3-.1-.9-.3-1.3-.3-1.1,0-4.6-.6-5.4-.8-1.1-.3-2.3-.5-3-.5-.4,0-.8,0-.8-.1,0,0-.3,0-.6,0-.3,0-1,0-1.6-.1-3.7-.6-3.6-.6-4.8-.6-.6,0-.8,0-.8.2,0,.2,0,.2,2,.5,2.6.3,4,.5,4.9.6.5,0,1.7.2,2.5.3.8.1,1.6.2,1.6.2,0,0,.1.1.2.3,0,.2.2.3.5.2.3,0,.5,0,.6,0,.1,0,.5.2.9.3.8.1,3.8.4,4.6.4.3,0,.6,0,.6.1h0c.1.1.2,0,.5,0ZM225,40.6c.2-.1,0-.3-.4-.3-.3,0-.3,0,0,.2.1.1.3.2.4.1ZM242.5,42.7c0,0,0,.2.2.2.2,0,.4,0,.4-.1,0-.2-.6-.2-.6,0ZM240.6,40.8c.3.3.8.5,1.2.5.2,0,.4,0,.4.1,0,0,.2.1.5.2.2,0,1.1.2,1.8.3.8.1,1.6.3,1.9.3.3,0,.9,0,1.4.2.6.1.9.1,1.1,0,.2-.1.3-.1.3,0,0,.2,1.5.5,3.7.8.3,0,.6,0,.7,0,0,0,0,0,0-.2,0-.3-1.8-1-2.9-1.3-1.7-.3-3.6-.6-4.2-.7-.3,0-.8-.1-1-.2-.9-.2-3.8-.6-5-.6-1.4,0-1.9.2-.8.3.4,0,.8.1.9.2ZM189.2,25.3c.1,0,.2,0,.1-.1,0,0-.2-.1-.3-.1-.1,0-.2,0-.1.1,0,0,.2.1.3.1ZM244.6,43.1c-.2.2,0,.3.5.3.2,0,.5,0,.5.1.1.1,1.1,0,1.1,0,0-.2-2-.5-2.1-.4ZM226.6,40.7c-.2-.2-.9-.2-.9,0,0,0,.1.1.3.2.6,0,.7,0,.5,0ZM189.1,27.2c.2,0,.5,0,.6,0,.1,0,.3,0,.5.1.2,0,.4,0,.6,0,.3,0,.3,0-.2-.2-1.9-.3-2.3-.3-2.1,0,0,0,.3.1.5,0ZM70.7,62.2c.5-.2.3-.4-.3-.4-.2,0-.5,0-.6,0,0,0-.3,0-.4,0-.2.1-.2.2,0,.3.1,0,.3.2.5.2.4,0,.5,0,.8,0ZM228.3,41.1c.5,0,1.2,0,1.4.1.5.1.7.1.7,0,0,0-.5-.2-1.2-.3-.7,0-1.4-.2-1.6-.2-.3,0-.4,0-.3.2,0,.2.2.2,1,.2ZM186.6,27.8s0,0,.1,0c.1,0,.2.1.3.3,0,.1.2.3.4.3.2,0,.3,0,.4,0,0,0,0,0,0-.2,0-.2-1.1-.7-1.2-.6ZM187.3,27c.9.1.9.1.9,0,0-.2-.6-.3-1.3-.3-.7,0-.4.2.4.3ZM194.6,28.8c0,0,.1.1.2.1,0,0,.2,0,.2-.1,0,0,0-.1-.2-.1-.2,0-.3,0-.2.1ZM241,42.5c0,0,0-.2-.2-.2-.2-.1-.6,0-.5.2.1.2.6.2.6,0ZM190.5,25.6c2,.1,3,.3,3.5.7.8.5,1,.6,1.2.4,0-.2.2-.2.9,0,.4,0,.9.1,1.2.1.2,0,.9.1,1.4.2,1.8.3,2.1.4,3.5.6.8,0,1.5.2,1.7.3.2,0,.5.1.7.2.2,0,.4.2.4.3,0,0,0,.2.1.3,0,0,.1,0,0-.1,0-.3.2-.3.3,0,0,.2,2.7.6,3.1.5.1,0,.4,0,.7,0,.2.1.5.1.7,0,.2,0,.4,0,.4.1,0,.1.2.2.4.2.5,0,1.1,0,1.2.1.1.1.9,0,.9,0,0,0-.2-.2-.4-.3-.2,0-.4-.3-.4-.5,0-.4-.2-.5-3.2-.9-.5,0-.9-.2-1-.3-.2-.1-2.9-.6-5.5-1-.8-.1-1.7-.3-2-.3-.7-.1-3.5-.5-4.2-.6-.3,0-.6,0-.6-.1,0,0-.4,0-.8-.1-.4,0-.9-.1-1.2-.2-.3,0-1.2-.1-2-.1-1.3,0-1.4,0-1.5.2-.1.3,0,.4.5.4ZM189.3,28.1c0,0,0,0,.2,0,.2,0,.3,0,.2,0,0,0-.3,0-.3,0ZM50.3,72.2c-.7.1-.8.2-.8.4,0,0,.1.1.3,0,.2,0,.5-.1.7-.1.3,0,.4,0,.4-.2,0-.2-.1-.2-.6-.1ZM48.7,68.9c.1,0,.2,0,.2-.1,0,0,0-.1-.2-.1-.1,0-.2,0-.2.1,0,0,0,.1.2.1ZM48.9,72.6c-.3,0-.4,0-.4.2,0,.1.1.2.4.1.2,0,.4-.1.4-.2,0,0-.2-.1-.4-.1ZM53.2,71.5s0,0-.1.1c0,0,0,.1,0,.1,0,0,.1,0,.1-.1,0,0,0-.1,0-.1ZM51.3,72c-.2,0-.3.2-.1.3.1.1.3,0,.3-.2,0,0,0-.1-.2-.1ZM50.7,58.7c-.7,0-2.3,0-2.9.2-.6.1-.6.2-.5.8.1.3.2.4.7.1.2,0,.6-.2.9-.2,1.2-.2,2.2-.4,2.5-.5.3-.1.5.1.2.3,0,0,0,0,.3,0,.4,0,.4,0,.5-.4v-.4s-.7.1-.7.1c-.4,0-.9.1-1,.1ZM50.3,59.7c0,0-.2,0-.4,0-.2,0-.7.1-1,.1-.6,0-.8.1-.7.3,0,0,.2,0,.3,0,.1,0,.6-.1,1-.2.4,0,.8-.2.8-.3ZM48.8,61.1c-.3,0-.4.2-.4.3,0,.2.4.2,1,0,.4-.2.5-.6.1-.4-.1,0-.4,0-.6.1ZM53.3,67.6c0,0,0,.1.2.2.2,0,.5,0,.4-.2-.1-.2-.6-.1-.6,0ZM62.7,69.4c-.1,0-.2,0-.3.1,0,0,0,.1.3.1.2,0,.3,0,.3-.2,0,0-.2-.1-.3-.1ZM63.8,69.4c.1.1.5,0,.5-.2,0,0-.1-.1-.3-.1-.3,0-.4.2-.2.3ZM50.5,62.8c-.1.1-.2.2-.1.2.3,0,2.3-.5,2.3-.6.2-.2-2,.2-2.2.4ZM60.7,69.8c-.3.2-.3.2,0,.3.3,0,.8-.1.7-.3,0-.2-.4-.1-.7,0ZM66.9,68.7c0,.1.7.1.8,0,0,0,0-.2,0-.2-.2,0-.7,0-.7.2ZM60,69.9c-.1,0-.2,0-.2.1,0,0,0,.1.1.1,0,0,.2,0,.2-.1,0,0,0-.1-.1-.1ZM54.6,67.4c0,0,.3,0,.5,0h.4c0,0-.3-.2-.3-.2-.4-.1-.9,0-.6.2ZM58.3,70.3c-.3.1-.5.3-.5.3,0,.1.9,0,1.1-.1.1,0,.2-.2,0-.3-.1,0-.3,0-.7,0ZM45.2,70.3c0,.2,0,.2.5,0,.2,0,.3-.2.3-.2-.1-.1-.8.1-.8.3ZM38.5,75c-.9,0-1.1.1-.9.4.2.2,1.4,0,1.6-.2.2-.2.2-.2-.7-.2ZM39.3,71.9c0,0,0,.1,0,.1,0,0,0,0,.1-.1,0,0,0-.1,0-.1,0,0-.1,0-.1.1ZM37.8,72c0,0-.2-.1-.3-.1-.2,0-.3,0-.3.1,0,.1.6.1.6,0ZM40,71.6c-.2,0-.3,0-.3.2,0,0,.1.1.3.1.2,0,.3,0,.3-.1,0,0-.1-.1-.3-.1ZM35.5,60.7c0,0,0-.2,0-.2,0,0,.1-.1.1-.2,0-.1-.5-.7-.6-.7-.2,0,0,.8.2,1,.3.3.4.3.3.1ZM40.6,74.7c0,0-.1,0-.1.1,0,0,.1.1.2.1.1,0,.2,0,.1-.1,0,0-.1-.1-.2-.1ZM38,70.5c0-.1-.6-.1-1,0-.2,0-.2.1,0,.2.3.2,1.1,0,1.1-.2ZM38.8,71.4c.1-.2-.8-.4-1.3-.3-.4,0-.5.2-.3.4.1.1,1.5,0,1.6,0ZM44.4,73.7c-.1,0-.5.1-.7.2-.6.1-1,.3-.9.5,0,.2.5,0,1.3-.3.3-.1.6-.3.6-.4,0,0-.1,0-.2,0ZM33.6,57.9c-.3,0-.4,0-.3.1.2.1.7,0,.7,0,0,0-.2,0-.4,0ZM45.5,73.6c0,0,.1.1.3.1.2,0,.2,0,.2-.1,0,0-.2-.1-.3-.1-.1,0-.2,0-.2.1ZM42.2,71.2c0,0,0,.1,0,.1,0,0,.2,0,.2-.1,0,0,0-.1,0-.1,0,0-.2,0-.2.1ZM49.5,65.2c.1,0,.2,0,.2-.2,0-.1-.3-.1-.8,0-.9,0-3.4.7-3.6.9,0,0-.4.2-.7.2-.3,0-.6.1-.7.2,0,0-.3.1-.5.2-.2,0-.8.2-1.3.3-.9.3-2.6.4-2.6.2,0,0,.2-.2.4-.2.5-.1.9-.5.8-.7-.1-.2-2.5,0-3,.2-.2,0-.4,0-.6,0-.1,0-.4,0-.7,0-.4,0-.4,0-.4.7,0,.3,0,.7,0,.9-.1.5.4,1,1.1,1,.3,0,.7,0,.9,0,.2,0,.6-.2.9-.2.3,0,.6-.2.6-.3,0-.1.2-.2.5-.1.2,0,.4,0,.5,0,0,0,.3-.2.7-.3.3,0,.7-.2.8-.2.4-.3,1.5-.6,2-.6.3,0,.7-.1,1-.2.3-.1.8-.2,1-.3.3,0,.6,0,.7-.2.3-.2,1.4-.5,2-.6.3,0,.6-.2.7-.2,0,0,.2-.1.4-.1ZM46.6,73.1c-.2,0-.3.1-.4.2,0,.1,0,.2.3.1.2,0,.3-.1.4-.2,0-.1,0-.2-.3-.1ZM43.7,70.8l-.5.2h.5c.5-.2.6-.3.5-.4,0,0-.3,0-.5.2ZM51.5,59.8c-1.2.2-1.4.4-.4.4h.8s-.4.2-.4.2c-.2.1-.4.3-.4.4,0,0,0,.1.2,0,.1,0,.4-.1.7-.2.6-.1.6-.2.5-.6,0-.3-.1-.3-.9-.2ZM44.4,67.8c0-.1,0-.2-.3-.1-.2,0-.5.1-.8.2-.2,0-.4.2-.4.2,0,.1.8.1,1.2,0,.2,0,.3-.2.3-.3ZM207.1,58.6c-.4-.1-1-.1-1.6,0-1.2.1-1.1.1-2.1,0-.8,0-.9,0-.8.2,0,.2.2.3.7.4.4,0,.8,0,.9,0,.1-.1.2-.1.4,0,.2.1.5.2,1.9.2,0,0,.3,0,.4.2.1.1.5.2,1.1.2.5,0,1.5,0,2.2.2,1.4.2,1.6.2,1.6-.2,0-.1,0-.2.1-.2,0,0,.1,0,.1.1,0,0,.2.1.5.1.3,0,.6,0,.8.2.1.1.4.2.6.2.3,0,.3,0,.2-.1-.4-.2.2-.4.7-.2.5.2,1.3.2,3.2.2.8,0,1.4,0,1.5,0,0,0,.4,0,.8.1.4,0,.9.1,1.2.2.3,0,.7,0,.8,0,.2,0,1.6,0,2.4.1,1.8.2,2.3.3,2.4.3.1,0,.6,0,1.1,0,.5,0,.9,0,1,0,.1.1.9,0,.8,0,0-.1-.7-.3-1.3-.2-.5,0-2.2-.3-2.8-.6-.2,0-1-.2-1.9-.3-2.1-.2-3.8-.4-4-.5,0,0-1.1,0-2.3,0-1.7,0-2.4,0-3.1-.2-.5-.1-1-.2-1-.2-.4.3-5.2,0-6.5-.3ZM54,60.1c.7-.1.7-.4,0-.3-.4,0-1.3.4-1.3.5h0s.2,0,.4,0c.2,0,.6-.1.9-.2ZM52.8,62.3c0,0,0,.1,0,.1,0,0,0,0,.1-.1,0,0,0-.1,0-.1,0,0-.1,0-.1.1ZM59,58.3c.1,0,.1-.1,0-.1,0,0-.3.2-.5.4l-.4.4h.5c.5,0,.8-.2.4-.4-.2,0-.2-.1,0-.2ZM67.9,55.9c.2,0,.4,0,.4-.2,0-.2-.4-.2-.7,0-.2.1,0,.1.2.1ZM67.2,53.4c-.3,0-.6.1-.6.2,0,0-.2.1-.4,0-.2,0-.8,0-1.4.1-1.5.3-1.5.3-1.1.6.2.1.3.3.3.4,0,0,.1.1.2.1.5,0,2-.4,2.2-.6.1,0,.4-.2.7-.3.4-.1.6-.3.5-.5,0-.2-.1-.2-.6-.2ZM68.9,49.1c.1.2.2.2.6,0,.2-.1.2-.1-.1-.2-.4,0-.6,0-.4.2ZM255.1,46.9c.1.1.1.2,0,.4-.2.2-.3.3-1.3.2-.6,0-1.5-.1-2-.1-1.1,0-1.9-.1-2.9-.3-.5,0-1.2-.2-1.7-.2-.8,0-2-.1-3.8-.3-.3,0-1-.1-1.6-.2-1.2-.2-6.2-.9-7.6-1-.5,0-1.9-.2-3.3-.4-1.3-.2-2.9-.4-3.4-.4-.5,0-1-.1-1-.1-.3-.1-2.9-.2-3-.1,0,0,0,.2.2.2.5,0,4.2.5,4.5.5.7,0,4.3.6,4.8.7.3,0,.7.1,1.1.2.3,0,.8,0,1.1.1.2,0,.7.1,1,.2.3,0,.6.1.6.2,0,.2,2.1.6,4.5.7,1.2,0,2.2.3,2.4.5.2.1.7,0,.8,0,0-.1.2-.1.4,0,.1,0,.4,0,.5,0,.2,0,1.3.1,2.6.3,1.3.2,2.5.3,2.6.3.2,0,.3,0,.4.2,0,.2.2.3.7.3.6,0,1.6.4,1.6.6,0,.1-1.1,0-2.2,0-.3,0-.6,0-.7,0,0,.1,0,.2,1.4.4.6.1,1.2.2,1.3.2.3,0,.4.7.1,1-.4.4-2.1.6-3.6.3-1.3-.3-1.5-.3-1.5,0,0,0,.2.2.5.2.8.2,1.3.3,1.5.3,0,0,.6,0,1.1.2.9.1.9.2,1,.6,0,.3,0,.5-.2.6-.1,0-.3.4-.3.6-.1.8-.6,1-1.8.9-.5,0-1.1,0-1.3-.1-.2,0-1.1,0-2-.1-1,0-2.1-.1-2.6-.2-4-.4-6.5-.7-7.1-.8-.7-.1-1.7-.2-3.9-.2-1,0-1.3,0-1.3.1,0,0,.3.1.5.1.2,0,.7,0,.9,0,.3,0,.9.2,1.3.2.5,0,.7.2.6.3,0,0-.2,0-.3,0,0,0-.6-.1-1-.2-.5,0-1.5-.1-2.3-.3-.8-.1-1.9-.2-2.4-.3-.6,0-1.1-.1-1.2-.2,0,0-.3,0-.4,0-.1,0-.5,0-.8-.2-.8-.3-2.5-.5-3.5-.5-.5,0-1.8,0-2.8-.1-2.2-.2-3.4-.2-5.7-.4-.9,0-1.8-.2-2.1-.3-.2-.1-.6-.2-.8-.1-.4.1-2.7,0-3.3-.2-.2,0-.9-.1-1.5-.1-1.6,0-2.7,0-3.2-.2-.3,0-.4,0-.3.1,0,.1.4.2.8.3.4,0,.9.2,1,.3.2.1.7.3,1.2.3.7.1.9,0,1.3,0,.4-.2,1-.2,4,.2.5,0,1.4.1,2,.1.6,0,1.3,0,1.5,0,.2,0,.8,0,1.2,0,.4,0,.9.1,1,.2.2.2.3.2.4,0,.1-.2.2-.2.7,0,.3,0,.8.1,1.1,0,.3,0,.6,0,.9.1.2.1.5.2.7.1.2,0,1.1,0,1.9.1.8.1,2.1.2,2.7.2.7,0,1.3.1,1.5.2.2.1.5.2.8.1.3,0,.7,0,1,.1.3.1.6.2.7.1.2,0,1.2,0,1.6.3.1,0,.7.2,1.3.2.6,0,1.2.2,1.4.3.2,0,.4,0,.6,0,.2,0,.3,0,.4,0,0,0,.6.2,1.2.2.6,0,1.6.2,2.1.3.9.2,1.9.3,6.3.8.8,0,2,.3,2.6.4.6.1,1.3.3,1.6.3.6.1.6.1.7.5,0,.3,0,.3-.6.4-1.3,0-4.1-.2-4.4-.4,0,0-.4,0-.7,0-.3,0-1,0-1.5,0-.7,0-.9,0-.8.1,0,0,.4.2.6.2.5,0,1,0,3.2.4,2,.3,2.1.3,1.5.5-.3,0-.7,0-1,0-.3,0-.8,0-1.1,0-.3,0-.8,0-1,0s-.7-.1-1.2-.2c-.4,0-1.5-.1-2.4-.3-.9-.1-1.7-.2-1.9-.3-.2,0-.6,0-1-.1-.7,0-.7,0-.7.2,0,.2.2.3.6.3.3,0,.6.1.7.2.1,0,.6.2,1,.2.4,0,1.1,0,1.4.2.3,0,.9.2,1.2.3.3,0,.7.1.9.2.3,0,1.3.2,2.1.3.2,0,.9,0,1.6.1.7,0,1.4.1,1.7.2.4,0,.4.1-.4.2-.4,0-1.1.1-1.6,0-.7,0-.8,0-.5.1.3.2.5.2-2.6,0-2-.2-3.7-.4-4.2-.4-.2,0-.3,0-.4-.1,0,0-.4,0-.7,0-.3,0-.7,0-.8-.2-.2,0-.6-.2-.9-.2-.3,0-.8,0-1.1-.1-.3,0-1.1-.1-1.7-.1-2.1,0-3.1-.1-4.6-.4-.2,0-.3,0-.3.2,0,.1.1.2.4.2.2,0,.5,0,.8.2.2.1.5.2.5.2,0,0,.2,0,.4.1.2,0,.3.1.4,0,0,0,2.9.2,5.2.5.8.1,2,.3,2.5.3.5,0,1.2.1,1.4.2.2,0,.8.1,1.2.2,1,0,1,.3,0,.3-.8,0-3.5-.3-4-.4-.4,0-1.6-.2-2.2-.2-.6,0-1.1,0-2.6-.2-2.7-.3-3.8-.4-4-.6-.3-.3-1.8-.3-2-.1-.1.3-.5.2-.8-.1-.2-.2-.4-.4-.6-.5-.2-.1-.2-.2-.1-.3,0,0-.2-.1-.6,0-.9,0-1.2,0-2.4-.3-.5-.1-1.6-.3-2.5-.4-4.8-.4-5.7-.5-5.8-.6,0,0-.7,0-1.4,0-.7,0-2,0-2.8-.2-.8,0-1.8-.2-2.2-.2-.3,0-1.4,0-2.4-.2-1,0-2.3-.1-2.9-.2-.6,0-1.2,0-1.4,0-.6-.1-2-.2-3.7-.1-1,0-1.8,0-1.9,0-.2-.1-2.3-.2-3.5,0-.5,0-1,0-1.1,0-.2-.2-2.9-.2-4-.1,0,0-.7,0-1.3,0-.6,0-1.8,0-2.6,0-1.5,0-6.9,0-8.4,0-.5,0-2,0-3.4,0-1.4,0-2.6,0-2.6,0-.2-.2-1-.2-1.1,0,0,0-.5.1-1.2,0-1,0-4.3,0-6.2.2-.4,0-2.2,0-4.1.2-1.9,0-3.5.1-3.5.2,0,0-.1,0-.2,0-.1,0-5.4.1-6.1.2-.2,0-.9,0-1.6.1-.7,0-1.1.1-1.1.2,0,0,.3.1.7,0,.4,0,.8,0,.9,0,.1,0,3.3,0,4.2,0,.2,0,3.9-.2,8.3-.4,9.5-.5,9.7-.5,10.4-.4.5,0,2.3,0,3.8,0,.3,0,1.4,0,2.4,0,1,0,2.7,0,3.9,0,3.8,0,5.8,0,6.4,0,2.3,0,3.5.1,4,.2.3,0,1.3,0,2.2,0,.9,0,2.1,0,2.5,0,.5,0,1.7.1,2.6.1,1.8,0,3.1,0,3.5.1.1,0,1.6,0,2.7,0,.6,0,2.9,0,3,0,.3,0,1.7.4,3,.6.5.1,1.3.2,1.7.2.4,0,.9,0,1,.2.1.1.4.1.7,0,.2,0,.7,0,.9,0,.3.1.6.1.9,0,.5-.2,1.3,0,1.3.2,0,.1-.2.2-.9.2-1.1,0-3.2-.2-3.4-.3,0,0-.4,0-.8,0-.5,0-.7,0-.9-.1-.2-.2-.5-.2-1-.2-.8,0-1.2,0-1.4-.2,0,0-.4-.1-.7-.1-.3,0-.9,0-1.2,0-.4,0-.8,0-.8,0,0,0-.3,0-.6,0-.4,0-.6,0-.7,0-.2.1-.3.1-.5,0-.1,0-.7-.2-1.2-.2-.5,0-1.3,0-1.8-.1-.8,0-1,0-1.3.1-.2.2-.3.2-.3,0,0-.1-.1,0-.3,0-.2.1-.3.2-.4.2,0,0-.8,0-1.7,0-3.4,0-4.4,0-5.3-.4-.6-.2-1.8-.2-6.4-.1-1.3,0-2.7,0-3,0-.4,0-.7,0-.8,0-.3.3-10.9.5-11.4.2-.3-.2-5,0-5.9.2-.4,0-4.5.3-9.1.5-4.6.2-8.5.4-8.6.5,0,0-.4,0-.6,0-.5-.1-4.8.1-5.2.3-.2,0-1.1.2-1.9.3-.1,0-.7,0-1.3,0-2.3,0-4.1.3-3.8.6.2.2,2.4.1,3.3-.1.5-.1.8-.2,1,0,.1,0,.4,0,.5,0,.3-.1,1.2-.2,5.1-.5,1.4-.1,3-.2,3.7-.3,3.2-.2,6.3-.3,9.1-.2,1.4,0,5.4-.1,6.3-.3.7-.1.9,0,1.2,0,.7.4.5.6-.4.8-1.2.2-1.7.2-1.8.2,0,0-.9,0-2,0-3.7.2-7,.5-9.2.6-1.2.1-3.3.2-4.6.3-1.3,0-2.4.2-2.4.2,0,0-2.6.2-3.7.1-.8,0-1.4,0-1.5,0,0,0-.6.2-1.2.3-.6,0-1.4.2-1.7.2-.3,0-.8.1-1,0-.5,0-.8,0-1.4,0-.3,0-.7,0-.8,0-.1,0-.7,0-1.3,0-.9,0-1.1,0-1.2.3,0,.2-.3.3-.4.3-.1,0-.3.1-.4.2-.2.4-1.4.7-3.8.9-1.3.1-2.4.2-2.4.2,0,0,.2-.1.5-.2.6-.2.9-.7.3-.5-.3,0-.4,0-.4-.2,0-.3-.4-.4-.6-.3,0,0-1.2.2-2.4.2-2.6.1-3.4.3-3.4.8,0,.2,0,.3-.2.4-.3.2-3.2.5-3.4.4-.3-.2,0-.3,1.5-.5,1.6-.2,2.1-.4,1.9-.6-.2-.2-1.8,0-2.6.2-.6.2-.9.2-1.2,0-.3-.1-.6-.1-1.1,0-.4.1-1,.2-1.4.1-.4,0-.9,0-1,.1-.2,0-.2.1-.1.1.3,0,.2.2-.2.4-.2,0-.4,0-.6,0-.3-.2-2.4,0-3.9.2-.6.1-1.7.3-2.4.4-.7.1-2.2.4-3.4.6-1.2.2-2.9.5-3.9.6-1,.2-2.4.4-3.2.6-.8.2-1.6.3-1.8.3-.2,0-.4,0-.5.1-.5.3-1.2.5-1.6.3l-.4-.2h.3c.2-.2.3-.3.3-.4,0-.2-.2-.2-1.1-.1-.6,0-1.4.2-1.8.2-.4,0-1,.2-1.4.3-.4,0-.8.2-1,.2-.3.1-.3.2,0,.5.2.3.3.4,1.1.3.7,0,1-.1,1.2-.4.2-.2.4-.3.5-.2.1,0,.3,0,.5-.2.3-.3.4-.3.5,0,0,.2.1.3.3.1.1,0,.4-.1.8,0,.3,0,.8,0,1.1,0,.3,0,.9-.1,1.4-.2.5,0,1.3-.2,1.7-.2,2.1-.3,4.2-.7,5.2-.9.6-.1,1.3-.2,1.7-.2.5,0,.6,0,.6.3,0,.5-.3.5-.4,0v-.3c-.1,0-.2.3-.2.3,0,.2-.2.3-.3.3-1.3.2-2.5.3-2.6.3-.3-.2-.8-.1-.8,0,0,.2-.4.5-1,.6-.2,0-.6.1-.8.2-.3,0-.4,0-.5-.2,0-.2-.2-.3-.3-.2-.4.2-2.6.6-2.8.5,0,0-.9,0-1.8.1-1.5.2-1.7.3-1.9.5-.3.4-.7.5-2.4.7-1,.1-1.1.1-1.3-.2h0c-.1-.2-.3-.3-.5-.2-.4.1-1.1-.6-.8-.8.1,0,.2-.2.2-.3,0-.2-.5-.6-.7-.5,0,0-.2,0-.2,0-.1-1.1-.1-1.4.2-1.4.2,0,.4-.1.5-.2,0,0,.3-.1.5-.1.5,0,.8-.5.7-.9-.1-.4,0-.4.7-.4.4,0,1.2-.1,1.6-.2.4,0,.8,0,.9,0,.1.2,0,.3-.5.3-.7,0-1.5.3-1.5.4,0,0,0,.2.1.3.1.2.3.1,1.1,0,1.5-.4,2-.5,2.4-.5.2,0,.4,0,.5-.2.1-.1.5-.3.8-.3,1.2-.2,2.5-.5,3.6-.7.6-.1,1.9-.4,2.8-.6,2.2-.4,2-.4,2.6-.5.3,0,.8-.2,1.2-.2.4,0,1.1-.2,1.6-.3,1.3-.3,1.7-.3,2.6-.5.5,0,1.2-.2,1.6-.3.5-.1,1-.2,1.2-.2.2,0,1.2-.2,2.1-.3.9-.2,1.8-.3,1.9-.3.5,0,2.9-.4,3-.5,0,0,.4-.1.8-.2,1.4-.2,2.5-.3,3-.4.6-.1,3.7-.5,5.2-.6.6,0,1.3-.2,1.5-.2.2,0,.4,0,.5,0,.1,0,.9,0,1.9-.2,3.3-.4,4.6-.6,5.9-.7.7,0,1.6-.2,2-.2.4,0,1.2-.2,1.9-.2,1.5-.1,2.8-.3,5-.5.9-.1,1.8-.2,2-.2,1.4,0,4.1-.4,4.5-.6.3-.1,1-.3,1.6-.4.6,0,1.2-.2,1.4-.3.3-.2-2.1,0-6.2.2-.8,0-2,0-2.8,0-1.5,0-2.4,0-3.4,0-.3,0-1.1.1-1.7.2-.6,0-1.1.1-1.3.1-.1,0-.3.1-.3.3,0,.4-2.1.9-2.2.5,0,0-.3-.1-.6,0-.3,0-.7,0-.8,0-.2,0-.2,0-.2.1,0,.2-.1.2-.5.3-.3,0-.6,0-.6,0,0,0-.7,0-1.4.2-.7.1-1.6.2-2,.2-.4,0-1,0-1.3.2-.3,0-1.1.2-1.8.3-.7,0-2.2.2-3.4.3-1.2,0-2.2.2-2.4.3-.2,0-.3,0-.5,0-.4-.2-.7-.2-.7,0,0,.1-.2.2-.5.2-.3,0-.9.1-1.3.2-1,.2-2,.4-3.2.5-.9,0-1,0-1.2-.2-.2-.3-.3-.3-.6,0-.8.6-1.4.8-2.9,1-.9.1-1.8.3-2,.4-.2,0-1.1.2-1.9.3-.8,0-1.8.2-2.2.2-.8.1-1,0-.6-.3.1,0,.2-.2.1-.4,0-.2-.1-.2-.4,0-.3.2-.5.2-1,.2-.5,0-.8,0-1.1.2-.2.1-.4.2-.4,0,0-.2-.4-.2-.4,0,0,0-.2.2-.4.2-.2,0-.5.1-.7.2-.2,0-1,.2-1.9.2-1.8.1-2.4.2-3,.5-.2,0-.5.2-.7.2-.2,0-.6.2-1,.3-.4.1-1,.3-1.4.3-.4,0-.8.2-1.3.5-.5.3-.9.5-1.6.5-.5,0-.9.2-1,.3,0,0-.3.2-.4.2-.9,0-1.3.2-1.6.5-.4.4-.9.4-1.2.2,0-.1-.2-.5-.2-.9,0-.8.3-1.4.8-1.2.5.2,2.4,0,6.7-.7.3,0,1.1-.2,1.7-.3.6-.1,1.6-.3,2.3-.4.6-.1,1.3-.3,1.5-.4l.3-.2h-.3c-.2,0-1.1,0-1.9.2-2.3.4-2.9.5-3,.1,0-.2,0-.2.4-.2.7,0,2.1-.3,2.1-.6,0-.1-.1-.2-.3-.2-.6,0-1.8.3-2.2.4-.2,0-.6.2-.9.2-.3,0-.6.1-.8.2-.1,0-.7.1-1.1.2-.7.1-.9,0-.9-.1,0-.2-.1-.2-.3,0-.3.3-.9.5-2.3.6-1.3,0-1.5,0-1.8-.5-.1-.3-.2-.3-1.1-.2-.7,0-.9,0-1,0,0-.1-.2-.1-.4,0-.3.3-1.7.6-3.4.7-.7,0-1.3.2-1.4.3-.1,0-.7.2-1.3.3-.6,0-1.3.2-1.5.3-.2.1-.9.3-1.4.4-.6,0-1.2.2-1.4.3-.2,0-.8.2-1.4.3-1.5.3-1.6.3-2.2.4-.3,0-.6.2-.7.2,0,0-.6.2-1.2.3-.6.1-1.3.3-1.7.3-.4,0-.8.1-.9.2-.1,0-.3,0-.4.1-.6.3-3.9,1-4.2.9-.1,0-.2-.2-.2-.3,0-.2.2-.3,1.1-.5.6-.1,1.2-.2,1.3-.1.1,0,.3,0,.4,0,0,0,.7-.2,1.2-.3.6-.1,1.3-.3,1.5-.3.2,0,.7-.2,1-.3.3,0,.6-.2.7-.3,0,0,.2-.1.3,0,.1,0,.6,0,1-.1.5,0,.9-.2,1.1-.2.5,0,1.1-.3,1.3-.4,0,0,.8-.2,1.7-.2.8,0,1.6-.2,1.7-.2.5-.3,1.4-.5,4-1,1.4-.3,3.1-.5,3.6-.6.6-.1,1.3-.2,1.6-.1.4,0,.7,0,.9-.2.2-.1.4-.2.4-.1,0,0,.3,0,.6,0,.3,0,.4-.2.4-.5,0-.2,0-.4.1-.5,0,0,0-.2,0-.4-.2-.3-.2-.3.4-.9l.6-.6.6.2c.4,0,.8.2,1,.2.5,0,.4.3-.2.5-.3,0-.5.2-.5.3,0,0-.2.2-.3.2-.3,0-.6.3-.6.5,0,.2.5.2.7,0,0-.1.4-.2.7-.2.7,0,1.5-.2,1.7-.3,0,0,.4-.1.6-.1.3,0,.9-.2,1.5-.3.6-.2,1.5-.3,2-.4,1.2-.1,1.3-.2,1.7-.4.2,0,.5-.2.7-.3.2,0,.4-.2.4-.4,0-.3.8-.5,2.9-.7.2,0,.5,0,.5-.1,0,0,.4,0,.8,0,.4,0,1,0,1.4,0,.9-.2,1.2-.3,3.1-.4.8,0,1.7-.2,2-.3.3,0,.9-.2,1.3-.2,1.1-.1,1.9-.3,2.1-.5,0,0,.4-.1.6,0,.5,0,.9-.1.7-.3-.1-.1-.3,0-.8,0-.4.1-.7.1-.9,0-.2,0-.5,0-.9,0-.4,0-.8.2-.9.2-.5,0-1.5.2-1.6.3,0,0-1.3.2-2.7.3-1.4.1-2.8.3-3,.4-.3.1-3.2.6-4.4.8-.3,0-.6.1-.6.2,0,0-.3.1-.5.2-.2,0-.8.1-1.2.2-.5,0-1.1.2-1.5.3-.4,0-.8.1-.9.2-.1,0-.3,0-.4,0-.3-.2-1.4-.2-2.9,0-.9.2-1.4.2-1.7.1-.2,0-.4,0-.5,0-.3.2-1.4.2-1.4,0,0,0,0-.2.1-.2,0,0,0-.1,0-.2-.1-.2-.2-1.1-.1-1.1,0,0,.2-.2.2-.5,0-.3.3-.5.4-.6.1,0,.2-.2.1-.3-.1-.2-1.6,0-2.2.2-.3,0-.7.2-1.1.2-.3,0-.6,0-.6.1,0,0-.3.1-.6.1-.3,0-1,0-1.7.2-1.6.2-1.3,0,.3-.3.7-.1,1.5-.3,1.7-.3.4,0,2.2-.4,2.9-.5.4,0,.6-.2.9-.6.2-.3.5-.5.6-.5.1,0,.3-.2.3-.6.1-.5.2-.6.5-.6.7-.1.8-1,.2-1-.2,0-.3,0-.3-.5,0-.4,0-.5-.4-.5h-.4s.3.1.3.1c.2,0,.3.1.3.2-.1.1-4.4.8-4.5.7,0,0-.2,0-.2,0,0,.1-.4.2-1.2.2-1.6,0-3.3.1-3.4.2,0,0,0,.2.1.3.2.3,0,.3-1.8.4-.6,0-.8,0-.8.2,0,.1-.1.2-.3.2-.4,0-1.5.2-3.5.7-.6.1-1.4.3-1.6.3-.2,0-.6.1-.8.2-.2,0-.5.1-.8.2-.2,0-1.1.2-1.9.4-.8.2-1.7.3-2,.3-.2,0-.4,0-.4.1,0,0-.3.2-.7.3-.7.2-1.4.2-2,0-.2,0-.3,0-.3,0,0,0,.1.2.2.1.4,0,0,.3-.5.4-.3,0-.6.2-.9.2-.2,0-.6.2-.8.2-.2,0-.5,0-.5.1,0,0-.3.1-.5.2-.5,0-1.5.3-2.8.6-.6.1-1.2.3-1.4.4-.2,0-1,.2-1.7.4-.7.2-1.6.4-2.1.5-2,.4-2.7.7-2.3.9.1,0,0,.1-.4.1-.3,0-.6,0-.7.2-.1.2.5.4.9.4.3,0,.4,0,.5.2.2.5.8.6,1.9.3.5-.1,1.2-.3,1.4-.3.2,0,.5,0,.7-.2.3-.2.8-.2,2-.3.3,0,.6-.1.7-.2.1-.1.4-.2.6-.2.2,0,.5,0,.6-.1,0,0,.5-.2.8-.3.3,0,.8-.2.9-.3.2,0,.5-.2.7-.2.7,0,1.7-.2,1.7-.4,0,0,.4-.2.9-.2.9-.1,2.6-.5,3.7-.9,1.3-.4,3.4-.8,4.8-.8.4,0,.8,0,.9-.2.1,0,.5-.2.9-.2.4,0,.9-.1,1-.2.4-.2.4-.2.3.2,0,.3-.2.4-.7.6-.6.2-.7.2-1,0-.2-.1-.4-.2-.4,0,0,.1-1.1.7-1.7.9-.4,0-.5,0-.7-.2-.2-.2-.3-.3-.5-.2-.1,0-.7.2-1.2.3-.6.1-1.1.3-1.2.4,0,.1-.4.2-.8.3-.4,0-1,.2-1.4.3-.4.1-1,.3-1.4.4-.3,0-.7.2-.7.3,0,0-.6.2-1.1.2-.5,0-1.2.2-1.5.4-.3.1-.9.2-1.2.2-.4,0-.7.1-.9.3-.1.1-.4.3-.6.3-.2,0-.5,0-.5.1-.2.1-2,.6-2.8.7-.4,0-.7.2-.6.2,0,0,.3,0,.8,0,.6-.1.8,0,.8,0,0,.4.6.5,1.4.3,1-.3,3.3-.5,3.3-.3,0,.1-.8.5-1.1.5-.1,0-.3,0-.4.2-.5.5-.9.7-1.3.6-.2,0-.5,0-.5,0,0,0-.3,0-.5,0-.3,0-.7,0-1.1.1-.4.1-.9.3-1.2.3-.5,0-2.2.4-2.4.5,0,0-.2.2-.2.4,0,.3,0,.4.2.6.3.2.3.2-.2.4-.3.1-.6.2-.7.2-.1,0-.4.2-.6.4-.6.7-.8.8-1.4.3-.5-.3-1-1.1-.8-1.3,0,0,.9.1,1.4.4.2.1.4.1.5,0,0,0,.2-.1.3,0,.4,0,.7-.2.6-.6-.1-.3-.5-.4-.7,0,0,.2-1,.4-1.1.2,0,0-.2-.1-.4,0-.5,0-.7-.2-.8-.7,0-.3,0-.6.2-.9l.3-.4.5.4c.6.5,1,.2.5-.5-.1-.2-.1-.3,0-.5.5-.6.5-.7.4-1.1-.1-.6-.3-.7-.4-.3,0,.2-.2.3-.4.3-.4,0-.5-.2-.4-.5.2-.3,0-.6-.5-.6-.3,0-.3,0,0,.3.3.3.3.4,0,.4-.4,0-.7-1.1-.4-1.3,0,0,.1-.2.1-.3,0-.5,0-.6.3-.5.1,0,.4.1.6.1.2,0,.3,0,.3-.4,0-.5-.2-.6-.6-.4-.2,0-.4,0-.6,0-.2-.2-.3-.1-.8.2-.7.5-2.6,1-3,.9-.2,0-.5,0-.6.1-.2.1-.4.1-.6,0-.3-.2-.4-.2-1,0-.4.2-.7.2-.7.1-.1-.2-1.3,0-2.5.4-.5.1-1.1.3-1.3.3-.7.1-.6.4.1.3.6,0,1,0,.8.3-.2.3-1.3.8-2.3,1-.3,0-.5,0-.8-.2-.3-.2-.4-.4-.4-1,0-.7,0-.8.2-.7.1,0,.4,0,.6-.1.2,0,.8-.2,1.4-.2.7,0,1.2,0,1.3-.2.1-.1.8-.2,1.8-.3,1,0,1.8-.2,2.1-.4.3-.1.9-.2,1.6-.3.8,0,1.2-.1,1.3-.3.1-.1.5-.2.7-.3.3,0,.8-.1,1.1-.2.5-.1.5-.2.5-.6,0-.3-.1-.6-.2-.6-.1-.1,0-.4,0-.8.3-.7.3-.7.6-.4.2.3,1.3.2,1.2,0,0-.2,0-.2.3-.1.2,0,.8,0,1.4-.2.8-.2,1.3-.2,2.1-.2.6,0,1.1.1,1.2.2.2.1.6-.3.6-.6,0-.3.3-.5.7-.3.3.2.9.2,1.1,0,0,0,.5-.2,1-.2.4,0,1-.2,1.4-.3.3-.1.9-.3,1.2-.3.4,0,.7-.1.7-.2,0-.2,0-.2-1,0-.5,0-1.1.2-1.5.3-.8.2-1.1,0-.5-.2.3-.1.7-.2.9-.2.2,0,.4,0,.5-.1,0,0,.2-.1.3-.1.3,0,1.8-.2,2.1-.4.3-.1,3.8-1,4.9-1.2.4,0,1-.2,1.4-.3.5-.1.6,0,.5,0,0,.1-.3.3-.6.3-1.8.4-2.4.5-3.1.6-.4,0-.9.2-1,.3-.2.1-.8.3-1.4.3-.6,0-1.1.2-1.3.4-.4.4,0,.7.6.4.4-.2,1-.3,2-.4.3,0,.6-.1.7-.2,0,0,.7-.2,1.4-.4.7-.1,1.4-.3,1.5-.3.3,0,1.9-.4,2.5-.5.2,0,.6-.1.9-.2.3,0,.9-.1,1.5-.2.6,0,1.1-.2,1.2-.3,0,0,.4-.2.6-.2.2,0,1.1-.2,2-.4.9-.2,1.9-.4,2.3-.4.3,0,.7-.1.8-.2.1,0,.7-.2,1.2-.3.6-.1,1.2-.2,1.3-.3.2,0,1-.2,2-.3.9-.2,2-.3,2.4-.4,1.1-.3,2.1-.4,3.5-.5,1.4,0,1.3,0,1.4-.7,0,0,0-.2-.2-.2-.1,0-.3,0-.3-.2-.2-.2-.4-.2-.3,0,0,.1,0,.2-.1.2-.1,0-.2,0-.2-.1,0,0,0-.1-.1-.1,0,0-.1,0-.1.2,0,.1.1.2.3.2.2,0,.2,0,0,.2-.2.1-.3.1-.5,0-.3-.2-1.5,0-2.6.2-1.3.3-2.7.5-3.3.6-.3,0-.6,0-.6.2,0,0-.1.1-.2,0,0,0-.5,0-.9.1-.4,0-1.1.2-1.5.2-.4,0-.9.1-1,.2-.3.2-1,.3-1.3.4-.7,0-.7,0-.6-.2,0,0,.6-.2,1.1-.3.5,0,1.3-.3,1.8-.4.5-.1,1.2-.3,1.6-.3.5,0,.7-.1.8-.3.1-.2.2-.2.4,0,.2.1,1.7,0,4.3-.6.6-.1.8-.3.5-.5-.1-.1-.6,0-1.8.1-.9.1-2.1.3-2.7.3-.6,0-1.3.2-1.6.3-.8.3-1.3.4-2.7.5-.6,0-1.5.2-1.9.3-1.1.2-4.4.9-4.9,1-1.3.2-3.5.7-4.3,1-.1,0-.5.1-.8.2-.3,0-.8.1-1,.2-.9.3-1.9.5-2.4.5-.6,0-2.3.4-2.5.6-.1.1-1.4.5-2.7.8-.2,0-.4.1-.5.2-.1,0-.5.1-.8.2-.3,0-.6.1-.7.2,0,0-.5.2-1,.2-.7,0-1,.2-1.2.4-.2.2-.4.3-.7.3-.3,0-.6,0-.9.2-.2,0-.6.2-.8.2-.2,0-.5.1-.7.2-.2,0-.4,0-.7-.3-.4-.4-.9-.5-1-.2,0,.2-1,.4-1.9.5-.4,0-.4,0-.4-.5,0-.3-.1-.7-.2-.8-.2-.2-.1-.3,0-.7.2-.5.2-.5,0-.6-.4-.1-.5-.3-.3-.7,0-.2.1-.4,0-.5,0,0,0,0,.2,0,.4,0,.9,0,1-.4.1-.4-.2-.5-.6-.2-.5.4-.5.4-.9,0-.4-.3-.3-.6.2-.7.2,0,.4-.1.4-.3,0-.1.3-.2.4-.2.2,0,.4,0,.4-.2,0,0,.2-.1.3-.2.1,0,.3,0,.3-.1,0-.2-.8-.2-1.3,0-.3.1-.4,0-.7-.2-.3-.3-.5-.3-1.2-.3-.4,0-.9.1-1.1.2-.2,0-.6.2-1,.3-.4.1-.8.3-.9.3-.1.1-3,1.1-3.9,1.3-.4.1-1.2.5-1.6.8-.4.3-2.7,1.1-3,1.1-.2,0-.3-.2-.3-.6,0-.6,0-.6.3-.5.8.2.9.2,1-.1.1-.6-.4-1-.7-.6-.2.2-.5,0-.5-.3,0-.1,0-.3-.1-.4,0,0-.2-.5-.3-.9-.1-.8-.1-.8.2-.8.2,0,.4,0,.5.2.2.3,1.1.2,2.6-.3,1.7-.5,1.7-.5,1.4-.2-.1.1-.4.3-.7.3-.3,0-.8.2-1.1.4-.4.2-.7.3-.9.3-.3,0-1.2.4-1.4.6,0,0-.1.3,0,.4.1.3.4.2,3-.6.6-.2,1.2-.4,1.3-.4.1,0,.3-.1.4-.2.3-.2,3.7-1,3.7-.9,0,.1-.9.6-1.4.7-.2,0-.7.2-1,.3-.3.1-.6.2-.6.2,0,0-.2,0-.4.1-.2.1-.8.3-1.2.3-.5,0-1,.2-1.2.3-.2.1-.5.3-.8.3-.5,0-.6.2-.5.4.2.2,1.4,0,2.6-.5.5-.2,2.4-.7,4.3-1.3,1.9-.6,3.5-1,3.6-1.1,0,0,0-.4,0-.8,0-.5-.1-.8-.3-.9-.2-.1-.3-.3-.3-.4,0-.2.6-.5,1.3-.5.7,0,1.1-.2.9-.5,0-.2-.3-.2-1.3-.2-1.4,0-1.9,0-2.7-.8-.6-.5-.6-.5-1.2-.2-1,.5-1.2.5-1.7.5-.3,0-.5,0-.5,0,0,.3-1,.6-4,1.5-.4.1-1,.4-1.2.5-.2.2-.5.3-.8.3-.2,0-.6.1-.8.2-.4.2-.4.2-.6-.1-.2-.2-.3-.6-.3-1.1,0-.4-.1-.9-.2-1.1-.1-.3-.1-.4,0-.5.3,0,.1-.4-.3-1.1-.5-.6-.5-.6-.3-1.4.2-1.2.1-1.4-.4-2.2-.3-.4-.5-.8-.5-.9,0,0,.2-.2.5-.3.3,0,.5-.2.5-.3,0,0-.2-.1-.6,0-.5,0-.6,0-.6,0,0-.2.6-.6.8-.5,0,0,.2,0,.4-.3.3-.3.3-.5.3-1.1,0-.4,0-.8-.1-.9,0-.1-.9,0-1.5.3-.1,0-.3.1-.3.1,0,0-.4,0-.7.2-.5.1-.6,0-.8,0-.1-.1-.4-.3-.6-.3-.3,0-.4-.2-.4-.4,0-.2-.1-.6-.3-.8-.3-.6-.3-.8.2-.8.2,0,.8-.2,1.4-.3.6-.2,2-.6,3.2-.9,1.2-.3,2.4-.6,2.8-.8.4-.1.8-.2,1-.3.4-.1.4-.3-.1-.4-.2,0-.5-.2-.5-.3,0-.1-.3-.3-.5-.4-.4-.2-.6-.2-1.4,0-.5.1-.9.3-.9.3,0,0-.1.1-.2,0-.3,0-1.8.3-2.4.5-.2,0-.6.2-.8.2-.2,0-.7.2-1,.3-.3.1-.8.3-.9.3-.2,0-.4.1-.5.2-.2.1-.5-.2-.8-.7-.1-.3-.4-.5-.7-.6-.3-.1-.5-.3-.5-.5,0-.1,0-.3-.2-.3-.1,0-.2-.2-.3-.4-.1-.3-.9-1.5-1.2-1.8-.1,0-.2-.2-.2-.3,0,0-.2-.2-.4-.3-.4-.2-1.4-1.3-1.3-1.5,0,0,0-.2-.2-.4-.4-.3-.7-1.1-.6-1.6,0-.4.2-.5,1.2-.8.6-.2,1.7-.5,2.4-.7.7-.2,1.8-.5,2.6-.7.8-.2,1.6-.5,2-.6.3,0,1.1-.3,1.8-.5.6-.2,1.5-.4,1.9-.4.7-.1.8,0,.9.2,0,.3.1.3.9.2.4,0,1.1-.2,1.4-.3.3,0,1.2-.3,1.8-.4.7-.1,1.6-.4,2-.5.4-.1,1.4-.3,2.2-.4,1.3-.2,1.5-.2,1.7,0,.3.3.9.2,2.6-.2.7-.2,1.8-.3,2.3-.3.6,0,1.1,0,1.3-.2.2-.1.9-.3,1.8-.3,1,0,10.6-1.9,11.4-2.1,1.3-.3,2-.4,2.3-.3.2,0,.4,0,.6,0,.2,0,.5-.2.8-.2.2,0,.6-.2.8-.2.4-.2,1.9-.3,4.4-.5.9,0,1.7-.2,1.8-.2.1,0,.5-.2.9-.2.4,0,1.2-.2,1.8-.3.6-.1,1.3-.2,1.6-.3.3,0,.8,0,1.2,0,.7.1.8,0,1.3-.2.4-.2.6-.3.8-.2.5.1,1.7,0,2.3-.1.3-.1,1.3-.3,2.3-.4,2.7-.2,3.4-.3,4.2-.5.6-.2.8-.2.9,0,0,.2.2.2.6,0,.3,0,.9-.2,1.4-.2.5,0,1.4-.1,2-.2.6,0,1.3-.2,1.7-.1,2.4,0,3.3,0,3.8-.1.5-.2,3-.4,4.1-.4,1.7,0,7.2-.3,10.8-.7,3.6-.3,5.1-.4,5.3-.1.2.2.5.2,2,0,2.1-.2,1.8-.2,15.3-.6,5.7-.2,10.8-.3,11.1-.3.4,0,1.8,0,3.2,0,2.2,0,2.5,0,2.8.3.4.3,2.9.5,5.9.5,1,0,2,0,2.1,0,.2.2.4.2,2,.2,4.3,0,11,0,11.9,0,1.6-.2,2.1-.2,1.4.2l-.4.2h.4c.2,0,.5,0,.6,0,.3-.2.6-.2.6,0,0,0-.1.1-.3.2-.2,0-.3.1-.3.2,0,.3.6.2,1.2-.2.3-.2,2,0,2.3,0,.2,0,.4,0,.5.3.1.3.6.4,1.4.3.4,0,.6,0,.6,0s.2.1.5,0c.7-.2.7.3,0,.5-.4.1-.5.2-.5.4,0,.2-.1.3-.8.5-.9.2-1.2.4-1,.8,0,.2.2.2.6.1.4,0,.6,0,.6,0,0,0-.1.2-.2.2-.8,0-1.4.3-1.8.7-.3.3-.4.3-.5.2-.2-.2-1.5-.3-1.4,0,0,0,.2.1.5.1.3,0,.5,0,.4.1,0,0-.4.2-.7.2-.3,0-.6,0-.6-.1,0,0,0-.1.1-.1,0,0,.1,0,.1-.2,0-.2-.8,0-.8.2,0,.4.4.7.9.6.2,0,.8-.1,1.3-.2.5,0,1-.2,1.2-.3.5-.3.7-.3.7,0,0,.1.1.2.2.3.1,0,.2.2.2.3,0,.1.1.3.3.4.2,0,.2.2.2.4,0,.4,0,.4,1,.2.5-.1.9-.2,1-.2,0,0,.3,0,.5,0,.3-.1.4-.1.7.1.3.3.3.3,0,.5-.2.2-.2.2,0,.4.1.1.1.2-.1.4-.4.3-.2.6.3.5.4,0,.4,0,.2.3-.1.2-.1.2,0,.2.3,0,.2.4-.1.6-.2,0-.3.3-.3.4,0,.1,0,.3-.2.4-.3.3-.2,1,.2,1.1.2,0,.3,0,.3.2,0,0,.1.1.2.1.1,0,.3.2.4.4,0,.2.2.4.3.4.4,0,.4,1.1,0,1.6-.2.3-.2.3.2.7.5.5.5.7,0,.9-.4.2-.5.7-.2.8.1,0,.2.2.1.4,0,.5.5.9,1.5,1,.6,0,1.1.2,1.7.5.7.3.8.5.8.8v.4c0,0-1.4,0-1.4,0h-1.5s.8.2.8.2c.4.1.8.3.8.4,0,0,.2.2.5.3.7.3.6.7-.2.6-.2,0-.5,0-.7.2-.2.1-.5.2-.7.2-.2,0-.3,0-.2.2,0,0,.4.2,1,.2,1.1,0,4,.3,5.5.4,1.8.2,3.1.3,3.8.3.3,0,.8.1,1,.2.2,0,.5,0,.6,0,.1,0,.5,0,.8,0,.3,0,.8.1,1.1.2.9,0,2.9.4,3.8.5.5,0,1.2.2,1.5.2.7,0,3.2.4,4.6.7.7.1,1,.1,1.1,0,.1,0,.2-.2.1-.3,0,0,0-.3.1-.3.2-.1.4-.1,1.3,0,.6,0,1.2.1,1.2,0,.6-.3-.5-.7-1.8-.7-1.4,0-2.6-.2-3.6-.5-.5-.1-1-.3-1.3-.3-.3,0-.4-.1-.4-.2,0-.2,0-.2,1.8.1,1.7.3,2,.3,2.6-.4.3-.4.8-.4,1.4-.2.2,0,.7.2,1.2.2.4,0,1,.1,1.2.2.2,0,.7.2,1,.2.3,0,.8,0,1,.1.2,0,.8.2,1.2.2.5,0,1.1.2,1.4.4.3.1.8.3,1.1.3,2.6.3,7.5,1.3,7.9,1.7.2.2.4.4.4.4,0,.2-1.1.6-1.5.7-.2,0-.4,0-.6-.1-.2,0-.8-.2-1.5-.2-.7,0-1.4-.1-1.5-.2-.3,0-.3,0-.3.1,0,.1.2.2.4.3.2,0,.6.2,1,.3.3.2.9.3,1.1.3.3,0,.6.2.8.4.4.5.3.6-.8.6-.8,0-1.4,0-5.2-.7-2.2-.4-3.2-.5-3.3-.5,0,0-.6,0-1.2-.2-1.2-.3-3-.5-3.1-.3,0,0,.2.1.5.2.3,0,.7.2.8.3.1,0,.4.1.7.2.9,0,3.4.4,3.9.6.5.2,1.5.4,2.1.5.2,0,1.2.2,2.2.4,2,.4,3.1.8,3.1,1.1,0,0-.2.3-.4.5-.3.2-.4.4-.4.7,0,.3,0,.4-.2.4-.3,0-.7.2-.6.3,0,0,.4,0,.9.1,1.9.1,3.2.2,4,.3.4,0,1.3.2,1.9.2.6,0,2.4.2,3.8.4,1.5.2,3.3.3,4.1.3,1,0,1.6,0,1.9.2.2.1,1.3.3,2.3.5,2.2.3,3.3.5,4.4.8.4.1,1,.3,1.2.3.2,0,.6.1.7.2l.3.2h-.4c-.2,0-.6-.1-.9-.2-.3,0-1-.1-1.7-.2-.7,0-1.4-.1-1.6-.1-.2,0-.4,0-.5-.1,0-.1-.2-.2-.5-.1-.3,0-.6,0-.8,0-.4-.2-.5,0-.1.3.3.3,1.3.4,2.6.3.6,0,.9,0,1.1.2.2.2.3.2.6,0,.4-.2.4-.2.7.1.4.4.4.6,0,.5-.6-.2-1.8-.3-2.7-.3-.5,0-1.1,0-1.2-.2-.2,0-.5-.1-.7,0-.2,0-.7,0-1.1-.1-.6-.2-.7-.3-.8-.6,0-.3-.1-.4-.8-.4-.4,0-1-.1-1.3-.3-.4-.1-.9-.2-1.6-.1-.6,0-1.5,0-2.1,0-2.7-.3-3.4-.3-3.5,0,0,.1-.3.2-.4.3-.3,0-.5-.2-.1-.3.2,0,0-.1-.4-.3-.5-.2-.8-.3-1.5-.2-1.3,0-2.8,0-4-.3,0,0-.4,0-.7,0-.4,0-.5,0-.5.3,0,.1,0,.2-.2.1-.1,0-.3,0-.3,0,0,0,0,0,0-.1.1-.2,0-.2-.4.1-.2.2-.2.3-.1.6v.4c.1,0-1.1,0-1.1,0-1.2,0-1.6.1-.5.2,1.2.1.9.4-.5.5-1.2,0-2,.3-2,.5,0,.1-.5.1-1.4,0-.5-.1-.3.2.2.5,1.1.4,2.4.6,3.6.7,1.2,0,2.3,0,4.4.3.5,0,1.1,0,1.2,0,.2,0,.4,0,.6,0,.3.1,1.6.3,3.6.4.8,0,1.1,0,1.4-.2.3-.2.5-.2,1.2,0,.4,0,1.1.1,1.4.1.3,0,1,0,1.4,0,.4,0,1.9.2,3.2.4,1.3.1,2.8.3,3.2.4.5,0,.8,0,1.1,0,.4-.2,2,0,5.2.5.9.2,2,.3,2.3.4.3,0,.7.1.9.2.2,0,.2,0,.2-.6,0-.4,0-.6.1-.6,0,0,.1,0,.1.1,0,.3,1.1.8,2.2,1,1.5.3,2.1.4,3.2.6.5.1,1.5.3,2.2.4,1.4.2,2.6.5,2.9.7ZM42.5,60.9c.2.2.4.2.4,0,.1-.3,0-.3-.2-.3-.4,0-.5.2-.3.4ZM38.8,61s.1,0,.2-.2c0-.1.1-.2,0-.2,0,0-.2,0-.2.2,0,.1,0,.2,0,.2ZM38.5,60.2c.1,0,.2,0,.2,0,0,0-.2,0-.3,0-.1,0,0,0,0,0ZM89.9,9.1c0,.2.8.1,1.1,0,.1-.1.1-.1,0-.2-.3,0-1.1,0-1.1.2ZM89.5,31.6c.1.2,1.8,0,1.9-.2,0,0,0-.1-.6-.1-.4,0-.8,0-.9,0-.2,0-.6.2-.5.3ZM56.2,12.1c0,0,0,.1.1.1.1,0,.2,0,.2-.1,0,0,0-.1-.1-.1,0,0-.2,0-.2.1ZM20.3,33c0,.2,1.1.1,1.9-.1.4-.1,1.1-.4,1.6-.5,1-.3,1.2-.4,1.1-.8,0-.2,0-.2-.7-.2-.4,0-1,.2-1.4.2-.5,0-.8.2-.9.4,0,.1-.4.3-.8.4-.6.1-1,.4-1,.7ZM21.1,37.9c.4-.1,1-.3,1.3-.3.3,0,1-.2,1.5-.3.5-.2,1.2-.3,1.4-.3.3,0,.7-.2,1-.3.3-.2.6-.3.7-.4.2,0,.2-.2.2-.6,0-.5,0-.6-.4-.7-.2,0-.5,0-.7,0-.2,0-.4.1-.5.1-.5.1-1,.3-1.1.4,0,0-.2.1-.3.1-.1,0-.5.2-.9.4-.3.2-1,.4-1.4.5-.4,0-.9.2-.9.2,0,0-.3.2-.5.2-.2,0-.3.2-.3.2,0,0,.3,0,.5,0,.3,0,.5,0,.6,0,.2.2-.4.4-1.2.6-.6,0-.8.2-.6.5.1.2.6,0,1.7-.3ZM34.4,37.8l-2,.2c-1.1.1-2.2.2-2.5.2-.3,0-.6.1-.7.2-.3.3-1.2.5-1.5.4-.4-.2-.6-.2-.5.1,0,.3,0,.3-3.2,1.3-1.2.4-2.3.7-2.5.8-.2,0-.5.2-.8.2-.3,0-.5.2-.5.3,0,.2.1.2.5,0,.2,0,.5-.2.6-.2.2-.2,1-.2,1,0,0,0-.2.2-.5.2-.3,0-.6.2-.6.2,0,0-.2.1-.4.1-.4,0-.7.4-.5.6.2.2.7.1,2.7-.5,1.1-.3,2.1-.7,2.4-.8.5-.2.9-.2.9,0,0,0-.3.2-.8.3-.9.2-1.4.5-1.4.6,0,0,.1,0,.3,0,.6-.1,2.1-.6,2.7-.8.4-.1.7-.2.7-.2,0,0,.2,0,.2,0,.1,0,.7-.3,1.5-.6.2,0,.1-1-.2-1.4-.3-.4-.2-.5.4-.3.5.1,3.5,0,4.2-.2.3,0,.4-.2.4-.5v-.4ZM68.4,42.6c0-.2-.7-.3-1.6,0-1.2.3-3.8.6-4.8.6-.5,0-1.1,0-1.7.2-.4.1-1.3.3-1.8.4-1,.2-1.3.3-2.9.8-.6.2-.9.2-1.1.1-.2-.1-.3-.1-.5,0-.2.2-1.3.7-1.9.8-1.3.2-2.5.5-3.2.7-.5.1-1.3.3-1.9.4-.6,0-1.4.3-1.8.4-.4.1-1.2.4-1.8.5-.6.1-1.2.3-1.4.3-.4.1-2.7.7-3.3.9-.3,0-1,.2-1.5.4-.8.2-1.1.3-1.1.5,0,.3-.5.4-.6,0-.1-.2-.4-.3-.6,0-.1.1-.1.2,0,.4.3.3.5.3.7.1,0,0,.5-.2,1.1-.2.6,0,1.4-.2,1.8-.4.5-.1,1.2-.3,1.7-.4.5,0,1-.2,1.2-.3.2,0,.7-.2,1-.2.3,0,.8-.2,1-.3.2-.1.8-.3,1.2-.4.5-.1,1.1-.3,1.4-.4.3,0,.7-.1.9,0,.2,0,.3,0,.4-.1,0-.1.3-.2.7-.2.4,0,.8,0,1.2-.3.3-.2,1.1-.4,1.6-.5.6-.1,1.1-.3,1.2-.3.3-.2,3.4-.7,4.6-.8.5,0,1.2-.2,1.5-.3.6-.3.6-.3.6,0,0,.2,0,.2.4,0,.2,0,.5-.1.6-.1.1,0,.3,0,.5-.2.1-.1.4-.2.6-.2.2,0,.5-.1.8-.2.3-.1.7-.2.9-.2.3,0,.5,0,.6-.2.1-.1,1.1-.4,4.7-1.1.2,0,.4-.1.4-.2ZM36.7,48.3c.1-.3-.2-.5-.5-.3-.2.1-.3.3-.3.4,0,.3.7.2.8,0ZM37.2,48.6c.1,0,.2,0,.2-.1,0,0-.1-.1-.3-.1-.2,0-.2,0-.2.1,0,0,.2.1.3.1ZM45.1,41.3c.1,0,1.1-.3,2.2-.5,1.1-.2,2.1-.5,2.2-.5.1,0,.6-.1,1-.2.4,0,.9-.2.9-.2,0,0,.3-.2.6-.2.2,0,.5,0,.4-.2,0,0-.2-.1-.7,0-.4,0-1,.2-1.5.2-.5,0-1,.1-1.2.2-.2,0-.8.1-1.2.2-1.7.2-2.2.3-2.3.5,0,0-.3.1-.5.1-.5,0-.9.2-.9.3,0,.2.6.4.8.3ZM61.6,26.6c.2,0,.3,0,.3-.2,0,0-.1-.1-.3-.1-.2,0-.3,0-.3.1,0,0,.1.1.3.1ZM69.7,12.6c0,0-.3,0-.7,0-.4,0-.8.1-1.1.2-.2,0-.5,0-.6.2,0,0-.7.2-1.3.3-.8.1-1.2.3-1.3.4-.1.1-.2.2-.1,0,0-.2-.4-.2-1.2,0-.4.1-.6.4-.2.5.2,0,2.3-.1,3.5-.3.6,0,.7-.1.5-.3-.4-.3-.3-.3.4-.4.3,0,.6,0,.7-.2,0,0,.3-.2.5-.2.5,0,.8-.2.8-.3ZM71,11.6c.3,0,1.2-.2,2-.3,1.7-.1,1.9-.2,1.8-.7,0-.3,0-.3.2-.3.1,0,.4,0,.6.1.2,0,.4.1.5.2.2.1,1.2,0,1.6-.2.1,0,.9-.1,1.7-.2.8,0,1.8,0,2.1-.2.9-.2,1.6-.3,4.7-.6,1.6-.2,2.9-.3,3-.3,0,0,0-.1-.1-.3-.1-.1-.4-.2-1-.1-1,.1-3,.3-4.4.5-.6,0-1.3,0-1.5,0-.3-.1-.4,0-.6,0-.1,0-.3.1-.3,0,0,0-.4,0-.7.1-.3,0-.7.2-.9.1-.2,0-.2,0,.1-.2.2,0,.4-.2.4-.2,0-.1-2,.2-2.2.4-.1,0-.4.2-.6.3-.4,0-.4,0-.5-.2,0-.3,0-.3-.4-.1-.2.1-.5.2-.5.2,0,0-.2.1-.3.2-.1.2-.2.2-.8,0-.4-.1-1.3-.2-2.3-.1-1.4,0-1.6,0-1.6.3,0,.2-.2.3-.4.3-.9,0-2.3.2-2.4.3-.1.2-.7.1-.8,0,0,0-.2,0-.3,0-.2.2-1.5.5-2.1.5-1.1,0-2,.1-2.6.3-.4,0-1.2.2-1.9.3-.7,0-1.2.2-1.3.2,0,0-.6.1-1.2.2-.6,0-1.5.2-2.1.3-1.4.2-1.5.2-1.5,0,0-.2,0-.2-.3-.2-.2,0-.4.2-.6.3-.1.1-.3.2-.5.2-.1,0-.4,0-.5.2-.1,0-.6.2-1.1.3-.7,0-.8,0-.9-.1-.1-.2-.4-.3-.4,0,0,.3-.4.5-1.2.6-.9.1-1.5.2-2.4.5-.4,0-.7,0-.8,0-.1,0-.3,0-.7.1-.7.3-1.8.5-2.1.3-.2-.1-.3-.1-.4,0,0,0-.3.2-.5.2-.2,0-.5.1-.7.2-.2.1-.6.2-.8.2-.2,0-.4,0-.5,0-.2.2-2.4.6-2.6.5-.1,0-.6,0-1.1.3-.5.2-1.1.3-1.3.3-.2,0-.6,0-.9.2-.3,0-1,.2-1.5.3-.5.1-1.3.3-1.8.4-.5.1-1.1.2-1.2.2-.2,0-.4,0-.4,0-.2.2-1.1.5-1.8.6-.7.1-.8.1-.6.4,0,.1.4.1,1.1,0,.5,0,1.3-.2,1.8-.2h0c.4,0,.8,0,.8-.1,0,0,.4-.1.9-.2.5,0,1.5-.2,2.2-.3,2-.4,2.7-.5,4.7-.9,1.7-.3,3.3-.7,4.8-1.1.4,0,.9-.2,1.2-.2.3,0,.7,0,.9-.2.2,0,.7-.2,1.2-.2.9-.1,1.6-.3,1.9-.4.1,0,.6-.1,1.2-.2.5,0,1.4-.2,2-.4.9-.3,1-.3,1.4-.1.4.2,1.8,0,3.1-.3.7-.2,1.4-.3,3-.5.3,0,1.4-.2,2.4-.4,1-.2,2.3-.4,3-.4.6,0,1.8-.1,2.5-.3.7-.1,1.9-.3,2.6-.3.7,0,1.6-.2,1.9-.3ZM72.3,12.4c.2,0,.4,0,.5,0,.2-.1.2-.2,0-.2-.1,0-.3,0-.5,0-.2,0-.2.1,0,.2ZM77.1,41c-.4-.1-4,.3-4.2.4-.3.4.9.8,1.2.4,0,0,.7-.2,1.5-.3,1.4-.1,2-.4,1.5-.6ZM78.3,32.9c.2,0,.6,0,1,0,.3,0,1.3-.1,2.2-.2,1.6-.2,2-.3,2.8-.4.2,0,.4,0,.3-.2-.1-.2-5.2.2-7.3.5-.2,0-2.3.3-2.8.4-1,.1-2,.3-2,.4,0,0,0,.1.1.2.1.1,2.2,0,3.3-.3.4,0,1-.2,1.4-.3.3,0,.8-.1,1-.1ZM63.6,51.5c0,0-.1,0-.1.1,0,0,0,.1,0,.1,0,0,0,0,.1-.1,0,0,0-.1,0-.1ZM74.5,48.2c-2.1.3-2.8.3-2.8.2,0,0,0,0-.2,0-.1,0-.4,0-.7-.1-.3-.1-.6-.2-.7,0-.1,0-.4.1-1,0-.5,0-1,0-1.3,0l-.5.2h.5c.6,0,.4.2-.3.4-.5,0-.5,0-.4-.2,0-.2,0-.3,0-.2,0,0-.1.2-.1.3,0,.3-1.3.4-1.5.2-.1-.1-.2-.2-.4,0-.1,0-.4.1-.5,0-.1,0-.3,0-.3,0,0,0-.2.2-.4.2-.2,0-.4.1-.6.3-.2.2-.7.3-1.3.4-.5,0-1.1.2-1.4.3-.4.1-1.2.3-2.3.4-.6,0-4,.9-4.6,1.1-.3,0-.8.2-1.1.2-.3,0-.7.1-.8.2-.1,0-.6.2-1,.3-.4,0-.8.2-.9.2,0,0-.4.1-.8.1-.3,0-.6,0-.7.2,0,0-.2.2-.5.2-.2,0-.5,0-.6.2,0,0-.4.2-.8.2s-.7.1-.9.2c-.1,0-.6.2-1,.2-.4,0-.9.1-1.1.3-.2.2-.4.2-.6.1-.2-.1-.3,0-.4.2,0,.2-.3.3-.4.3-.1,0-.4,0-.5.1-.3.2-3,1-3.4,1-.4,0-.5.3-.1.4.2,0,.4.2.4.3.1.2.2.2.5,0,.2-.1.5-.2.6-.2.1,0,.4-.2.6-.4.2-.2.6-.5.8-.5.4,0,.4,0,.4.2,0,.3,0,.3.2.2.1,0,.3-.1.5-.2.1,0,.5-.2.7-.3.3-.1,1.2-.3,1.9-.4.8,0,1.7-.2,2.2-.4.5-.1,1.3-.3,1.8-.5.6-.2,1.2-.3,1.4-.4.2,0,.7-.2,1-.2.3,0,1-.2,1.4-.3.5-.2.9-.3,1.3-.2.6,0,1.4-.1,1.4-.3,0-.2,1.7-.7,2.2-.6.2,0,.4,0,.4-.1.1-.2,1.1-.5,2.3-.7.3,0,.8-.2,1.1-.3.3,0,1.2-.2,2-.3,1,0,1.6-.1,1.7-.3.1-.2,2.4-.7,2.7-.6.1,0,.3,0,.4,0,.2-.2,1.1-.2,2-.1.5,0,.6,0,.6-.2,0-.1.1-.2.2-.2.1,0,.4-.1.6-.2.3-.2.5-.2.9,0,.3,0,.8,0,1.2,0,.4,0,.7-.1.8-.1.2,0,1-.4,1.1-.6,0-.1-.2-.1-1.1,0ZM77.3,47.9c0,0-.4,0-.8,0-.6.1-.7.2-.5.4,0,0,.9,0,1.3-.2.1,0,.1-.1,0-.2ZM78.6,46.7c0-.2-.2-.2-1.2,0-.7,0-1.6.2-2,.2-.7,0-2.8.4-3.2.6-.3,0-.2.4.1.3.2,0,.3,0,.3.1,0,0,0,.2,0,.2,0,.1.4,0,.7-.1.2,0,.6-.2,1-.2.4,0,.8,0,.9-.2.1,0,.6-.2,1-.2,2.2-.3,2.3-.3,2.2-.7ZM79.8,43.6c-.4,0-1.6.2-1.5.4,0,.1,1.2,0,1.6-.2.2-.1.2-.1-.1-.2ZM101.5,40.9c0,0-.6,0-1.7,0-.9,0-2.2.2-2.8.2-.8,0-1.1,0-1,.2,0,.1,0,.2-.3.3-.5.1-.6,0-.3-.3.2-.2.2-.2-.6-.1-.5,0-1.2.1-1.6.2-.4,0-.8,0-.8.1,0,0-.8.2-1.6.3-2,.2-2.6.3-2.6.5,0,.1-.3.2-1,.2-4.6.3-6.9.6-6.8,1,0,0,.3,0,.6,0,.4,0,.7,0,.9.1.3.2.3.2.6,0,.1-.1.5-.2.8-.2.3,0,.6,0,.7.1,0,0,.4,0,.6,0,.3,0,.8-.2,1.3-.2.5,0,.9-.2,1-.2.1,0,.7-.1,1.2-.2.6,0,1.4-.2,1.8-.2.4,0,1.2-.1,1.7-.1.7,0,1.1,0,1.5-.3.3-.2.6-.3.7-.2.2.1.7-.1.7-.3,0-.1,0-.2.2-.2.1,0,.2,0,.2.2,0,.3.9.2,3-.1,1-.2,2.2-.4,2.6-.4.4,0,.7-.2.7-.2ZM78.7,60.2c0,0,0-.1,0-.1,0,0,0,0-.1.1,0,0,0,.1,0,.1,0,0,.1,0,.1-.1ZM80,62.5c0,0-.2-.1-.2-.1,0,0,0,0,0,.1,0,0,.2.1.2.1,0,0,0,0,0-.1ZM93.5,58.2c0-.2-.1-.2-1.5,0-.4,0-.8.2-.8.2,0,.2.2.3.6.2.2,0,.7-.1,1-.2.4,0,.6-.1.6-.3ZM95.9,58.1c-.2,0-.3.2-.4.3,0,.2,0,.2.3.2.2,0,.3-.2.4-.3,0-.2,0-.2-.3-.2ZM100.3,58.9c0,0-.1-.2-.3-.2-.3,0-.4.1-.2.3.1.1.5,0,.5-.1ZM106.8,31.6c-.4-.1-3.9.2-4.1.4-.3.3.3.7,1.2.7,1.6,0,1.9,0,2.1-.2h0c.3-.3.3-.4-.2-.3-.2,0-.7,0-1.1,0-1,0-.5-.3.9-.4,1.2-.1,1.3,0,1.3.2,0,.1.1.2.2.2.2-.1,0-.5-.3-.6ZM117.4,7.9c0,0-.4-.1-.8-.1-6.7.2-11.2.4-11.3.5-.2.2.3.3,1,.2.4,0,1.5-.1,2.6-.2,7.8-.3,8.6-.3,8.6-.5ZM124.1,55.5c0,0,0-.2-.2-.2-.2,0-.2,0-.2.2,0,.2.4.2.5,0ZM128.7,35.7c.2-.2-2.6-.2-6.1,0-2,0-4,.1-4.4,0-.5,0-.9,0-1,0,0,0-.9.1-1.9.2-2.7.2-5.1.5-5.2.6,0,0,0,.2,0,.3,0,.2.2.2.5.1.2,0,1.3-.2,2.4-.2,7.1-.4,9.8-.6,10.5-.7,1.2-.1,2.6-.2,3.2,0,.5,0,1.8,0,2-.2ZM78.8,65.9s-.2,0-.3,0c-.1,0,0,0,0,0,.1,0,.2,0,.2,0ZM90.5,65c-.1-.2-1.8,0-1.8.3,0,0,.2,0,.3,0,.2,0,.6-.1.9-.1.3,0,.6-.1.5-.2ZM92.2,63.6c-.1-.2-1.1,0-2.4.2-.4,0-1.5.3-2.4.4-1.7.3-2,.4-1.9.6,0,.1,1.3,0,1.6-.2.1,0,.3-.1.3,0,0,0,.8,0,1.6-.2.8-.1,1.9-.3,2.3-.4.9-.1,1-.2.8-.4ZM118.9,59.2c-.1-.1-1.1-.1-1.3,0,0,0-.4.1-.6.1-.3,0-.8,0-1.2.2-.4,0-1,.2-1.4.2-.7,0-1.8.2-3.6.6-3.3.6-5.2.9-6.5,1-.8,0-1.5.1-1.6.2-.1,0-.7.2-1.4.3-2.5.4-3.2.6-3.3.8,0,.1-.5.2-1.4.2-1.2,0-1.4,0-1.6.3-.2.3-.2.3.8.2.6,0,1-.2,1.1-.2,0,0,.2,0,.3,0,.1,0,.3.1.4,0,0,0,.5-.1,1-.2.5,0,.9,0,1-.1,0,0,.5-.1.9-.2.4,0,1.2-.2,1.9-.4.6-.1,1.5-.2,2.1-.3.5,0,1.3-.1,1.7-.2.4,0,.8-.2.8-.2.2,0,1.3-.2,1.7-.5.3-.2.9-.3,1.9-.3,3.5-.2,4.8-.4,5.7-.7.3,0,.8-.2,1.1-.2.6,0,1.9-.6,1.7-.7ZM127.8,58.4c0-.1-1-.4-1.1-.3,0,0-.2,0-.3,0-.2-.1-.3,0-.5,0-.2.1-.4.2-.5.2-.2-.1-.4,0-.3.2,0,.1,2.8,0,2.8-.1ZM129.3,59.6c0-.2-.4-.3-1-.2-.9.2-.7.4.2.3.5,0,.8,0,.8-.2ZM134.6,57.4c-.1-.2-.6-.1-.6,0,0,0,0,.1.2.2.2,0,.5,0,.4-.2ZM164.1,9c0,0,.1.1.2.1,0,0,0,0,0-.1,0,0,0-.1-.2-.1,0,0-.1,0,0,.1ZM134.9,8.1c.3.2,3.2.1,3.2-.1,0,0-.7-.1-1.7-.1-1.5,0-1.7,0-1.5.2ZM132.2,8c0-.1-.4-.3-.5-.2,0,0,0,.1,0,.2.1.2.5.2.5,0ZM146.6,54.2c-.2,0-.3,0-.3.1,0,0,.2.1.3.1.1,0,.2,0,.3-.2,0,0,0-.1-.3-.1ZM147.6,54.3c0,0,0-.1-.2-.1-.3,0-.3,0-.1.1.3.2.2.2.3,0ZM150.6,53.8c-.1,0-.8.1-1.4.1-.7,0-1.2,0-1.2.2,0,0,0,.1,0,.1,0,0,.5,0,1.1,0,.6,0,1.1,0,1.1,0,0,0,1.4,0,1.5-.2.1-.2-.9-.5-1.2-.4ZM151,13.4c.1,0,.2-.2.2-.3,0-.3-.3-.4-.5-.2-.2.2,0,.6.3.5ZM152.9,12.8c-1.1,0-1.3.5-.4.6.3,0,.6,0,.6,0,0,0,.2,0,.3-.2.4-.3,0-.5-.6-.5ZM159.8,12.9c0,0-.5-.1-1-.1-.5,0-.9,0-1-.2-.1-.2-.9-.2-1.1,0,0,0-.4.2-.6.2-.2,0-.4.1-.4.2,0,0,.7.1,1.9,0,1,0,1.9,0,1.9,0,0,0,.2,0,.3,0,.1,0,.1-.1,0-.2ZM164.7,11.9c0,0-.1-.1-.2-.1-.2,0-.3.2-.1.3.1.1.3,0,.3-.2ZM167.1,10.3c.4-.4-.2-.4-2.4-.4-1.3,0-2.7,0-3.1,0-.4,0-1,0-1.3.1-.3,0-.8.1-1.2,0-.4,0-1.1-.1-1.6-.1-.5,0-1,0-1-.2,0,0-.2-.1-.4-.1-.1,0-.6,0-1.1,0-.6,0-.9,0-1,.1-.2.2-2.6.3-3.3,0-.3,0-.9-.1-1.5,0-.6,0-1,0-1.1,0,0,0-.1,0-.2,0-.2.2-1.6.2-1.9,0,0,0-.6,0-1.1,0-.5,0-1,0-1,0,0,0-.3,0-.7,0-.7.2-1.1.1-.8-.1,0,0,.1-.2,0-.2,0,0-.2,0-.4.2-.2.1-.5.2-.6.2-.2,0-.3,0-.3,0,0,0-.1.1-.2,0-.1,0-.1-.1,0-.3.2-.2.1-.2-.2-.1-.2,0-.4.2-.5.3,0,0-.9.1-2.4.2-3.1,0-4.4,0-4.5.3,0,0-.4.1-.7.2-.4,0-.6,0-.7.2,0,.1,0,.3,0,.3,0,0,2.5,0,6.7,0,.9,0,1.8-.1,1.9-.2.3-.2,1.6-.2,3,0,.8.1,1.5.2,1.6.1.2,0,.3,0,.4.2,0,.2.2.3.3.2,0,0,.3,0,.4,0,.3.1,1,.2,2.1.3.5,0,1,0,1,0,0,0,.3,0,.4-.2.2-.2.5-.2,1.1-.2,1.9,0,3.1.1,3.9,0,.5,0,1,0,1.2,0,1.4,0,2.4,0,2.8-.3.2-.1.4-.2.5-.2.1,0,3.1.1,3.6.1.6,0,.9-.1,1.2-.2.3-.1.4-.1.6,0,.2.2,2.3,0,2.6-.2ZM166.2,50.5c0,0,0-.1-.1-.1,0,0-.1,0-.1.1,0,0,0,.1.1.1,0,0,.1,0,.1-.1ZM174.4,53.3c0,0-.1,0-.1.1,0,0,0,.1,0,.1,0,0,0,0,.1-.1,0,0,0-.1,0-.1ZM229.8,56.2c0,0,.2.2.4.2,2.2.4,3,.5,2.9.2h0c0-.1-.3-.2-.8-.3-.4,0-.9,0-1.1-.1-.9-.1-1.5-.2-1.5,0ZM177.9,47.1c0-.1-.2-.2-.5-.2-.3,0-.9,0-1.3,0-.9,0-1.3.2-.6.3.2,0,.5.1.7.1.2,0,.7,0,1,0,.5,0,.7,0,.7-.2ZM188.4,32.3c.3,0,.9.1,1.4.1.5,0,1,0,1.1,0,.1,0,.4,0,.6,0,.2,0,.7,0,1.1,0,.4,0,1.1.1,1.5.1.8,0,1.1,0,2.8.4.8.1,1.6.1,1.6,0,0,0-.2-.2-.4-.4-.2-.1-.4-.3-.4-.4,0-.2-.5-.5-1.1-.5-.3,0-1.2,0-2-.2-.8,0-1.6-.2-1.9-.2-.2,0-1-.1-1.8-.2-.8,0-2.1-.2-2.9-.3-2.3-.2-4.3-.4-4.4-.6-.3-.2-3.1-.4-4.9-.3h-1.9c0,0,0,.5,0,.5-.1.6,0,.8,1.2.7.6,0,1.2,0,1.3,0,.2,0,.9.2,1.6.2,5.7.4,6.8.5,7.5.7ZM186.2,39.3c0,0,0-.1-.2-.1,0,0-.1,0,0,.1,0,0,.1.1.2.1,0,0,0,0,0-.1ZM225.8,58.4c0,0-.1-.1-.2-.1-.2,0-.2,0,0,.1.3.2.3.2.3,0ZM226.5,58.3c-.4-.1-.5-.1-.5,0,0,0,.2.1.4.1.3,0,.3,0,0-.1ZM226.2,56c0,0,.1,0,.2-.1.1-.2-.4-.5-.9-.4-1.2,0-.8.4.8.5ZM221.9,55.3c0,.1.1.2.2.2.1,0,.2-.1.2-.2,0-.1-.1-.2-.2-.2-.1,0-.2.1-.2.2ZM202.6,53.7c-.9,0-1.9,0-2.2-.1-.3,0-1,0-1.7,0-1.5,0-5.5,0-6.1,0-.5,0-.6,0-2.3-.2-.6,0-1.2,0-1.2,0,0,0-.6,0-1.2,0-.8,0-1.1,0-1.1.1,0,0,.2.1.4.1.4,0,1.7.2,2.1.3.6.2,2.1.4,2.9.4.5,0,1,0,1.2.1.2,0,.3.1.4,0,0-.1,2.3-.2,3.7,0,.3,0,1.3,0,2.1,0,2,0,2.7,0,2.9.2,0,0,.7,0,1.4.1.7,0,1.4,0,1.5.2.1,0,1,.2,2,.3,1,0,2.1.2,2.6.3,1.6.2,3.4.3,4,.3.3,0,1,0,1.6.1.6,0,1.3.1,1.6.2,1,0,3,.2,3.1.3,0,0,.4,0,.8.1.4,0,.9.1,1.1.3.3.2.4.2.6,0,.2,0,.3-.1.4,0,0,0,.5,0,.9,0,.4,0,1,0,1.2.1.5.2.6.2.9,0,.2-.2.2-.2,0-.3-.5-.2-1.2-.2-2.6-.3-1.8,0-2.6-.3-2.6-.7,0-.3-.7-.5-1.8-.6-.8,0-3.1-.2-4-.3-.3,0-.8,0-1.1,0-.3,0-1.1,0-1.6-.1-.5,0-1.5-.1-2.1-.1-1.3,0-4.4-.2-5.4-.4-.4,0-1.5-.1-2.4,0ZM245.8,53c.3,0,.4,0,.4-.1-.2-.2-.9-.4-1-.3-.2.2.1.5.6.4ZM84.4,43c0,0,.2,0,.3,0,.3-.1.2-.2,0-.2-.2,0-.2,0-.2.1ZM70.7,11c-.4,0-.9.3-.8.4,0,.1,1,0,1.1-.1,0-.1-.1-.3-.3-.3ZM156.2,10.4c-.6,0-1.4,0-1.6,0-.3,0-.4,0-.3.1,0,.1.2.2.4.1.2,0,.5,0,.6,0,.2,0,.4.1.6.2.8,0,2.7,0,2.7-.2,0-.2-.3-.2-2.3-.2ZM66.4,60.3c0,.2.8.1.9,0,0,0,0-.2,0-.2-.1-.1-.9.1-.9.3ZM62.6,57.5c.1.2.2.1.5-.1.2-.2.2-.2,0-.2-.4,0-.7.2-.6.3ZM65,60.7h.5c.5-.2.9-.5.5-.5-.1,0-.4.1-.6.2l-.3.2ZM60.7,58.3c-.2,0-.4,0-.4.2,0,.1.2.1.4,0,.2,0,.6-.1.9-.1.3,0,.5,0,.4-.2,0-.2-.1-.2-.7-.2-.1,0-.2,0-.2-.1,0,0,0-.1-.3-.1-.2,0-.4,0-.4.2,0,0,.1.1.2,0,.1,0,.3,0,.3.1,0,.1,0,.2-.3.2ZM64,59.7s0,0,.2,0c.1,0,.2,0,.2-.1,0,0,0,0-.2,0-.1,0-.2.1-.2.1ZM59.9,57.3c-.4,0-.7.2-.6.3,0,0,.2.1.7,0,.4,0,.8-.2,1-.2.2,0,.6-.1,1-.2.9-.2,1.3-.2,1.6,0,.1.1.2.1.2,0,0-.2.7-.4,1.8-.6.9-.2,2-.6,1.8-.7,0,0-.4,0-.8.1-.4,0-1.2.2-1.7.3-1.1.1-3.2.6-3.8.8-.2,0-.7.2-1.1.2ZM67.2,57.1c0-.1-.1-.2-.3-.2-.3,0-.5.2-.4.3.2.2.7,0,.7-.1ZM61.2,55.9c0,.2.7.1,1.2,0,.2,0,.9-.2,1.5-.2.6,0,1.3-.1,1.5-.2.3-.1.3-.1,0-.3-.2-.1-.4-.1-1.2,0-2,.5-2.2.6-2.6.6-.2,0-.4,0-.4.2ZM24.5,36.2c.1-.1.3-.2.4-.1,0,0,.1,0,0,0,0,0-.3,0-.7,0-.3,0-.7.2-.7.2,0,0-.1,0-.1,0,.1.2.9.1,1.1-.1ZM106,64.2c0,.2,1.5,0,2.1-.1.4-.1.5-.2.4-.3-.1-.1-.4-.1-1,0-.5,0-.8,0-.8,0,0,0-.2-.1-.4,0-.7,0-.8,0-.5.3.1.1.2.3.2.3ZM183,58.5c0-.1.1-.3.1-.4,0-.2-.1-.2-.7-.2-1.1,0-4.4,0-4.8,0-.2,0-.5,0-.6.1-.1.1-.5.2-1.5.1-.7,0-2.3,0-3.4,0-1.3,0-2.1,0-2.2,0-.1,0-1.6-.1-4.3,0-2.3,0-4.2,0-4.3,0,0,0-.2,0-.2,0,0,0,0,.1.2.1.1,0,.3.1.4.2.1.2.4.3,1.3.3.7,0,1.2,0,1.4-.1.2-.1.3-.1.3,0,0,.1.4.1,1.1,0,.6,0,1.1,0,1.2,0,.2.1,3.6,0,4.8-.2.8-.1,1.1-.1,1.3,0,.4.2.8.3.8,0,0-.2.5-.2.9,0,.2.1.4,0,.6,0,.2-.1.8-.2,1.9-.2.9,0,2.1,0,2.7,0,.8,0,1.3,0,1.4.1h0c.3.2,1.5.1,1.6-.1ZM116.4,62.8c0,0,0,0,0-.2,0-.3-1.5-.3-1.9,0-.2.1-.4.2-.5.1-.1,0-.3,0-.4.1-.2.2.1.2,2.7,0ZM118.2,63.1c.1,0,.2,0,.2,0,0,0-.2,0-.3,0h0c-.1,0,0,0,0,0ZM105.1,64c-.2,0-.7.1-1.2.2-.9.1-1.1.2-1.1.4,0,.2,2.5,0,2.7-.2.2-.2,0-.4-.4-.4ZM69.2,11.1c0,0-.1,0-.1,0,0,0,0,.1.1.1,0,0,.1,0,.1,0,0,0,0,0-.1-.1ZM243.4,64.5c-.2,0-.4,0-.7,0-.2-.1-.8-.2-1.2-.3-.8,0-.8,0-.5.2.3.3.1.5-.3.3-.2-.1-.3-.1-.4,0-.2.2.5.5,1.2.4.5,0,1,.3.8.5,0,0-.6.1-1.3.2-.7,0-1.3.1-1.4.2,0,0-.2,0-.2,0,0,0-.4,0-2.6-.2-1.5,0-2.7-.2-2.9-.3-.1,0-.4-.1-.7-.1-1.1,0-2.7-.1-4.4-.3-1-.1-2.3-.2-2.9-.3-.6,0-1.2-.2-1.4-.3-.2,0-.5-.2-.7-.2s-.6,0-1-.1c-.8-.1-.8-.4,0-.3.3,0,1.6.2,2.8.3,1.3.1,2.4.3,2.5.3,0,0,.5,0,1.1.1.5,0,1,0,1.1.1.2.1,1.5,0,1.6-.2,0-.1.4-.1,1.4,0,1.8.2,2.1.2,2,0,0-.2-.2-.3-.7-.3-1.6-.2-2-.2-2.1-.3,0,0-.4-.1-.8,0-.6,0-.8,0-1-.2-.3-.3-.7-.3-1,0-.1.1-.2.1-.4,0-.2-.1-.9-.3-2-.4-1,0-2.9-.3-4.3-.4-1.4-.1-2.8-.3-3-.4-.3-.1-.4-.1-.5,0-.2.2-.8,0-1.7-.2-.3-.1-.6-.2-.7-.1,0,0-.4,0-.8,0-.3,0-1-.1-1.6-.1-.5,0-1.3,0-1.6-.1-1.3-.3-2.6-.5-2.8-.5-.1,0-.3.2-.5.4-.4.4-.7.5-.8.2,0-.1-.3-.2-.6-.2-.3,0-1.5,0-2.7-.2-1.2-.1-2.3-.2-2.4-.2-.1,0-.5,0-1,0-.4,0-1.1,0-1.5-.1-.4,0-1.4,0-2.2-.2-1.3-.1-1.5-.1-1.7,0-.2.2-2.3.4-2.8.2-.2,0-1.1-.1-2-.1-.9,0-1.7,0-1.8-.2,0,0-1-.1-2-.2-1,0-1.9,0-2,0-.1,0-.2,0-.2.1,0,.1.2.2.5.2.3,0,.8.1,1.2.2.6.1.6.2.4.3-.3.1-.3.1.3.3.4,0,.7.2.8.2.2.1-.7.3-1.2.2-.3,0-.9,0-1.3,0-.4,0-.9,0-1.2,0-.3,0-.4,0-.3.1,0,.2,0,.2-.7.3-.5,0-.8,0-.8,0,0-.1-1-.2-3-.2-.8,0-1.1,0-1.2-.2-.2-.3-.2-.3-3.8-.3-1.4,0-2.1,0-2,.1,0,0,0,.2,0,.2-.3.1-1.8,0-1.9,0,0,0-.6-.2-1.2-.2-1,0-1.2,0-1.4.2-.2.3-.8.5-1.1.3-.2-.1-4.3,0-4.5.2,0,0-.3,0-.4-.2-.2-.3-.4-.3-1.5-.3-.7,0-1.4,0-1.4-.1-.2-.2-.6.2-.4.3.2.2-.2.3-1.2.4-.5,0-1.1.1-1.1.2,0,0-1.7.2-3.7.3-1.9,0-4.3.3-5.3.3-1.3.1-1.8.1-1.9,0,0-.1-.2-.1-.3,0-.1.1-.8.2-1.9.3-3.1.2-5.3.4-5.5.6,0,0-.2,0-.3,0,0,0-.5,0-1,0-.5,0-1.3,0-1.9,0-.9,0-1.1,0-1.1.1,0,.2-.2.2-1,.2-.5,0-1.4,0-1.8.2-1.2.3-1.4.3-2.5.4-2,0-3,0-3.1,0-.1-.2,2.1-.7,2.5-.5.1,0,.7,0,1.4-.1.7-.1,1.4-.3,1.7-.3.6,0,.8-.2.5-.3-.5-.2-.2-.3.7-.3.8,0,1,0,.9.2,0,.2.2.2,1.6.1.9,0,1.7-.1,1.7-.2,0-.1,1.4-.2,1.6,0,0,0,.2,0,.3,0,.2-.2,1.6-.4,3.2-.5.8,0,1.2-.1,1.3-.2,0,0,0-.2-.2-.2-.1,0,0,0,.2-.1.3,0,.5-.2.5-.3,0-.3-3.1-.1-7.8.4-1,.1-2.2.2-2.8.3-.6,0-1.1,0-1.1.1,0,0-.7.1-1.5.2-1.5.1-3.3.3-4.4.5-.4,0-1.7.2-3,.3-2.2.2-3.6.5-4.7.8-.3,0-1.4.2-2.5.2-1.3,0-2,.1-2.1.2,0,0-.5.2-.9.2-1.1,0-2.4.3-2.4.4,0,.1,2.3,0,2.9-.2.2,0,.3,0,.3,0,0,.2-.8.4-2.3.6-1.4.2-1.7.2-2.6.1-.6,0-.7,0-.9.2-.3.4-3,.7-3.1.3-.1-.3-1.5-.2-1.7,0,0,0,0,.1,0,0,.2-.1.5,0,.4.3,0,0-.2.2-.4.2-.2,0-.8.2-1.3.3-.6.2-1.2.4-1.5.4-.7.1-.6.3,0,.4.4,0,.7,0,.9-.2.4-.3,2.7-.5,2.7-.3,0,.1-.3.3-.5.3-.3,0-.5.2-.6.3-.3.2-1.4.3-3.7.4-2.3.1-3.1,0-1.6-.3.8-.1,1.3-.4,1.3-.6,0,0-.2-.2-.4-.3-.3-.2-.5-.2-2.1,0-1.8.2-3.1.4-4.6.7-1.2.2-2.2.3-2,0,0,0,.7-.2,1.5-.4.8-.1,1.4-.3,1.5-.3,0,0,.4-.2.7-.2,1.1-.2,1.2-.2,1.9-.4.6-.2,3-.5,3.2-.4.3,0,3.7-.4,3.8-.6.3-.2,1.1-.5,2.1-.6,1.7-.2,2.3-.3,2.8-.4.3,0,1.2-.2,2-.3.8-.1,1.6-.2,1.8-.3.2,0,.6-.1,1.1-.2.5,0,1.4-.2,2.1-.3.7-.1,1.6-.2,2-.3,2.2-.2,3.1-.4,4.1-.5,1.3-.2,2.3-.3,4.3-.5.7,0,1.6-.2,1.9-.2,1-.2,4.3-.5,5.6-.7,1.1,0,2.4-.2,3.3-.3,4-.5,11.9-1,20.6-1.4,4.5-.2,5.4-.2,5.5,0,.1.2.2.2.4,0,.2-.1.6-.2.9-.2.4,0,1.8,0,3.1-.2,1.4-.1,2.6-.1,2.7,0,.4.2,1.2,0,1.2-.4,0-.4,0-.4.6-.1.2.1.5.2.5.1.1-.1,1.9,0,2.2.2.3.2,4.3,0,5.4-.1.5,0,.8,0,.9,0,.2.1.3.1.6,0,.6-.3,2.8-.2,3.1,0,.3.3.7.2,1.1-.3.2-.3.3-.3,1.3,0,1.2.2,1.2.2,1.8,0,.3,0,.6,0,.9.1.4.2.5.2.8,0,.4-.2.4-.2,1.5,0,.6.1.9.2,1.2,0,.3-.1.5-.1,1.1,0,.6.2.7.2,1.1,0,.4-.2.7-.2,2.5-.2,1.2,0,2.3.1,2.6.2.3,0,.9,0,1.4,0,.5,0,1.3,0,1.7,0,.5,0,1.4.1,2,.1.6,0,1.3.1,1.4.2.2.1,1.3.1,3.1,0,.1,0,.5,0,.9,0,1.3.2,2.4.3,3.1.4.4,0,.8,0,.9,0,.8.2,2.6.2,2.8,0,0,0,.5-.2,1-.2,1.2,0,1.3,0,1.9,0,1.1.3,1.7.4,2.9.4.6,0,2,.1,3.1.2,1,.1,2.1.2,2.4.2,1.1,0,2.6.3,2.8.5,0,.1.3.2.5.2.2,0,.7,0,1.1.2.5.1,1.3.3,1.8.4.5,0,1.2.2,1.5.4.3.1,1,.3,1.6.4.6,0,1.3.3,1.6.4.6.2,1.6.2,2,0,.2-.1,1.7.1,2.4.5.5.2.5.3.3.4ZM158.5,61.5c-.3,0-.7-.2-.9-.2-.3-.1-1.1-.1-4,0-4,.2-4.3.3-6.5.3-1.7,0-2,.2-2,.7,0,.3,0,.3.5.3.2,0,.5-.1.5-.2,0,0-.1-.2-.3-.3-.2-.1,0-.1,1.1-.1.8,0,1.5,0,1.6.1.2,0,.2.1,0,.1-.1,0-.2,0-.2.1,0,0,1,0,2.1,0,1.2,0,3.5-.2,5.3-.3,3.6-.2,4.5-.4,2.9-.6ZM96.7,66c.2,0,.4-.1.4-.2.3,0,.2-.4-.1-.6-.2-.1-.4-.1-.5,0-.1,0-.4.2-.6.2-.3,0-.6.5-.4.7,0,0,1,0,1.2-.1ZM100.1,65.3c1.3-.1,1.8-.3,1.2-.5-.2,0-.4,0-.4,0,0,0-.5.1-1.1.2-1.1.2-1.2.2-1,.4,0,.1.5.1,1.4,0ZM28,40.5c.1.2.2.1.2,0,0-.1,0-.2-.1-.1-.1,0-.2.1-.1.2ZM28.9,40.2c0,0,0,0,.2,0,.1,0,.2-.1.2-.1,0,0,0,0-.2,0-.1,0-.2,0-.2.1ZM41.1,48.5c-.1,0,0,0,0,0,.1,0,.2,0,.2,0,0,0-.2,0-.3,0ZM184.5,58.4c.6,0,.8,0,1,.2.2.2.2.2.8,0,.3-.1.7-.2.7-.2.3,0,1.1,0,2.6,0,.8,0,1.7,0,1.9,0,1.1.2,1.9.3,3,.2,1.8-.1,1.7-.1,2.6,0,1.6.1,2.8,0,3,0,.1,0,.4,0,1,0,1.1.2,1.1.2,1.3,0,.1-.3.2-.3-2.2-.4-2.7-.2-4.8-.2-4.9,0,0,.2-.5.2-.7,0-.1-.1-.7-.2-1.9-.2-.9,0-2,0-2.4,0-.5,0-.8,0-.9.2-.1.2-.2.2-.6,0-.5-.3-1.5-.3-1.8,0-.1.1-.3.2-.4.1-.4-.3-2.7-.5-2.9-.3,0,0,0,.2,0,.3,0,.2.3.2.9.2ZM26.4,40.8c-.1,0-.2.1-.2.2,0,0,.1.1.2,0,.1,0,.4-.1.6-.2.2,0,.4-.2.4-.2,0-.1-.3,0-1,.1ZM59.4,56.3c-.1,0-.2,0-.3.1,0,0,0,.1.1.1.1,0,.2,0,.3-.2,0,0,0-.1-.1-.1ZM214.7,58.4c2.3,0,3.7,0,3.9.2.1.1.4.1.8,0,.4,0,.9,0,1.6.2,1.1.3,1.9.3,1.9,0,0,0-.1-.2-.4-.2-.5-.1-1.9-.4-2.7-.6-.4,0-.8-.1-1.1,0-.2,0-.5,0-.7,0-.4-.2-1.9-.3-3.7-.2-.9,0-.9,0-.9.4,0,.3,0,.3,1.1.2ZM247.3,60.7c-.3-.2-1.6-.2-1.9-.1-.4.2,0,.3.8.3.4,0,.7,0,.8,0,0,0,.1,0,.3,0,.2,0,.2-.1,0-.2ZM27.3,45.1c0,0,0-.2-.1-.2-.2-.1-.7,0-.6.2.1.2.8.1.8,0ZM33.1,55.6c0-.2-.6-.3-.7-.1,0,0,0,.2.1.3.2.1.6,0,.6-.1ZM25.7,45.5c0,0,0-.1-.2-.1-.2,0-.3,0-.3.1,0,0,0,.1.2.1.1,0,.2,0,.3-.2ZM41.5,52.6c0,0-.2-.1-.4-.1-.2,0-.3,0-.3.1,0,0,.2.1.4.1.1,0,.3,0,.3-.2ZM58.2,56.5c-.2,0-.7.1-1,.2-.4,0-.5.2-.4.2.1,0,.3,0,.5,0,.2,0,.5-.1.7-.2.2,0,.5-.2.5-.2.1-.1,0-.1-.3,0ZM31.6,53c0,0,0-.1-.1-.1-.1,0-.2,0-.1.1,0,0,.1.1.1.1,0,0,0,0,.1-.1ZM29.4,52.5c-.4,0-.8.2-.8.3,0,.2.5.1.8-.1.2-.2.2-.2,0-.2ZM28.9,54.2c0,0,0,.1.1.1,0,0,.1,0,.1,0,0,0,0,0-.1-.1,0,0-.1,0-.1,0ZM31.2,55.9c.2.1.7,0,.8,0,.1-.2-.2-.4-.6-.3-.3,0-.4.2-.2.4ZM235.6,67.7c.9.2,3.2.2,3.3,0,0-.1-3.4-.7-4.3-.8-.3,0-.8,0-1.1-.1-.3,0-1.2,0-1.8,0-1.1,0-1.8,0-2.9-.5-.2,0-.5-.1-.8-.1-1,0-3.2-.4-4.3-.5-.6,0-1.7-.2-2.4-.2-1.2,0-1.3,0-1.1.2.2.2,2.1.4,3.2.3.1,0,.2.1.3.3,0,.3.5.5.9.3.2,0,.4,0,.5,0,.2.2,1.9.4,3.5.4.4,0,.8,0,1,0,.3,0,.4.4.2.5-.4.2,0,.5.6.5.4,0,.9,0,1.1.1.2,0,.6,0,.9,0,.3,0,.5,0,.5.1,0,0,.2.1.5,0,.9,0,2.5,0,3.3.1.8,0,1.2,0,1.2-.2,0-.2-.3-.3-.8-.3-.3,0-.6,0-.6,0,0,0-.3,0-.5,0-.4,0-1-.3-.8-.4,0,0,.4,0,.8,0ZM199.4,30.6c0-.1-.1-.2-.2-.2-.2,0-.3.2-.1.3.2.2.3,0,.3-.1ZM19.6,28.4c.5-.1,1.1-.2,1.3-.3.4,0,.7-.2.5-.4,0,0-.6,0-1.2.2-.6.2-1.3.3-1.5.4-.2,0-.5.1-.5.2-.2.2.4.2,1.4-.1ZM29.8,44c0,0-.2,0-.2,0,0,0,0,.1.1.1.2,0,.3,0,0-.2ZM256.2,46.2c0-.1-.3-.3-.6-.4-.3,0-.7-.3-1-.5-.3-.2-.7-.4-.9-.4-.3,0-.6-.2-.8-.3-.4-.2-2.3-.7-2.6-.6-.1,0-.2.1-.2.3,0,.3,0,.3-1,.3-.7,0-1.1,0-1.4-.2-.5-.3-.6-.2-.2.2.3.2,1,.4,3.1.8,1.5.3,3.3.6,4,.8,1.6.3,1.7.3,1.6,0ZM27.5,56.9c0,0,.1.1.3.1.3,0,.3,0,0-.1-.3-.2-.4-.2-.4,0ZM31.4,43.7c.1,0,.2-.2.1-.2-.1-.1-.5,0-.5.2,0,.2.2.2.4,0ZM28.5,44.5c0,0,0-.1-.1-.1-.1,0-.2,0-.3.2,0,0,0,.1.1.1.1,0,.2,0,.3-.1ZM29.6,45.5c.1.2.7.1.9-.1.1-.1.5-.2.7-.2.2,0,.5-.1.6-.2.1-.2.1-.2-.2-.2-.5,0-2.2.7-2.1.8ZM56.6,49c.8-.2,1.5-.3,2.2-.4.3,0,.8-.1,1-.3.2-.1.6-.2.9-.2.3,0,.6-.1.7-.2.1-.1.2-.2.5,0,.2,0,.4,0,.4,0,0,0,.3-.1.7-.2.6,0,.9-.3.7-.4,0,0-1.5.2-2.4.4-.2,0-.5.1-.8.1-.2,0-.7.1-1,.2-.3.1-.6.2-.7.1,0,0-.5,0-.9.2-.4.1-1,.2-1.3.3-.7,0-1,.2-.8.4h0c.1.1.3.1.8,0ZM69.4,55.6c-.3-.2-.4-.2-.4,0,0,0,.1.1.3.1.3,0,.3,0,0-.1ZM71.6,53c.1.2.6-.2.6-.4,0-.2-.6-.2-2,.1-1.5.3-1.8.5-1.7.7.1.3,1.2.2,1.5-.1.3-.3,1.5-.5,1.6-.3ZM68.5,56.9c.3.2.6.1,1.4-.1.4-.1.9-.2,1-.2.1,0,.3,0,.5-.1q.3-.2,0-.3c-.3,0-2.8.4-3,.5,0,0,0,.1.1.2ZM28.5,54.2c0,0,0-.1-.4,0-.2,0-.5.1-.6.1s-.2.1-.3.2c0,.2,0,.2.2.1.1,0,.4-.1.6-.2.2,0,.4-.2.5-.2ZM56.3,61.6c0,0,.3,0,.6,0,.7,0,.7-.1,0-.2-.5,0-.8,0-.7.2ZM57.7,61.3c-.1.1,0,.2.2.2.3,0,.3,0,.2-.2-.1-.1-.2-.1-.3,0ZM55.5,58.5c.2,0,.4,0,.6,0,.1,0,.7-.1,1.1-.2.6,0,.9-.2.9-.3,0,0,0-.2-.2-.2-.1,0-2.2.4-2.6.6,0,0,0,0,.2.1ZM73.1,54.8c0,0,.3,0,.8,0,.8-.1,1-.2.8-.3-.1-.1-1.6.2-1.6.3ZM55.2,57.3c0,0,.1,0,.3,0,.4-.1.5-.2,0-.2-.2,0-.4,0-.4.1ZM74.9,55.2c.2,0,.3,0,.3-.1,0,0,0-.1-.2-.1-.1,0-.2,0-.3.1,0,0,0,.1.2.1ZM40.5,58.4c0,0,0,.1.1.1,0,0,.2,0,.2-.1,0,0,0-.1-.1-.1-.1,0-.2,0-.2.1ZM38.9,58.7l-.9.2h1c.5-.2,1-.3,1.1-.4.2-.2,0-.2-1.2.1ZM46.6,59.8c0,0,0,.1,0,.1,0,0,0,0,.1-.1,0,0,0-.1,0-.1,0,0-.1,0-.1.1ZM41.9,58.4c.1,0,.2,0,.1-.1,0,0-.2-.1-.3-.1-.1,0-.2,0-.1.1,0,0,.2.1.3.1ZM76.4,51.9c0-.1-.2-.2-.6-.1-.7,0-1.1.3-.5.3.7,0,1.1,0,1.1-.2ZM41.7,57.7c0-.2-1.9,0-2.4.3l-.4.2h.6c.3,0,.6.1.7.1,0,0,.1,0,0-.1,0,0,.2-.1.4-.2.6,0,1.1-.2,1.1-.3ZM50.5,56c0,.2-.6.4-1.4.5-.4,0-.7.1-.8.2-.4.3-2.1.6-2.5.4-.2-.1-.4-.1-1,0-.5,0-1.2.2-1.6.3-.7,0-.8,0-.6-.1.1-.1.5-.2.8-.3.3,0,.9-.2,1.4-.3.5-.1,1.3-.2,1.9-.3.6,0,1.3-.1,1.5-.2.7-.2,2.3-.3,2.3-.1ZM46.9,56.7s0,0-.2,0c-.1,0-.2,0-.2.1,0,0,0,0,.2,0,.1,0,.2-.1.2-.1ZM202,72.6c-.3-.2-1.3-.1-1.2,0,0,.1.2.2.7.1.8,0,.8,0,.6-.2ZM120.4,76.1c-.1,0,0,0,.2,0,.3,0,.4,0,.2,0-.1,0-.4,0-.5,0ZM136.6,74.1c0,0-.1,0-.1.1,0,0,.1.1.2.1.1,0,.2,0,.1-.1,0,0-.1-.1-.2-.1ZM140.7,73.8c0,0,0,0,.2,0,.2,0,.3,0,.2,0,0,0-.3,0-.3,0ZM140,74.1c0,0,0,.1,0,.1,0,0,0,0,.1-.1,0,0,0-.1,0-.1,0,0-.1,0-.1.1ZM134.8,74.4c0,0,0,0,.2,0,.2,0,.3,0,.2,0,0,0-.3,0-.3,0ZM125,75.4c0,0-.1,0,0,.1,0,0,.1.1.2.1,0,0,0,0,0-.1,0,0,0-.1-.2-.1ZM129.4,75c-.4,0-.4,0-.3.1.1,0,.2.1.3.1,0,0,.2,0,.3-.1.2-.1,0-.1-.3-.1ZM123.3,75.7c0,0,0,0,.2,0,.2,0,.3,0,.2,0,0,0-.3,0-.3,0ZM125.7,75.4c-.2,0-.2,0,0,.1.3.2.5.2.3,0,0,0-.2-.1-.3-.1ZM130.4,75.1c0,.2.5.1.7-.1.1-.2.1-.2,0-.2-.3,0-.6.2-.6.3ZM142.2,73.7c-.4,0-.5.2,0,.3.3,0,.4,0,.4-.2,0,0-.2-.1-.4-.1ZM154.8,72.9c0,0-.1.2,0,.2,0,0,.1,0,.2,0,.2-.2,0-.4-.2-.2ZM153.8,72.8c-.2,0-.3.2-.1.3.2.2.3,0,.3-.1,0-.1-.1-.2-.2-.2ZM160.9,72.5c0,0-.1,0-.1.1,0,0,0,.1.1.1,0,0,.1,0,.1-.1,0,0,0-.1-.1-.1ZM157.5,72.9c-.1,0,0,0,0,0,.1,0,.2,0,.2,0,0,0-.2,0-.3,0ZM146,73.3c0,0-.1,0,0,.1,0,0,.1.1.2.1,0,0,0,0,0-.1s0-.1-.2-.1ZM147.4,73.3c0,0-.2,0-.2,0,0,0,0,.1.1.1.2,0,.3,0,0-.2ZM151.3,73.1c-.1,0-.2,0-.1.1,0,0,.1.1.1.1,0,0,0,0,.1-.1,0,0,0-.1-.1-.1ZM110.1,77.6c-.1,0-.2,0-.1.1,0,0,.1.1.1.1,0,0,0,0,.1-.1,0,0,0-.1-.1-.1ZM90.6,77.6c-.3-.2-2.5-.3-2.6,0,0,0-.3.1-.5,0-.5,0-.7,0-.4.3.2.1.5.1.8,0,.3,0,.7,0,.8,0,.3.1,1.8,0,2-.1.1,0,0-.2-.1-.3ZM88,81.4c0,0-.1,0-.1.1,0,0,0,.1.1.1,0,0,.1,0,.1-.1,0,0,0-.1-.1-.1ZM91.6,80.8c0,0-.1.1-.1.2,0,.1,0,.2.1.1,0,0,.1-.1.1-.2,0,0,0-.1-.1-.1ZM95.7,79.9c0,0-.1,0,0,.1,0,0,.1.1.2.1,0,0,0,0,0-.1,0,0,0-.1-.2-.1ZM92.6,80.5c0,0-.1,0-.1.1,0,0,.1.1.2.1.1,0,.2,0,.1-.1,0,0-.1-.1-.2-.1ZM85.6,81.9c-.1,0-.2,0-.2.1,0,0,0,.1.2.1.1,0,.2,0,.2-.1,0,0-.1-.1-.2-.1ZM85.7,79.5c-.2,0-.6,0-.8.1h-.5c0,.1.4.2.4.2.7.1.9.1,1-.1.1-.2.1-.2-.2-.2ZM87.3,81.6c0,0,0,.1,0,.2,0,0,.1,0,.2,0,0,0,0-.1,0-.2,0,0-.1,0-.2,0ZM111.8,77.2c0,0-.1,0-.1.1,0,0,0,.1.1.1,0,0,.1,0,.1-.1,0,0,0-.1-.1-.1ZM97.6,79.6c-.5,0-.7.2-.6.4.2.2.6.1.8-.2.2-.3.2-.3-.3-.3ZM117.6,74.9c-.6.1-2,.3-2.9.4-1,0-1.9.2-2.1.3-.2,0-.9.2-1.5.2-1.7.2-3.7.5-3.7.7,0,0-.2.1-.4,0-.2,0-.8,0-1.3.2-.5.1-1.3.3-1.9.4-.6,0-1.7.2-2.3.3-.7.1-1.4.2-1.6.3-.2,0-.6.1-.8.2-.2,0-.8.1-1.3.2-1.1.1-1.9.3-2,.4-.1,0-.7.2-1.7.3-.4,0-.8.1-.9.2,0,0-.8.2-1.6.3-1.6.3-2.1.4-2.1.6,0,0,.1.1.3,0,.3-.1.5-.1,2.6-.4.8-.1,1.7-.3,1.9-.4.3,0,1.1-.3,1.9-.4.8-.1,1.5-.3,1.6-.4,0,0,.5-.1.9-.1s1.2,0,1.7-.2c1-.2,2.7-.4,3.2-.4.2,0,.6-.1.9-.2.3-.1,1-.2,1.5-.3.5,0,1.2-.1,1.6-.2,1.3-.3,4.9-.9,5.6-1,1.3-.1,3-.3,3.4-.5.2,0,.6-.2.8-.1.6,0,1.8-.2,1.6-.4,0,0-.5,0-1.3,0ZM112.7,77.2c-.1,0-.2,0-.1.1,0,0,.1.1.1.1,0,0,0,0,.1-.1,0,0,0-.1-.1-.1ZM117.7,76.4c-.1,0,0,0,0,0,.1,0,.2,0,.2,0,0,0-.2,0-.3,0ZM116.8,76.4c0,0-.2,0-.2.1,0,0,0,.1.1.1.1,0,.2,0,.2-.1,0,0,0-.1-.1-.1ZM103.3,78.6c-.2,0-.4.1-.4.2,0,0,.3,0,.5,0,.2,0,.4-.1.4-.2,0,0-.3,0-.5,0ZM104.7,78.3c-.1,0-.2,0-.3.1,0,0,0,.1.3.1.2,0,.3,0,.3-.2,0,0-.2-.1-.3-.1ZM163.8,72.4c0,0-.1,0-.1.1,0,0,.1.1.2.1.1,0,.2,0,.1-.1,0,0-.1-.1-.2-.1ZM200.8,63.1c.7,0,1.4,0,1.4,0,.2-.3-2.3-.5-2.6-.2-.1.2,0,.2,1.1.3ZM204.6,68.4c0,0-.2-.1-.4-.1-.2,0-.5,0-.7,0-.2,0-.3,0-.2,0,0,0,.3.2.4.2.5,0,.9,0,.9,0ZM199.7,72.7c-.3,0-.7,0-.8,0-.2,0-.2,0-.2.1,0,.1,0,.2.1.3.2.1,1.6,0,1.6-.2,0,0-.3-.1-.6-.1ZM209.6,71.1s0,.2,0,.2c0,0,.4.1.7.1.6,0,.6,0,.4-.2-.2-.2-1-.3-1.2-.1ZM202.1,69.1c-.4,0-.5,0-.4,0,0,0,.2.1.4.1.2,0,.6.1,1,.2.8.3,1,.3,1.1.1.1-.2-.2-.4-.8-.5-.4,0-.9,0-1.2-.1ZM212.1,70c.2,0,.8,0,1.5,0,.6,0,1.3,0,1.4,0,.4-.1-.2-.3-1.9-.4-.9,0-1.9-.1-2.3-.2-.3,0-1.1-.1-1.7-.1-1.8,0-1.9,0-2.5-.2-.4,0-.7,0-.7,0,0,0,.3.2.6.2,1.3.1,1.5.2,2.8.2.7,0,1.3,0,1.4,0,0,0,.3,0,.6.1.3.1.6.2.8.2ZM216.1,68.8c-.2,0-.3,0-.2,0,0,0,.2.1.4.1.1,0,.3,0,.4.1.1.2.4.2.3,0,0,0-.2-.2-.3-.2-.1,0-.4,0-.5-.1ZM217,65.3c0,.2.3.2,1.2.3.6,0,1.2,0,1.2,0,0,0,.1,0,.2-.1.1-.2-.4-.3-1.6-.4-.8,0-1,0-1,.1ZM217.1,68.5c0,0-.2-.2-.5-.2-.3,0-.7-.1-.8-.2-.2,0-.2,0-.2.2,0,.1.2.3.4.3.2,0,.4,0,.4.1.1.1.7,0,.8-.2ZM228.1,70.8c-.3,0-2.2-.1-4-.3-1.9-.2-4.1-.3-4.9-.4-.8,0-1.6-.1-1.8-.2-.4,0-.6,0-.4.3,0,.1.4.2.8.2.6,0,2.3,0,5,.3,1.9.2,2.3.2,2.7.4.4.2,1.9.3,3.5.4.4,0,.8,0,.9.1.2.2.6,0,.6-.2,0-.2,0-.2.5-.2.7,0,1.2-.2.6-.3-.4,0-2.6-.3-3.6-.3ZM166.2,72.3s0,0-.1.1c0,0,0,.1,0,.1,0,0,.1,0,.1-.1,0,0,0-.1,0-.1ZM216.3,63.6c-.9,0-1.5.2-1.6.2-.1.2.2.2,1.6.3.7,0,1.5,0,1.7,0,.2,0,.5,0,.7,0,.2,0,.2,0,.2-.1-.1-.1-2.1-.4-2.6-.3ZM222.1,69.7c.5,0,1.1,0,1.5,0,.6,0,.6,0,.5-.2-.1-.1-.5-.2-1-.2-.8,0-1.6,0-2.7-.3-.2,0-.3,0-.3,0,0,.1.4.3.9.3.2,0,.7,0,1.1.1ZM232.3,69.6c-.4.2-1.5,0-1.6-.3,0-.1.2-.2,1.3-.2,1.6,0,1.5-.2-.2-.3-.6,0-1.7-.2-2.5-.3-1.6-.2-2.2-.2-2.4,0-.1.2-2.7.1-3.1,0-.2-.1-.8-.2-2.2-.3-.6,0-1.4-.1-1.6-.1-.2,0-.7,0-1.2,0-1.2,0-.7.3.7.4.9,0,1.5.2,2,.4.5.2,1,.3,1.8.4.6,0,1.7.1,2.3.2,1.5.2,4.2.4,4.3.3,0,0,.1,0,.2,0,0,0,.4.1.9.1.4,0,1,0,1.2,0,.2,0,.6,0,.7,0h.3s-.4-.4-.4-.4c-.3-.3-.4-.3-.7-.2ZM84.7,82.1c-.1,0-.2,0-.2.1,0,0,0,.1.1.1,0,0,.2,0,.2-.1,0,0,0-.1-.1-.1ZM199.7,67.2c-.3,0-.6.1-.5.2,0,0,.4,0,.8,0,.6,0,.7,0,.5-.2-.1-.1-.4-.2-.8,0ZM220.6,73.4c-.7-.1-1.6-.2-2-.2-.6,0-3.5-.1-6.3-.3-.8,0-1.7-.1-2.2-.1-.4,0-1.3,0-1.9-.1-.6,0-1.6-.1-2.2-.1-.6,0-1.2-.1-1.3-.2-.2,0-.3,0-.4,0,0,0-.5.2-.9.2-.7,0-1,.1-1,.3,0,.2,1.7,0,1.8-.3,0,0,.2,0,.4.2.2.3.3.3.5.2.2-.1.8-.1,2,0,1,0,2.1,0,2.4,0,.4,0,.7,0,.8,0,0,.1,2.4.3,4.3.3.5,0,1.3,0,1.9.1.6,0,1.5,0,2,0,.5,0,1.1,0,1.2,0,.3.1,1.1.1,1.7,0,.3,0,.2-.1-.9-.3ZM225.3,72.3s-.2-.1-.5-.3c-.3-.2-.6-.3-.8-.2-.2,0-.8,0-1.3-.1-.6-.1-1.2-.2-1.6-.1-.3,0-1.3,0-2,0-1.2,0-2.3-.1-3.8-.2-.3,0-.6,0-.8,0-.8-.2-1.4-.2-1.4,0,0,.2.8.4,1.6.5.4,0,.9,0,1.2.2.3,0,.9.1,1.3.2.4,0,1.5,0,2.4.2,1,0,1.7.1,1.7.2,0,0,.9,0,1.9.1,1.1,0,2,0,2.1,0,0,0,.2,0,.2-.1,0-.1-.2-.2-.3,0ZM226.4,72.3c0,0,.1.1.2.1.1,0,.2-.2,0-.3-.1-.1-.3,0-.2.2ZM193.5,72.3c0,0-.1,0,0,.1,0,0,.1.1.2.1,0,0,0,0,0-.1,0,0,0-.1-.2-.1ZM190.5,72.4c0,0-.1,0-.1.1,0,0,0,.1.1.1,0,0,.1,0,.1-.1,0,0,0-.1-.1-.1ZM192.4,72.6c0,0,0,.1,0,.1,0,0,0,0,.1-.1,0,0,0-.1,0-.1,0,0-.1,0-.1.1ZM192.1,70.8c-2,0-2.1,0-2.6,0-.1,0-.6,0-1,0-.4,0-1.8-.1-3,0-1.2,0-3.2,0-4.4,0-1.2,0-2.3,0-2.5,0-.5,0-2.8.1-7.7,0-.8,0-1.6,0-1.8,0-.2,0-1.1,0-2.1,0-1,0-4.1.2-6.9.3-2.8,0-5.5.2-5.9.3-.5,0-.9,0-1,0,0,0-.8,0-1.7,0-.8,0-2.8.3-4.3.4-1.6.1-3.8.3-4.9.4-1.1,0-3.3.2-4.8.3-1.5,0-3.3.3-3.9.4-.6.1-1.8.2-2.5.3-.8,0-1.4.1-1.4.2,0,0-.5.2-1.1.2-.5,0-2.3.2-3.8.4-1.6.2-3,.4-3.3.4-.7,0-2.3.5-2.3.7,0,0,.4,0,1.2,0,.7,0,1.5-.2,1.8-.2.3,0,1.2-.2,2-.3.8-.1,1.5-.2,1.7-.2.3,0,.7,0,3.4-.4.8-.1,1.5-.2,1.7-.2.3,0,2.9-.3,3.9-.4.4,0,1.3-.1,1.9-.2.6,0,1.9-.2,2.8-.3.9,0,2.8-.2,4.2-.3,5.1-.3,7.5-.5,8.1-.6.4,0,.7,0,.7,0,0,0,.1.1.4,0,.3-.1,2.4-.2,6.9-.4.8,0,2,0,2.7,0,2.6,0,8.1-.2,10.1-.2,1.1,0,3.4,0,5.1,0,1.7,0,3.5,0,4.1,0,3.4,0,6.6.1,7.1.1.8,0,2.2,0,4.2,0,1.4,0,1.6,0,1.2-.2-.2-.1-1.1-.2-2.4-.2ZM184.1,72.4c0,0,0,.1,0,.1,0,0,0,0,.1-.1,0,0,0-.1,0-.1,0,0-.1,0-.1.1ZM194,69c-.4-.2-1.8-.2-1.9,0,0,0,.2.2.6.2.4,0,.8.1.9.2.4.2,1.4.1,1.2,0,0,0-.2-.1-.4-.1-.2,0-.4,0-.5-.1ZM210.6,63c-.6,0-1.1-.1-1.1-.3,0-.2,1.6-.2,2.4,0,.4,0,.7.2.7.3,0,0,0,.2.1.3,0,0,.1.2,0,.3,0,0-.2,0-1.2,0-.4,0-.5,0-.5-.4,0-.3,0-.3-.5-.3ZM212,63.2c0,0,0,.1.1.1,0,0,.1,0,.1-.1,0,0,0-.1-.1-.1,0,0-.1,0-.1.1ZM174,72.2c-.1,0,0,0,0,0,.1,0,.2,0,.2,0,0,0-.2,0-.3,0ZM172.7,72.3c0,0,.1.1.2.1.2,0,.3-.3.1-.3-.2-.1-.4,0-.3.2ZM195.6,72.6c-.4,0-.4.3,0,.3.2,0,.8,0,1.4,0,1.5,0,1.5-.4,0-.3-.6,0-1.3,0-1.4,0ZM206.8,65.3c0,0,.2,0,.4,0,.2,0,.2,0,0-.2,0-.1-.3-.2-.4-.2-.2,0-.2.2,0,.3ZM201.8,64.8s0,.1,0,.2c.1.2.4.2.4,0,0-.2-.3-.3-.4-.2ZM207.9,62.8c.2,0,.3,0,.3,0,0-.4-4.1-.5-4.7-.1-.2,0-.3,0-.4-.1-.2-.3-1.2-.5-2.3-.5-.9,0-.7.2.3.3.6,0,1,.1,1.4.4.5.3.9.4,2.5.5,1.1,0,2.2.2,2.5.2.9,0,1,0,1.2,0,.3-.1.2-.1-.1-.3-.2,0-.5-.1-.7-.1-.1,0-.3,0-.3-.1,0,0,.1,0,.3,0ZM233.7,69c0,0-.1,0-.1.1,0,0,.1.1.2.1.1,0,.2,0,.1-.1,0,0-.1-.1-.2-.1ZM196.3,71.3c0,0-.3,0-.4,0-.1,0,0,0,.2,0,.2,0,.3,0,.2,0ZM201.6,67.1c0,0,.8.2,1.6.3.8,0,1.6.2,1.7.2.2,0,.2,0,.2-.1,0-.2.1-.2.9-.2,1,0,1.2,0,2.7.6.6.2,1.1.3,1.5.2.3,0,.6,0,.7,0,0,0,0,0,0-.2-.1-.3.2-.4.6,0,.7.5,2.3,1,2.4.7,0-.2.4-.2.4,0,0,.1.2.2.3.2.4,0,.5,0,.5-.2,0-.3-.9-.7-1.6-.8-.2,0-.5-.1-.6-.2-.1-.1.2-.1,1.4-.1.8,0,1.8,0,2,0,.3,0,.6,0,.7.1,0,0,.7.1,1.4.2.7,0,1.4,0,1.6.1.2,0,.3,0,.3,0,0,0-.2-.2-.4-.2-.4,0-.6-.4-.3-.3.2,0,1.3.1,1.7.2.2,0,1.1,0,2,.1,1,0,2,.1,2.2.2.9.2,3.3.3,3.4.1.3-.3-.2-.4-1.6-.4-1,0-1.5,0-1.7-.2-.2-.1-.6-.2-.8-.3-.3,0-.7,0-.9-.1-.5,0-2.6-.2-4.5-.3-2.2-.1-2.6-.2-2.9-.5-.2-.2-.4-.3-1-.4-1.3-.1-2.2,0-2.4,0-.1.1-.2.1-.3,0-.3-.2-.6-.2-.8.1-.1.2-.2.3-.7.2-2.1-.1-3.3-.2-3.6-.4-.2,0-1-.1-1.8-.1-1.9,0-4.8,0-5-.2,0,0-.7,0-1.4,0-.7,0-1.6,0-1.9,0-.6,0-1,.2-.4.3.7.1,2.2.3,2.7.2.3,0,.6,0,.7.2.2.3,2.3.5,2.6.3.4-.2.8-.2.9,0,.3.4-.8.6-2.4.4-1.8-.2-3.4-.2-3.4,0,0,.2,0,.2.4,0,.5-.1,2.3,0,2.6.2ZM198.3,67c-.1,0-.4-.1-.6-.2-.2,0-.8-.2-1.4-.1-.6,0-1.2,0-1.4,0-.4,0-.7.2-.4.3.1,0,.8.2,1.6.3.8.1,1.7.2,1.9.2.5,0,.6-.2.2-.3ZM222.1,41.2c.7-.2-5.8-.9-5.8-.9-1.6.8,5.1,1,5.8.9ZM239.9,62.4c.9-.4-9.2-1.6-9.2-1.6-.8.6,8.3,2,9.2,1.6ZM46,12.5c.2-.6-15.8,2.9-15.8,2.9-.8.5,15.5-2.3,15.8-2.9Z"/>
</svg>